<svg width="706" height="1228" viewBox="0 0 706 1228" fill="none" xmlns="http://www.w3.org/2000/svg">
<path d="M298.146 1205.48C305.003 1206.62 311.361 1203.86 317.078 1200.32C323.104 1196.59 328.845 1192.32 334.373 1187.87C336.034 1186.53 333.661 1184.18 332.001 1185.51C327.019 1189.54 321.823 1193.35 316.414 1196.81C311.289 1200.08 305.311 1203.31 299.048 1202.26C296.936 1201.91 296.059 1205.12 298.146 1205.48" fill="#937C76"/>
<path d="M555.276 873.789C563.266 844.982 565.028 814.463 560.407 784.929C585.45 787.587 609.779 796.943 630.151 811.77C624.254 783.89 611.694 757.448 593.773 735.279C584.2 723.41 572.61 712.448 558.212 707.46C544.579 702.748 521.527 704.389 512.464 717.618C504.04 729.938 506.848 753.636 508.073 767.508C511.596 806.807 528.113 845.062 555.276 873.789Z" fill="#A1ACB5"/>
<path d="M529.135 496.638C558.624 423.511 599.867 335.825 685.148 326.077C713.069 332.607 726.495 501.632 621.311 621.827C602.531 643.31 578.318 668.61 564.867 693.792C550.971 719.833 545.199 746.232 548.176 775.478C506.228 752.806 504.034 704.232 502.18 662.728C499.646 606.307 507.952 549.139 529.135 496.638" fill="#A1ACB5"/>
<path d="M542.328 658.651C550.191 654.401 556.74 647.761 560.912 639.837C561.089 644.042 560.912 648.259 560.33 652.426C572.745 638.335 579.369 619.254 578.282 600.49C578.965 611.977 579.647 623.466 580.305 634.952C587.258 619.094 590.292 601.535 589.053 584.263C588.471 576.058 586.171 566.812 578.889 562.971C573.807 560.284 567.334 561.11 562.404 564.097C557.499 567.083 553.959 571.945 551.456 577.133C538.637 603.762 558.029 631.997 542.328 658.651" fill="#3F3532"/>
<path d="M522.2 930.364C513.87 934.347 505.539 938.33 497.208 942.312C510.617 941.289 524.126 942.555 537.06 946.057C526.803 949.52 516.521 952.982 506.264 956.442C520.674 955.463 535.184 959.976 546.716 969.002C535.284 966.884 523.476 969.625 512.168 972.975C500.886 976.325 489.553 980.328 477.896 980.775C466.263 981.228 453.905 977.536 446.6 967.914C444.348 964.927 442.572 961.267 442.672 957.362C442.697 954.983 443.423 952.647 444.473 950.525C456.531 925.879 501.111 929.769 522.2 930.364" fill="#3F3532"/>
<path d="M329.273 207.675C329.273 207.675 314.963 393.015 236.656 495.424C158.35 597.833 19.2631 651.672 20.7839 819.16C22.0054 953.193 82.4369 993.281 185.35 1004.34C288.287 1015.39 365.123 999.334 439.789 903.489C504.608 820.294 532.655 497.301 527.843 398.893C523.032 300.485 512.037 222.109 512.037 222.109L329.273 207.675" fill="#665651"/>
<path d="M169.98 755.295C184.157 695.94 244.137 659.915 301.564 639.246C326.498 630.274 352.622 622.809 379.067 624.445C405.513 626.078 432.529 638.235 446.185 660.931C455.603 676.568 457.884 695.451 458.156 713.701C459.544 801.237 417.831 888.435 348.78 942.274C402.861 929.031 429.777 927.065 478.207 932.573C484.999 933.346 508.966 973.421 506.487 976.018C494.318 988.805 349.87 1021.9 222.376 1012.43C195.261 1010.41 134.959 1006.93 110.918 994.196C73.2938 974.259 86.5786 934.228 84.2736 891.7C79.5644 805.093 136.124 718.613 217.345 688.187C223.367 685.929 230.952 681.059 228.473 675.118L169.98 755.295" fill="#665651"/>
<path d="M533.626 411.743C530.256 342.756 527.635 276.97 524.09 247.773C512.882 237.67 487.594 232.692 472.666 233.172C408.884 235.229 432.4 308.214 442.11 343.455C491.788 523.844 481.727 731.06 433.598 911.868C436.568 908.069 440.638 906.571 451.896 888.455C506.042 779.16 538.045 502.205 533.626 411.743" fill="#937C76"/>
<path d="M438.212 831.007C436.911 796.41 425.258 761.903 403.349 735.08C390.223 718.991 372.731 705.416 352.319 701.653C332.544 698.012 312.377 703.821 293.29 710.198C318.315 697.698 345.989 690.583 373.933 689.484C388.948 688.895 404.576 690.176 417.726 697.423C433.133 705.904 443.364 721.601 449.865 737.941C468.02 783.397 461.396 835.215 446.185 881.729C440.812 898.125 433.329 919.037 418.339 929.025C418.388 916.02 428.521 900.191 431.882 887.148C436.617 868.853 438.923 849.903 438.212 831.007" fill="#514441"/>
<path d="M346.312 214.871C342.252 216.176 338.392 217.745 334.855 219.611C334.208 226.133 332.913 238.053 330.622 253.684C353.485 279.633 414.901 307.213 429.147 311.932C458.361 321.618 489.219 326.529 520.002 326.059C522.816 326.016 525.68 325.865 528.569 325.598C523.638 267.73 518.109 228.437 518.109 228.437L346.312 214.871" fill="#514441"/>
<path d="M472.504 240.665C425.945 242.165 427.115 278.752 434.265 313.563C460.422 321.154 486.504 327.645 513.757 327.227C518.689 327.152 524.468 326.955 529.525 326.084C527.931 295.774 526.536 267.46 524.693 252.264C513.483 242.163 487.45 240.185 472.504 240.665Z" fill="#7A6763"/>
<path d="M306.313 60.3809C285.688 73.9987 267.686 92.7852 259.29 116.009C244.893 155.839 262.064 202.257 293.126 231.048C324.189 259.837 366.573 273.44 408.529 279.312C438.911 283.563 471.234 283.893 498.641 270.109C537.747 250.428 558.347 206.415 568.306 163.769C576.98 126.637 578.795 84.3968 556.279 53.6237C537.067 27.3412 503.331 14.848 470.806 13.6377C416.219 11.5954 351.823 30.2962 306.313 60.3809" fill="#665651"/>
<path d="M535.587 5.26876C550.046 -0.978231 562.615 -3.01868 570.349 10.7096C574.883 18.745 574.505 28.5436 574.026 37.7705C573.019 55.9699 572.036 74.1695 571.054 92.3714C570.953 93.9407 570.853 95.5729 570.072 96.9407C568.56 99.6486 564.983 100.382 561.885 100.412C551.658 100.513 541.884 96.1146 533.219 90.651C516.015 79.7767 489.113 57.5141 482.588 37.36C478.659 25.2942 483.143 16.9567 493.395 16.3521C506.821 15.5209 524.328 10.1051 535.587 5.26876" fill="#665651"/>
<path d="M226.95 102.664C220.617 105.183 214.708 109.844 212.684 116.341C210.283 124.063 213.908 132.538 219.323 138.541C224.737 144.544 231.776 148.781 238.062 153.866C244.653 159.187 250.444 165.496 255.176 172.534C259.06 178.255 262.921 185.011 269.63 186.73C276.293 188.448 283.12 184.329 287.922 179.385C301.835 165.19 306.237 143.908 304.848 124.063C303.93 110.974 292.018 73.8727 279.565 83.0774C261.014 96.7784 233.259 100.121 226.95 102.664" fill="#665651"/>
<path d="M311.77 113.205C307.602 116.821 304.249 121.827 304.057 127.335C303.914 131.311 305.399 135.167 307.458 138.568C312.847 147.478 321.972 153.693 331.816 157.144C340.223 160.097 349.683 161.156 357.97 157.908C366.257 154.656 372.915 146.328 372.268 137.442C371.909 132.509 369.442 127.982 366.496 124.006C353.659 106.69 329.948 97.4454 311.77 113.205" fill="#514441"/>
<path d="M372.285 142.74C372.285 154.632 362.658 164.264 350.781 164.264C338.88 164.264 329.253 154.632 329.253 142.74C329.253 130.863 338.88 121.236 350.781 121.236C362.658 121.236 372.285 130.863 372.285 142.74Z" fill="#231F20"/>
<path d="M350.552 139.581C350.552 143.51 347.384 146.677 343.479 146.677C339.55 146.677 336.383 143.51 336.383 139.581C336.383 135.675 339.55 132.508 343.479 132.508C347.384 132.508 350.552 135.675 350.552 139.581Z" fill="white"/>
<path d="M526.001 54.4473C531.425 55.4245 536.873 58.0013 539.847 62.6473C541.996 65.9837 542.696 70.0724 542.671 74.0411C542.596 84.4578 537.922 94.4695 531.25 102.462C525.526 109.295 517.954 115.038 509.157 116.485C500.384 117.935 490.388 114.183 486.414 106.216C484.215 101.792 484.015 96.6287 484.489 91.7078C486.689 70.2747 502.334 50.1862 526.001 54.4473" fill="#514441"/>
<path d="M489.106 110.773C495.188 120.984 508.375 124.336 518.595 118.262C528.815 112.187 532.155 98.9829 526.073 88.7702C520.016 78.5599 506.804 75.2071 496.584 81.2844C486.389 87.3592 483.023 100.561 489.106 110.773Z" fill="#231F20"/>
<path d="M494.421 96.9402C496.428 100.301 500.765 101.404 504.136 99.4037C507.481 97.4062 508.597 93.0593 506.589 89.6988C504.607 86.3382 500.245 85.2353 496.899 87.2352C493.528 89.2352 492.413 93.5797 494.421 96.9402Z" fill="white"/>
<path d="M448.844 164.255C391.056 184.476 354.397 215.21 358.543 241.009C362.689 266.808 435.98 296.074 495.101 271.345C551.106 247.918 564.473 194.016 556.658 170.521C548.794 147.026 519.322 139.589 448.844 164.255" fill="#937C76"/>
<path d="M422.519 167.859C419.996 170.167 417.671 172.875 416.83 176.174C415.99 179.471 417.053 183.45 419.996 185.129C423.532 187.14 427.316 185.243 431.248 183.346C434.463 181.785 437.728 180.227 441.042 180.833C444.801 181.533 447.398 184.889 450.242 187.476C454.174 191.062 459.491 193.495 464.783 192.823C470.051 192.148 474.997 187.741 475.121 182.414C475.244 177.327 476.852 171.898 480.957 168.888C483.554 166.982 486.818 166.279 489.786 165.04C492.754 163.799 497.749 160.455 498.318 157.282C498.936 153.852 500.099 144.929 478.286 145.918C459.318 146.779 437.035 154.483 422.519 167.859Z" fill="#231F20"/>
<path d="M460.538 184.225C465.378 193.168 466.631 203.867 463.879 213.667C462.626 218.168 460.489 221.875 456.509 224.445C452.652 226.927 448.279 228.315 443.955 229.656C439.852 230.916 441.621 237.356 445.723 236.083C450.735 234.538 455.895 232.879 460.268 229.934C465.329 226.529 468.449 221.804 470.169 215.982C473.583 204.324 472.06 191.517 466.312 180.859C464.272 177.083 458.499 180.446 460.538 184.225Z" fill="#231F20"/>
<path d="M462.555 186.508C465.234 191.644 467.664 197.076 470.889 201.903C473.518 205.854 476.916 209.165 480.983 211.65C488.871 216.501 498.792 217.997 507.696 215.395C511.813 214.197 510.077 207.761 505.935 208.966C498.494 211.139 490.458 209.785 483.935 205.64C475.973 200.578 472.501 191.17 468.309 183.142C466.325 179.337 460.571 182.703 462.555 186.508Z" fill="#231F20"/>
<path d="M225.173 130.433C224.381 129.292 223.613 128.057 223.519 126.683C223.356 124.47 224.94 122.444 226.897 121.442C228.853 120.417 231.113 120.207 233.302 120.044C244.11 119.229 254.918 119.09 265.726 119.602C262.349 124.983 259.577 130.782 257.504 136.792C256.269 140.356 255.803 150.115 251.517 150.977C247.558 151.746 240.15 144.875 237.192 142.615C232.65 139.121 228.458 135.138 225.173 130.433Z" fill="#937C76"/>
<path d="M551.017 15.8135C553.103 15.0094 555.415 14.4566 557.55 15.1099C562.199 16.5171 563.556 22.3717 563.908 27.2212C564.712 37.6012 564.687 48.0315 563.883 58.3989C560.39 50.4412 554.108 43.8353 546.57 39.5109C539.434 35.4102 531.996 34.3322 524.106 32.8748C527.197 29.5581 533.479 27.2715 537.373 24.3819C541.695 21.1908 545.942 17.7734 551.017 15.8135" fill="#937C76"/>
<path d="M428.211 177.88C424.57 177.877 424.668 170.994 429.335 168.072C434.393 164.92 442.652 160.885 448.834 160.885C449.176 160.885 449.494 160.895 449.787 160.919C450.325 160.958 450.887 161.056 451.229 161.474C451.937 162.412 450.691 163.588 449.641 164.128C443.458 167.307 437.667 171.231 432.414 175.791C430.703 177.276 429.286 177.88 428.211 177.88" fill="#979696"/>
<path d="M282.337 278.188C282.241 274.544 313.431 247.056 331.291 233.835C348.839 220.863 396.684 195.2 397.6 202.228C397.865 208.97 380.631 207.712 340.089 233.944C296.727 261.995 283.374 281.538 282.337 278.188Z" fill="#231F20"/>
<path d="M305.086 309.612C304.409 306.031 330.651 273.803 346.116 257.831C361.291 242.156 404.279 208.993 406.333 215.776C407.71 222.383 390.505 223.97 354.815 256.495C316.636 291.279 306.657 312.743 305.086 309.612" fill="#231F20"/>
<path d="M334.143 339.519C332.811 336.126 352.657 299.601 364.894 281.046C376.889 262.833 413.019 222.29 416.291 228.578C418.859 234.818 402.236 239.558 373.182 278.124C342.092 319.367 336.276 342.308 334.143 339.519Z" fill="#231F20"/>
<path d="M662.235 162.668C660.177 159.65 618.825 155.373 596.619 154.985C574.798 154.606 520.941 161.502 524.26 167.75C527.965 173.398 541.269 162.37 589.491 160.183C641.109 157.841 663.316 166.003 662.235 162.668Z" fill="#231F20"/>
<path d="M661.906 201.474C660.388 198.161 620.306 187.16 598.438 183.134C576.982 179.182 522.725 177.147 524.989 183.862C527.716 190.039 542.637 181.338 590.592 187.093C641.865 193.247 662.446 204.94 661.906 201.474" fill="#231F20"/>
<path d="M655.622 242.695C654.749 239.158 617.378 220.934 596.65 212.934C576.282 205.082 523.345 193.051 524.321 200.066C525.863 206.638 542.147 200.852 588.2 215.374C637.437 230.905 655.494 246.201 655.622 242.695Z" fill="#231F20"/>
<path d="M296.076 85.332C298.495 93.4878 304.351 100.079 310.041 106.362C302.17 102.971 294.939 98.0872 288.822 92.0415C293.279 99.8654 298.542 107.239 304.564 113.948C298.874 110.582 293.35 106.907 288.039 102.971C292.236 108.4 296.693 113.64 301.387 118.666C296.551 116.485 291.69 114.28 286.83 112.099C297.025 122.863 303.829 137.183 316.324 145.149C314.878 141.782 314.403 137.728 316.205 134.551C319.43 128.766 327.917 128.6 332.612 123.953C333.015 123.574 333.37 123.147 333.441 122.626C333.513 121.891 333.015 121.251 332.517 120.705C326.732 114.209 320.497 108.021 313.052 103.469C305.868 99.0593 300.676 92.3024 296.076 85.332" fill="#514441"/>
<path d="M513.076 47.5903C512.976 48.8894 513.351 50.2285 514.102 51.2848C519.534 46.0483 524.965 40.8069 530.397 35.5755C529.821 39.4302 529.221 43.2849 528.67 47.1346C534.853 42.1585 540.585 36.5766 545.716 30.4691C547.093 28.8171 548.494 27.0651 549.02 24.9875C548.72 34.9247 547.143 44.8345 544.364 54.3862C545.991 52.9295 547.468 51.3224 548.795 49.5927C547.894 54.5063 546.542 59.3346 544.715 63.9903C546.141 62.7889 547.343 61.3097 548.219 59.6576C546.166 66.9266 543.864 74.123 541.336 81.2318C540.134 84.5959 538.857 87.965 536.955 90.9962C536.805 91.2566 536.605 91.5342 536.304 91.5968C535.829 91.6944 535.453 91.2039 535.253 90.7709C532.725 85.7847 532.725 79.6048 529.321 75.1718C526.617 71.6725 522.237 69.9027 517.932 68.9415C514.202 68.1055 502.413 68.3933 502.863 62.6838C503.088 59.9354 505.942 57.9931 507.569 56.0682C509.747 53.4901 511.624 50.6365 513.076 47.5903" fill="#514441"/>
<path d="M343.635 51.6125C354.47 53.794 364.539 58.948 372.569 66.5473C374.152 68.0096 376.501 65.6604 374.943 64.1742C366.481 56.2153 355.909 50.6777 344.522 48.4004C342.412 47.9689 341.525 51.181 343.635 51.6125Z" fill="#937C76"/>
<path d="M367.694 46.7113C373.461 49.859 378.315 54.4485 381.727 60.0712C382.833 61.8974 385.716 60.2394 384.587 58.3892C380.91 52.3099 375.624 47.2398 369.376 43.8517C367.478 42.8185 365.82 45.702 367.694 46.7113Z" fill="#937C76"/>
<path d="M385.233 72.6618C388.197 76.4936 391.186 80.3014 394.174 84.1091C394.728 84.8321 395.957 84.7116 396.536 84.1091C397.235 83.4102 397.09 82.4705 396.536 81.7716C393.547 77.9398 390.559 74.1321 387.571 70.3243C387.041 69.6013 385.812 69.7218 385.233 70.3243C384.534 71.0232 384.679 71.9629 385.233 72.6618" fill="#937C76"/>
<path d="M401.731 78.2173C406.699 83.476 411.133 89.1707 415.011 95.2775C416.15 97.095 419.033 95.423 417.87 93.6055C413.872 87.2564 409.243 81.3192 404.081 75.8667C402.627 74.2915 400.252 76.6664 401.731 78.2173" fill="#937C76"/>
<path d="M426.459 84.6157C429.308 90.8252 432.157 97.0105 434.982 103.22C435.372 104.024 436.541 104.243 437.271 103.804C438.124 103.317 438.245 102.343 437.88 101.54C435.031 95.3302 432.182 89.1452 429.333 82.9356C428.968 82.1077 427.774 81.9128 427.068 82.3268C426.216 82.8382 426.094 83.7877 426.459 84.6157Z" fill="#937C76"/>
<path d="M418.148 67.3251C415.095 60.6376 412.696 53.6593 410.952 46.5114C410.443 44.4276 407.22 45.2998 407.729 47.3836C409.546 54.8222 412.09 62.0428 415.265 68.9969C415.628 69.8207 416.815 70.0145 417.542 69.6026C418.366 69.118 418.512 68.149 418.148 67.3251" fill="#937C76"/>
<path d="M437.115 59.9991C437.115 53.7426 437.115 47.4863 437.115 41.2298C437.115 39.0875 433.78 39.0875 433.78 41.2298C433.78 47.4863 433.78 53.7426 433.78 59.9991C433.78 62.1414 437.115 62.1658 437.115 59.9991Z" fill="#937C76"/>
<path d="M458.155 44.9265C459.478 38.6544 460.801 32.4067 462.124 26.1346C462.565 24.0521 459.356 23.1454 458.915 25.2524C457.567 31.5245 456.269 37.7722 454.946 44.0443C454.505 46.1268 457.714 47.0335 458.155 44.9265Z" fill="#937C76"/>
<path d="M455.097 88.1009C453.165 82.4753 452.309 76.5807 452.578 70.6127C452.675 68.4848 449.349 68.4848 449.251 70.6127C448.958 76.8498 449.863 83.1114 451.893 88.9815C452.602 91.0116 455.806 90.131 455.097 88.1009Z" fill="#937C76"/>
<path d="M454.113 123.24C453.551 119.827 452.598 116.492 451.277 113.291C450.959 112.487 450.153 111.827 449.223 112.127C448.466 112.377 447.708 113.313 448.05 114.176C449.37 117.379 450.348 120.714 450.911 124.125C451.057 124.985 452.157 125.545 452.964 125.289C453.893 124.988 454.285 124.162 454.113 123.24" fill="#937C76"/>
<path d="M433.798 126.832C429.175 117.706 423.531 109.171 416.913 101.361C415.551 99.7309 413.191 102.091 414.577 103.721C420.976 111.312 426.45 119.647 430.903 128.513C431.876 130.43 434.747 128.744 433.798 126.832Z" fill="#937C76"/>
<path d="M430.952 144.48C426.696 140.412 423.584 135.301 421.955 129.643C421.371 127.585 418.137 128.458 418.745 130.528C420.545 136.718 423.949 142.384 428.593 146.839C430.149 148.322 432.508 145.968 430.952 144.48" fill="#937C76"/>
<path d="M446.108 144.429C444.985 140.627 443.887 136.825 442.765 133.021C442.521 132.157 441.594 131.616 440.715 131.857C439.861 132.094 439.3 133.041 439.544 133.909C440.666 137.711 441.789 141.513 442.887 145.314C443.131 146.178 444.058 146.72 444.936 146.478C445.79 146.242 446.352 145.295 446.108 144.429Z" fill="#937C76"/>
<path d="M471.095 134.307C470.604 129.134 470.088 123.963 469.573 118.79C469.499 117.893 468.885 117.125 467.903 117.125C467.068 117.125 466.16 117.889 466.258 118.79C466.749 123.963 467.264 129.134 467.755 134.307C467.854 135.204 468.467 135.975 469.425 135.975C470.284 135.975 471.193 135.209 471.095 134.307" fill="#937C76"/>
<path d="M468.129 87.7606C468.129 83.1481 468.129 78.5111 468.129 73.8986C468.129 71.7396 464.792 71.7396 464.792 73.8986C464.792 78.5111 464.792 83.1481 464.792 87.7606C464.792 89.9196 468.129 89.9196 468.129 87.7606Z" fill="#937C76"/>
<path d="M401.178 36.3512C400.768 33.0944 399.707 29.9824 397.849 27.2322C397.367 26.5084 396.378 26.1465 395.582 26.6531C394.858 27.1115 394.448 28.1489 394.978 28.9209C395.389 29.524 395.751 30.1269 396.088 30.7783C396.257 31.116 396.426 31.454 396.571 31.8158C396.619 31.8882 396.788 32.2742 396.643 31.9365C396.715 32.1053 396.788 32.2981 396.836 32.467C397.101 33.1425 397.319 33.8421 397.487 34.5176C397.56 34.8553 397.656 35.1691 397.704 35.5068C397.729 35.6998 397.777 35.8927 397.801 36.0857L397.849 36.3512C397.825 36.1582 397.825 36.1582 397.849 36.3512C397.946 37.1956 398.549 38.0639 399.514 38.0157C400.334 37.9674 401.299 37.2679 401.178 36.3512" fill="#937C76"/>
<path d="M1.27489 936.508C-1.75703 967.564 1.3952 1000.56 19.322 1026.11C32.5084 1044.92 51.975 1058.45 72.4284 1068.91C138.866 1102.85 215.939 1107.13 288.079 1126.01C304.899 1130.4 324.438 1138.85 326.82 1156.06C328.288 1166.67 322.08 1177.16 313.658 1183.77C305.212 1190.37 294.817 1193.83 284.638 1197.16C271.283 1201.54 257.953 1205.92 244.574 1210.3C242.408 1211.01 240.098 1211.81 238.63 1213.58C235.791 1217.01 237.644 1222.62 241.325 1225.16C244.983 1227.69 249.723 1227.94 254.175 1227.89C292.098 1227.44 334.352 1211.57 363.059 1186.79C380.264 1171.91 391.236 1135.9 354.18 1106.47C321.478 1080.48 251.576 1049.97 158.694 1034.12C94.494 1023.16 121.444 971.926 126.618 960.525C134.727 942.56 121.252 919.722 112.878 901.875C102.724 880.271 59.7956 793.397 33.3987 802.657C29.5727 804.009 6.03932 887.711 1.27489 936.508" fill="#665651"/>
<path d="M385.471 503.42C386.886 512.021 389.363 520.661 394.468 527.713C406.372 544.117 428.991 547.896 449.234 548.702C469.478 549.505 491.364 549.152 507.817 560.954C521.186 570.535 528.415 586.502 533.014 602.293C536.578 614.548 541.228 629.522 553.738 632.069C565.338 634.43 575.624 623.765 580.325 612.9C586.012 599.74 587.402 585.143 587.907 570.808C588.488 554.33 587.958 537.453 582.221 522.001C574.437 501.098 556.872 484.076 535.718 476.964C523.183 472.746 509.814 471.907 496.798 469.539C483.783 467.169 470.464 462.89 461.264 453.387C452.52 444.34 447.87 430.975 436.724 425.087C426.261 419.549 412.639 422.802 403.87 430.75C385.496 447.38 381.73 480.586 385.471 503.42" fill="#665651"/>
<path d="M408.86 532.807C427.952 544.299 451.097 547.967 473.26 545.812C473.505 553.999 473.751 562.186 473.997 570.375C446.33 576.882 415.568 568.171 395.395 548.124C375.321 528.124 366.378 497.553 372.668 469.894C376.329 496.735 383.946 517.824 408.86 532.807Z" fill="#514441"/>
<path d="M658.477 365.114C654.907 368.334 652.76 373.112 652.786 377.923C652.786 381.265 653.873 384.734 656.33 386.979C657.572 388.099 659.098 388.865 660.676 389.454C668.125 392.266 677.696 390.58 682.119 383.955C684.68 380.145 685.223 375.083 683.619 370.794C679.455 359.765 666.987 357.452 658.477 365.114" fill="#838B91"/>
<path d="M629.507 378.056C634.522 365.702 639 353.224 640.126 339.933C636.953 341.456 631.042 343.938 629.737 346.525C628.304 349.265 629.814 353.106 630.146 356.326C630.76 362.541 631.912 372.122 629.507 378.056Z" fill="#838B91"/>
<path d="M687.223 423.856C680.623 429.713 671.437 431.646 662.638 432.326C653.813 433.01 644.781 432.632 636.371 429.868C629.073 427.464 621.31 422.902 617.35 416.22C641.469 423.517 661.421 430.947 687.223 423.856Z" fill="#838B91"/>
<path d="M687.222 442.737C678.993 448.809 667.373 451.042 656.22 452.01C645.04 452.98 633.576 452.897 622.81 450.41C613.468 448.247 603.505 443.938 598.277 437.388C629.125 443.897 654.615 450.672 687.222 442.737" fill="#838B91"/>
<path d="M585.866 484.869C590.018 485.236 594.069 482.537 595.942 478.833C595.157 483.702 593.031 488.345 589.841 492.112C588.879 493.262 587.739 494.371 586.321 494.814C583.84 495.581 581.182 494.146 579.46 492.214C575.384 487.654 575.333 480.111 579.308 475.491C576.118 479.499 582.068 484.535 585.866 484.869" fill="#838B91"/>
<path d="M598.014 508.598C602.128 508.964 606.19 506.267 608.07 502.562C607.282 507.43 605.175 512.072 601.975 515.841C601.01 516.991 599.893 518.098 598.445 518.545C595.957 519.309 593.291 517.874 591.564 515.942C587.501 511.381 587.476 503.842 591.437 499.221C588.263 503.23 594.205 508.263 598.014 508.598" fill="#838B91"/>
<path d="M628.855 491.293C632.974 491.658 637.042 488.962 638.909 485.255C638.142 490.124 635.993 494.767 632.821 498.532C631.848 499.684 630.723 500.791 629.29 501.236C626.809 502.004 624.148 500.569 622.409 498.635C618.341 494.076 618.315 486.534 622.281 481.914C619.108 485.923 625.044 490.958 628.855 491.293" fill="#838B91"/>
<path d="M628.855 550.395C632.974 550.761 637.042 548.062 638.909 544.361C638.142 549.226 635.993 553.869 632.821 557.638C631.848 558.789 630.723 559.897 629.29 560.342C626.809 561.107 624.148 559.671 622.409 557.74C618.341 553.179 618.315 545.64 622.281 541.017C619.108 545.026 625.044 550.06 628.855 550.395" fill="#838B91"/>
<path d="M658.567 533.017C662.715 533.382 666.76 530.685 668.641 526.98C667.842 531.85 665.73 536.492 662.56 540.259C661.581 541.408 660.448 542.516 659.005 542.962C656.557 543.727 653.878 542.295 652.151 540.362C648.081 535.802 648.055 528.261 652.023 523.638C648.854 527.647 654.78 532.682 658.567 533.017" fill="#838B91"/>
<path d="M529.282 629.146C533.427 629.511 537.498 626.814 539.371 623.108C538.572 627.975 536.449 632.62 533.278 636.388C532.304 637.537 531.18 638.643 529.732 639.09C527.26 639.856 524.588 638.421 522.865 636.488C518.819 631.93 518.769 624.387 522.74 619.764C519.568 623.775 525.486 628.809 529.282 629.146" fill="#838B91"/>
<path d="M537.896 668.026C542.025 668.392 546.079 665.694 547.955 661.991C547.18 666.858 545.028 671.502 541.849 675.268C540.899 676.417 539.773 677.526 538.321 677.971C535.844 678.737 533.191 677.303 531.464 675.369C527.385 670.812 527.36 663.269 531.339 658.647C528.136 662.656 534.067 667.691 537.896 668.026" fill="#838B91"/>
<path d="M607.796 619.378C611.919 619.745 615.966 617.047 617.85 613.341C617.061 618.21 614.948 622.852 611.767 626.62C610.774 627.77 609.654 628.877 608.229 629.323C605.76 630.089 603.087 628.656 601.356 626.721C597.284 622.163 597.259 614.621 601.229 609.999C598.048 614.008 603.978 619.042 607.796 619.378Z" fill="#838B91"/>
<path d="M678.153 475.104C682.294 475.469 686.332 472.772 688.222 469.068C687.445 473.935 685.323 478.578 682.139 482.344C681.155 483.496 680.042 484.604 678.593 485.049C676.134 485.816 673.442 484.379 671.733 482.445C667.669 477.887 667.618 470.347 671.604 465.724C668.42 469.733 674.348 474.768 678.153 475.104" fill="#838B91"/>
<path d="M670.236 365.396C669.254 365.301 666.335 364.456 664.527 366.323C663.829 367.044 663.932 368.351 664.294 369.286C664.449 369.684 664.759 369.997 665.095 370.26C667.11 371.875 670.081 372.438 671.243 374.73C672.199 376.636 671.682 379.413 673.491 380.557C674.757 381.363 676.513 380.769 677.547 379.702C679.768 377.434 679.561 373.554 677.831 370.896C676.1 368.24 673.181 366.597 670.236 365.396" fill="white"/>
<path d="M59.323 744.707C64.1413 723.209 74.715 703.149 89.7276 687.028C93.9436 682.497 98.4941 678.297 103.357 674.444C105.03 673.11 102.666 670.764 100.993 672.089C83.437 686.051 69.8519 704.704 61.6653 725.576C59.3454 731.505 57.494 737.609 56.111 743.821C55.6425 745.911 58.8546 746.801 59.323 744.707" fill="#937C76"/>
<path d="M94.4545 711.398C102.677 697.24 114.651 685.536 128.984 677.65C130.871 676.617 129.186 673.737 127.321 674.773C112.494 682.923 100.048 695.088 91.5787 709.717C90.5004 711.578 93.3761 713.256 94.4545 711.398" fill="#937C76"/>
<path d="M117.743 654.169C127.199 646.058 136.633 637.949 146.089 629.838C147.714 628.438 145.345 626.089 143.72 627.479C134.286 635.59 124.83 643.702 115.373 651.813C113.748 653.212 116.118 655.559 117.743 654.169Z" fill="#937C76"/>
<path d="M166.158 633.2C173.365 626.36 179.705 618.645 185.064 610.274C186.204 608.461 183.331 606.785 182.168 608.591C176.968 616.732 170.811 624.192 163.81 630.842C162.259 632.322 164.608 634.677 166.158 633.2" fill="#937C76"/>
<path d="M221.374 550.894C236.903 535.505 250.755 518.433 262.628 500.051C263.792 498.242 260.905 496.568 259.741 498.367C248.031 516.519 234.365 533.342 219 548.535C217.486 550.046 219.838 552.405 221.374 550.894" fill="#937C76"/>
<path d="M269.224 530.651C274.323 524.705 278.346 517.985 281.199 510.688C281.527 509.848 280.825 508.856 280.03 508.636C279.094 508.377 278.322 508.959 277.971 509.801C275.352 516.533 271.563 522.815 266.861 528.293C265.458 529.914 267.797 532.281 269.224 530.651" fill="#937C76"/>
<path d="M302.681 516.044C308.514 507.531 313.402 498.428 317.322 488.878C318.125 486.895 314.89 486.03 314.087 487.993C310.309 497.264 305.468 506.1 299.801 514.36C298.596 516.136 301.477 517.803 302.681 516.044" fill="#937C76"/>
<path d="M286.318 482.887C299.767 462.898 309.322 440.392 314.395 416.85C314.843 414.757 311.634 413.865 311.186 415.963C306.161 439.255 296.747 461.429 283.463 481.205C282.26 482.991 285.138 484.662 286.318 482.887Z" fill="#937C76"/>
<path d="M115.334 850.452C109.96 825.276 111.013 798.936 118.335 774.255C118.939 772.193 115.715 771.311 115.111 773.369C107.609 798.627 106.624 825.583 112.132 851.338C112.58 853.434 115.782 852.55 115.334 850.452Z" fill="#937C76"/>
<path d="M41.1389 836.705C40.2832 824.708 41.4679 812.703 44.6712 801.116C45.2636 799.045 42.0604 798.161 41.468 800.23C38.177 812.08 36.9263 824.434 37.8039 836.705C37.9795 838.831 41.3144 838.849 41.1389 836.705Z" fill="#937C76"/>
<path d="M64.1217 855.997C62.6653 844.154 63.1066 832.156 65.5119 820.467C65.9532 818.373 62.7315 817.477 62.2902 819.58C59.8186 831.56 59.2888 843.854 60.7894 855.997C61.0542 858.098 64.3865 858.125 64.1217 855.997" fill="#937C76"/>
<path d="M130.154 958.625C124.245 940.482 122.089 921.31 123.841 902.307C124.043 900.17 120.718 900.186 120.516 902.307C118.741 921.573 120.943 941.12 126.941 959.512C127.615 961.543 130.828 960.673 130.154 958.625" fill="#937C76"/>
<path d="M180.759 934.77C182.9 934.77 182.9 931.436 180.759 931.436C178.617 931.436 178.617 934.77 180.759 934.77Z" fill="#937C76"/>
<path d="M181.954 932.749C176.575 909.33 175.618 884.879 179.287 861.118C180.358 854.333 181.771 847.614 183.526 840.981C184.096 838.905 180.883 838.021 180.313 840.095C173.999 863.86 172.199 888.81 175.185 913.232C176.005 920.092 177.213 926.903 178.74 933.638C179.219 935.725 182.455 934.841 181.954 932.749Z" fill="#937C76"/>
<path d="M155.057 849.541C155.828 835.152 159.117 821.009 164.718 807.736C165.557 805.763 162.337 804.899 161.498 806.849C155.783 820.397 152.495 834.857 151.724 849.541C151.61 851.686 154.944 851.679 155.057 849.541Z" fill="#937C76"/>
<path d="M147.429 743.255C151.718 730.549 158.254 718.639 166.696 708.221C168.035 706.569 165.697 704.195 164.336 705.863C155.508 716.751 148.7 729.085 144.229 742.37C143.548 744.408 146.748 745.284 147.429 743.255" fill="#937C76"/>
<path d="M362.631 379.707C365.693 361.272 367.295 342.626 367.415 323.943C367.438 321.797 364.114 321.795 364.09 323.943C363.97 342.325 362.416 360.681 359.426 378.82C359.067 380.917 362.296 381.821 362.631 379.707Z" fill="#937C76"/>
<path d="M333.668 391.15C335.234 383.063 336.801 374.977 338.368 366.891C338.772 364.795 335.567 363.897 335.14 366.005C333.596 374.089 332.029 382.178 330.463 390.264C330.059 392.36 333.288 393.255 333.668 391.15" fill="#937C76"/>
<path d="M22.8834 875.617C16.6193 899.049 16.4228 923.901 22.294 947.436C22.8179 949.514 26.0482 948.634 25.5025 946.55C19.7841 923.589 20.0024 899.366 26.0919 876.503C26.6594 874.427 23.4509 873.543 22.8834 875.617" fill="#937C76"/>
<path d="M15.6273 964.622C19.779 984.363 30.4331 1002.55 45.6342 1015.82C47.2598 1017.22 49.6102 1014.88 48.0066 1013.46C33.1789 1000.53 22.8985 982.973 18.8346 963.737C18.3733 961.639 15.166 962.526 15.6273 964.622" fill="#937C76"/>
<path d="M35.6939 969.301C39.0187 980.2 45.3822 990.054 54.0355 997.481C55.6428 998.87 58.0207 996.525 56.3913 995.122C48.1784 988.059 42.0574 978.796 38.9087 968.414C38.2922 966.366 35.0774 967.24 35.6939 969.301" fill="#937C76"/>
<path d="M65.8737 1038.42C78.7133 1045.49 92.0888 1051.53 105.844 1056.51C107.876 1057.24 108.747 1054.02 106.737 1053.29C93.2276 1048.41 80.1423 1042.47 67.5706 1035.54C65.6726 1034.51 63.998 1037.38 65.8737 1038.42Z" fill="#937C76"/>
<path d="M314.519 1100.54C332.723 1107.41 347.491 1122.5 354.004 1140.81C354.72 1142.82 357.941 1141.95 357.202 1139.92C350.283 1120.43 334.774 1104.64 315.401 1097.33C313.397 1096.57 312.538 1099.79 314.519 1100.54" fill="#937C76"/>
<path d="M342.12 1182.06C349.368 1174.67 353.946 1165.1 355.257 1154.84C355.376 1153.95 354.399 1153.19 353.588 1153.18C352.61 1153.17 352.038 1153.95 351.919 1154.84C350.703 1164.19 346.34 1172.99 339.759 1179.7C338.233 1181.23 340.594 1183.59 342.12 1182.06Z" fill="#937C76"/>
<path d="M363.944 1170.5C366.623 1162.27 367.699 1153.57 367.077 1144.94C366.934 1142.81 363.585 1142.79 363.729 1144.94C364.351 1153.3 363.322 1161.64 360.715 1169.61C360.069 1171.66 363.274 1172.53 363.944 1170.5Z" fill="#937C76"/>
<path d="M277.139 1078.11C283.387 1078.11 289.448 1080.63 293.864 1085.05C295.39 1086.57 297.739 1084.21 296.213 1082.69C291.186 1077.66 284.256 1074.78 277.139 1074.78C275.002 1074.78 275.002 1078.11 277.139 1078.11" fill="#937C76"/>
<path d="M97.5627 1069.76C117.123 1075.44 136.706 1081.13 156.29 1086.81C158.35 1087.41 159.233 1084.2 157.173 1083.6C137.589 1077.91 118.029 1072.23 98.4457 1066.55C96.3855 1065.95 95.5025 1069.16 97.5627 1069.76Z" fill="#937C76"/>
<path d="M76.6265 1021.95C72.3979 1019.2 68.7007 1015.47 65.9997 1011.21C65.5126 1010.45 64.5164 1010.15 63.7194 1010.61C62.9666 1011.06 62.6345 1012.13 63.1216 1012.89C66.1546 1017.67 70.1839 1021.74 74.9217 1024.82C75.6966 1025.31 76.7594 1024.98 77.2243 1024.23C77.6892 1023.42 77.3792 1022.44 76.6265 1021.95" fill="#937C76"/>
<path d="M118.405 1029.37C129.598 1040.6 144.462 1047.62 160.232 1049.3C162.362 1049.53 162.34 1046.19 160.232 1045.97C145.368 1044.39 131.32 1037.58 120.761 1027.01C119.243 1025.49 116.886 1027.85 118.405 1029.37" fill="#937C76"/>
</svg>
