<svg width="1258" height="734" viewBox="0 0 1258 734" fill="none" xmlns="http://www.w3.org/2000/svg">
<path d="M168.166 579.719C151.22 584.426 96.3532 584.973 78.8663 583.201C54.6214 580.72 30.1157 580.72 5.87076 583.175C12.2077 573.266 23.4378 566.68 35.1692 565.987C23.7386 563.053 11.6462 562.694 0.0551758 564.946C9.32 555.414 21.9338 549.2 35.1492 547.668C26.6464 544.667 17.2412 544.266 8.53787 546.52C21.633 536.694 38.458 533.307 54.7617 531.867C71.0855 530.413 87.67 530.588 103.573 526.679C119.716 522.721 169.589 501.053 173.68 531.841C176.708 554.626 187.758 574.293 168.166 579.719" fill="#3F3532"/>
<path d="M194.102 403.613C183.425 427.974 184.598 455.307 186.817 481.56C187.445 488.933 187.947 496.987 183.383 503C179.594 507.999 173.02 510.466 166.635 511.732C150.975 514.839 134.771 512.279 118.756 512.134C102.74 512 85.301 515.013 74.7914 526.372C73.598 527.666 72.4674 529.186 72.4046 530.892C72.3 533.587 74.7285 535.68 76.9477 537.347C98.888 553.706 122.943 568.254 149.803 575.747C199.755 589.667 253.245 577.92 303.846 566.133C308.285 565.092 312.89 563.987 316.407 561.213C320.218 558.2 322.207 553.614 323.714 549.133C329.053 533.187 330.204 516.294 330.539 499.573C331.481 455.64 327.147 400.854 291.264 368.307C258.793 338.841 208.527 370.786 194.102 403.613Z" fill="#514441"/>
<path d="M173.931 364.946C190.739 427.986 218.118 487.507 268.621 527.613C319.691 568.173 385.353 584.2 449.571 592.225C538.589 603.347 628.664 601.145 718.25 596.52C799.199 592.334 880.071 586.159 960.736 578.039C980.974 575.999 1001.73 573.666 1019.77 564.079C1044.62 550.841 1061.1 525.398 1072.39 499.185C1093.17 450.972 1121.14 396.973 1112.76 344.998C1101.06 272.265 1065.4 82.6243 806.031 161.704C708.376 191.465 592.985 272.718 481.796 259.052C449.158 255.038 412.164 232.919 383.264 216.892C358.335 203.053 339.799 179.678 316.211 163.545C275.891 135.932 198.757 125.625 161.273 165.945C143.304 185.252 157.328 224.984 159.494 249.558C162.82 287.8 164.005 327.851 173.931 364.946Z" fill="#665651"/>
<path d="M801.928 583.507C759.471 566.6 713.206 568.373 666.989 570.133C650.178 570.786 633.392 571.426 616.773 571.174C571.082 570.48 524.482 562.333 485.066 539.239C409.921 495.213 374.241 405.76 357.933 320.201C347.54 265.72 338.871 203.399 293.205 171.959C272.563 157.759 246.94 152.321 221.916 151.947C209.344 151.746 196.628 152.826 184.296 155.386C175.651 159.534 167.868 164.96 161.403 171.88C143.443 191.201 154.315 230.734 156.47 255.306C159.822 293.546 165.019 331.72 174.909 368.813C191.743 431.841 223.329 492.72 273.832 532.826C324.887 573.387 390.548 589.414 454.773 597.427C543.807 608.56 633.87 606.359 723.455 601.733C756.43 600.028 789.38 597.973 822.307 595.614C816.655 590.293 809.208 586.414 801.928 583.507" fill="#937C76"/>
<path d="M753.357 477.026C744.975 390.759 776.71 301.426 837.623 239.785C800.112 291.945 803.553 369.746 845.588 418.372C860.632 435.8 879.633 449.372 895.759 465.812C911.885 482.252 925.601 503.119 925.749 526.145C925.822 536.093 923.143 546.332 916.727 553.932C909.181 562.853 897.553 567.079 886.295 570.279C859.919 577.799 816.311 591.638 792.737 570.68C767.909 548.625 756.43 508.611 753.357 477.026" fill="#514441"/>
<path d="M257.325 325.357C277.273 320.039 294.681 307.318 308.456 291.918C321.999 276.732 332.31 258.957 341.717 240.905C332.541 210.797 318.577 183.583 293.043 166.01C272.423 151.811 246.805 146.37 221.775 145.997C209.176 145.797 196.493 146.878 184.146 149.451C175.495 153.583 167.725 159.011 161.279 165.943C143.325 185.251 154.181 224.784 156.323 249.358C157.667 264.677 159.326 279.997 161.447 295.225C186.246 320.305 223.371 334.424 257.325 325.357" fill="#7A6763"/>
<path d="M172.997 11.0243C149.325 18.0656 126.622 30.7989 111.838 50.5842C86.4659 84.506 89.4141 133.905 110.762 170.493C132.131 207.066 168.715 232.412 207.149 250.226C234.974 263.119 265.812 272.839 296.026 267.625C339.195 260.16 371.69 224.039 393.619 186.131C412.707 153.133 426.738 113.239 414.127 77.2516C403.389 46.5191 374.746 24.7582 343.973 14.1317C292.368 -3.69533 225.312 -4.52168 172.997 11.0243" fill="#665651"/>
<path d="M408.407 24.9578C424.077 23.1984 436.678 24.9037 440.093 40.2779C442.104 49.2909 438.905 58.5569 435.749 67.2242C429.502 84.3577 423.256 101.478 417.031 118.61C416.491 120.09 415.907 121.61 414.762 122.703C412.514 124.852 408.904 124.517 405.921 123.637C396.109 120.758 388.047 113.718 381.346 105.972C368.032 90.5567 348.774 61.4381 348.363 40.2498C348.147 27.5839 354.847 20.9051 364.855 23.2913C377.909 26.4103 396.26 26.3173 408.407 24.9578" fill="#665651"/>
<path d="M84.7718 28.4015C77.98 28.9893 70.9699 31.7219 67.1371 37.3479C62.5894 44.0424 63.6022 53.2013 67.0378 60.5213C70.4734 67.8413 75.9744 73.936 80.5221 80.6285C85.2684 87.6426 88.9621 95.3619 91.4643 103.468C93.4899 110.081 95.2374 117.669 101.155 121.256C107.054 124.842 114.759 122.868 120.816 119.562C138.232 110.016 148.638 90.9213 153.067 71.5489C156.006 58.7617 155.41 19.7886 140.814 24.9619C119.068 32.681 91.5437 27.8157 84.7718 28.4015" fill="#665651"/>
<path d="M162.869 63.1591C157.835 65.4136 153.164 69.2129 151.364 74.4396C150.091 78.1863 150.394 82.3192 151.364 86.173C153.912 96.2666 160.868 104.866 169.259 111.027C176.457 116.294 185.191 120.053 194.068 119.359C202.944 118.668 211.74 112.64 213.701 103.946C214.773 99.1195 213.742 94.0525 212.084 89.4C204.825 69.1078 184.848 53.3466 162.869 63.1591" fill="#514441"/>
<path d="M212.206 109.01C208.747 120.383 196.734 126.798 185.367 123.344C174.001 119.892 167.589 107.878 171.028 96.5034C174.486 85.131 186.5 78.7176 197.886 82.17C209.253 85.6366 215.664 97.6502 212.206 109.01" fill="#231F20"/>
<path d="M192.286 99.6822C191.161 103.417 187.183 105.536 183.467 104.389C179.71 103.256 177.601 99.3086 178.746 95.5621C179.871 91.8156 183.829 89.7083 187.585 90.8433C191.301 91.9883 193.431 95.9357 192.286 99.6822" fill="white"/>
<path d="M384.928 69.2293C389.836 71.7492 394.295 75.7883 395.81 81.1097C396.898 84.9226 396.365 89.0427 395.191 92.8279C392.097 102.775 384.715 110.988 375.988 116.695C368.542 121.575 359.623 124.869 350.768 123.696C341.956 122.522 333.507 116.029 332.013 107.256C331.181 102.376 332.482 97.3747 334.381 92.8151C342.703 72.9484 363.527 58.2686 384.928 69.2293Z" fill="#514441"/>
<path d="M333.234 112.401C336.077 123.934 347.748 130.987 359.271 128.135C370.815 125.294 377.859 113.642 375.016 102.094C372.172 90.5612 360.523 83.5205 348.958 86.3618C337.435 89.201 330.39 100.868 333.234 112.401" fill="#231F20"/>
<path d="M342.359 100.707C343.287 104.507 347.126 106.827 350.922 105.893C354.719 104.961 357.039 101.12 356.111 97.3191C355.183 93.5204 351.323 91.2002 347.527 92.1473C343.73 93.0795 341.41 96.9205 342.359 100.707Z" fill="white"/>
<path d="M279.168 151.867C218.017 154.399 173.986 173.146 170.46 199.04C166.913 224.934 228.531 274.239 292.294 267.773C352.701 261.652 381.164 213.959 380.505 189.199C379.825 164.439 353.785 148.76 279.168 151.867" fill="#937C76"/>
<path d="M252.941 147.654C249.882 149.121 246.844 151.04 245.084 153.948C243.325 156.868 243.178 160.975 245.525 163.44C248.29 166.373 252.417 165.695 256.67 165.026C260.231 164.454 263.898 163.895 266.894 165.454C270.308 167.213 271.796 171.175 273.765 174.481C276.489 179.054 280.867 182.934 286.126 183.827C291.384 184.721 297.376 181.935 299.052 176.867C300.644 172.04 303.765 167.32 308.563 165.627C311.601 164.561 314.932 164.84 318.137 164.521C321.342 164.186 327.083 162.441 328.549 159.575C330.121 156.468 333.85 148.268 312.69 142.88C294.296 138.187 270.727 139.067 252.941 147.654Z" fill="#231F20"/>
<path d="M284.583 174.479C286.55 184.174 284.708 194.494 279.553 202.919C277.131 206.933 274.067 210.092 269.492 211.519C264.938 212.96 260.114 212.987 255.394 213.013C251.109 213.04 251.088 219.706 255.394 219.679C260.839 219.652 266.532 219.547 271.748 217.8C277.607 215.827 281.789 211.933 285.018 206.76C291.353 196.68 293.361 184.319 291.022 172.72C290.649 170.946 288.558 169.933 286.902 170.387C285.08 170.894 284.231 172.72 284.583 174.479Z" fill="#231F20"/>
<path d="M285.846 177.255C286.932 182.949 287.664 188.841 289.335 194.402C290.714 198.961 293.076 203.082 296.21 206.642C302.374 213.576 311.422 217.803 320.721 217.909C324.984 217.949 325.004 211.281 320.721 211.242C312.948 211.148 305.655 207.428 300.619 201.575C298.049 198.562 296.335 194.989 295.353 191.175C294.037 186.029 293.264 180.709 292.282 175.483C291.947 173.709 289.795 172.71 288.186 173.149C286.326 173.669 285.511 175.483 285.846 177.255" fill="#231F20"/>
<path d="M75.005 54.4527C74.5734 53.1461 74.2202 51.7315 74.5145 50.3856C74.9854 48.2393 77.1043 46.7581 79.2624 46.346C81.4402 45.9458 83.6767 46.399 85.8152 46.8914C96.3704 49.2516 106.769 52.2652 116.951 55.8791C112.144 60.0658 107.828 64.798 104.081 69.9462C101.864 72.9989 98.6071 82.2121 94.2319 81.7726C90.2296 81.3587 85.1285 72.6398 82.9704 69.6126C79.6351 64.9451 76.7707 59.9187 75.005 54.4527Z" fill="#937C76"/>
<path d="M420.093 39.5316C422.334 39.3722 424.704 39.5316 426.556 40.7725C430.606 43.4655 430.175 49.4654 429.12 54.2114C426.858 64.3714 423.82 74.3439 420.029 84.0256C419.016 75.3974 414.901 67.2517 408.955 60.9179C403.311 54.918 396.503 51.7318 389.415 48.0392C393.293 45.7728 399.993 45.3979 404.539 43.7714C409.623 41.9725 414.664 39.9323 420.093 39.5316Z" fill="#937C76"/>
<path d="M256.543 159.041C251.652 159.041 253.612 151.399 259.411 149.839C263.27 148.799 268.635 147.8 273.526 147.8C276.291 147.8 278.933 148.12 281.058 148.946C281.554 149.133 282.069 149.4 282.255 149.893C282.668 150.999 281.141 151.76 279.965 151.973C273.134 153.213 266.448 155.279 260.113 158.12C258.648 158.773 257.471 159.041 256.543 159.041" fill="#979696"/>
<path d="M86.7217 212.455C87.6938 208.935 125.527 191.708 146.469 184.255C167.026 176.935 220.271 166.308 219.097 173.296C217.395 179.829 201.274 173.601 154.854 186.908C105.213 201.148 86.7419 215.961 86.7217 212.455" fill="#231F20"/>
<path d="M99.3789 249.133C99.7641 245.506 134.249 222.305 153.691 211.518C172.768 200.931 223.553 181.706 223.533 188.785C222.945 195.506 205.996 192.025 162.388 212.758C115.76 234.946 99.9871 252.585 99.3789 249.133Z" fill="#231F20"/>
<path d="M118.489 286.199C118.184 282.559 147.78 253.386 164.884 239.188C181.682 225.253 228.036 196.973 229.336 203.933C229.986 210.654 212.7 210.36 173.679 238.8C131.936 269.226 119.708 289.48 118.489 286.199" fill="#231F20"/>
<path d="M483.788 212.384C482.716 208.904 444.399 192.786 423.25 185.958C402.495 179.252 348.935 170.185 350.335 177.131C352.215 183.611 368.159 176.932 414.94 188.864C465.001 201.626 483.875 215.892 483.788 212.384Z" fill="#231F20"/>
<path d="M472.226 249.427C471.724 245.813 436.585 223.626 416.835 213.426C397.456 203.401 346.141 185.68 346.337 192.761C347.165 199.466 363.972 195.479 408.181 214.932C455.441 235.72 471.724 252.893 472.226 249.427Z" fill="#231F20"/>
<path d="M454.209 287.041C454.405 283.402 423.952 255.095 406.427 241.415C389.249 227.989 342.096 201.068 340.99 208.069C340.534 214.802 357.799 214.002 397.643 241.296C440.263 270.468 453.082 290.362 454.209 287.041" fill="#231F20"/>
<path d="M155.975 31.9215C155.895 40.4171 159.597 48.4285 163.22 56.1215C156.675 50.5619 151.172 43.7894 147.089 36.2424C149.05 45.0282 151.972 53.6019 155.755 61.7633C151.292 56.896 147.089 51.7886 143.146 46.4691C145.588 52.8953 148.33 59.2036 151.352 65.3616C147.349 61.8553 143.346 58.349 139.344 54.8427C145.948 68.1214 148.29 83.7758 157.956 95.0432C157.556 91.4028 158.276 87.4021 160.918 84.8684C165.681 80.2814 173.847 82.589 179.69 79.5089C180.171 79.2548 180.651 78.9485 180.851 78.4562C181.151 77.7898 180.851 77.0153 180.531 76.3628C176.889 68.4556 172.746 60.7366 166.942 54.2163C161.358 47.9221 158.336 39.9368 155.975 31.9215" fill="#514441"/>
<path d="M374.574 58.9177C374.08 60.119 374.037 61.5198 374.466 62.7468C381.181 59.3189 387.916 55.8931 394.63 52.4523C392.957 55.9725 391.263 59.4926 389.611 63.0127C396.99 60.0525 404.09 56.3715 410.762 52.0384C412.563 50.8522 414.408 49.5715 415.524 47.7331C412.328 57.1587 407.973 66.1853 402.503 74.5191C404.498 73.5988 406.386 72.4919 408.166 71.2263C405.871 75.6645 403.168 79.8797 400.079 83.8117C401.795 83.0802 403.361 81.9991 404.648 80.6777C400.594 87.0401 396.304 93.2523 391.799 99.3186C389.675 102.184 387.487 105.04 384.784 107.399C384.57 107.599 384.291 107.798 383.991 107.773C383.519 107.732 383.304 107.159 383.197 106.679C382.232 101.172 384.034 95.2515 382.06 90.0261C380.516 85.8924 376.847 82.9322 373.008 80.7592C369.661 78.865 358.292 75.7182 360.395 70.3855C361.403 67.8263 364.706 66.7859 366.809 65.4259C369.661 63.5983 372.278 61.3996 374.574 58.9177" fill="#514441"/>
<path d="M211.324 13.5193C221.079 18.7472 229.185 26.6389 234.663 36.2393C235.742 38.1069 238.614 36.4267 237.555 34.5592C231.791 24.4802 223.217 16.1201 213.014 10.6397C211.12 9.62545 209.43 12.5071 211.324 13.5193" fill="#937C76"/>
<path d="M235.744 15.856C240.361 20.5364 243.651 26.3486 245.264 32.7104C245.796 34.7901 249.003 33.9096 248.472 31.8298C246.715 24.9226 243.119 18.5773 238.114 13.4965C236.602 11.9765 234.253 14.3218 235.744 15.856Z" fill="#937C76"/>
<path d="M244.791 45.4016C246.55 49.9227 248.289 54.4417 250.028 58.9485C250.355 59.7893 251.153 60.3744 252.074 60.1207C252.872 59.8957 253.567 58.9096 253.24 58.0688C251.501 53.5477 249.762 49.0286 248.003 44.5096C247.696 43.6688 246.878 43.096 245.957 43.3477C245.159 43.5747 244.463 44.5485 244.791 45.4016Z" fill="#937C76"/>
<path d="M259.156 55.8909C262.384 62.3722 264.955 69.1187 266.887 76.0791C267.463 78.1456 270.671 77.2656 270.095 75.1846C268.08 67.959 265.386 60.9328 262.035 54.213C261.089 52.2925 258.21 53.9848 259.156 55.8909Z" fill="#937C76"/>
<path d="M280.941 69.2141C281.871 75.9749 282.78 82.7213 283.71 89.4802C283.834 90.3749 284.95 90.8686 285.735 90.6537C286.727 90.3872 287.037 89.4946 286.913 88.602C286.003 81.8411 285.073 75.0822 284.164 68.3214C284.04 67.4267 282.883 66.9474 282.098 67.1602C281.148 67.4267 280.817 68.307 280.941 69.2141Z" fill="#937C76"/>
<path d="M278.024 50.5743C277.035 43.1326 276.746 35.6272 277.138 28.134C277.261 25.999 273.943 25.999 273.82 28.134C273.408 35.6272 273.717 43.1326 274.685 50.5743C274.809 51.4666 275.365 52.2271 276.354 52.2394C277.179 52.2539 278.148 51.4666 278.024 50.5743" fill="#937C76"/>
<path d="M298.272 48.6671C300.1 42.6794 301.928 36.6937 303.735 30.708C304.358 28.654 301.139 27.7734 300.515 29.8275C298.709 35.8131 296.881 41.8008 295.074 47.7864C294.43 49.8405 297.649 50.7211 298.272 48.6671" fill="#937C76"/>
<path d="M322.827 40.3498C325.906 34.7364 328.984 29.1231 332.063 23.5223C333.111 21.6435 330.22 19.949 329.194 21.8299C326.115 27.4433 323.036 33.0566 319.936 38.67C318.889 40.5488 321.779 42.2286 322.827 40.3498" fill="#937C76"/>
<path d="M307.317 80.7726C307.109 74.8118 308.003 68.9321 310.001 63.3188C310.313 62.4657 309.668 61.492 308.856 61.2652C307.92 61.0114 307.109 61.5857 306.797 62.4242C304.716 68.2913 303.759 74.5455 303.988 80.7726C304.071 82.9052 307.4 82.9177 307.317 80.7726" fill="#937C76"/>
<path d="M296.167 114.104C296.602 110.677 296.664 107.21 296.333 103.758C296.25 102.891 295.628 102.05 294.654 102.091C293.846 102.131 292.913 102.837 292.996 103.758C293.328 107.21 293.286 110.677 292.831 114.104C292.727 114.97 293.68 115.809 294.509 115.77C295.504 115.731 296.042 115.036 296.167 114.104Z" fill="#937C76"/>
<path d="M275.646 111.615C273.895 101.534 270.93 91.7489 266.893 82.3472C266.048 80.3866 263.186 82.0816 264.01 84.0402C267.923 93.1473 270.724 102.734 272.433 112.509C272.783 114.614 275.996 113.722 275.646 111.615" fill="#937C76"/>
<path d="M267.797 127.677C264.92 122.546 263.44 116.759 263.523 110.879C263.543 108.731 260.214 108.731 260.193 110.879C260.111 117.344 261.755 123.732 264.92 129.358C265.968 131.239 268.845 129.558 267.797 127.677" fill="#937C76"/>
<path d="M282.327 132.055C282.347 128.095 282.389 124.135 282.43 120.173C282.45 119.267 281.666 118.508 280.779 118.508C279.871 118.508 279.108 119.267 279.108 120.173C279.066 124.135 279.025 128.095 278.984 132.055C278.963 132.948 279.747 133.72 280.655 133.72C281.563 133.72 282.306 132.948 282.327 132.055Z" fill="#937C76"/>
<path d="M309.194 129.641C310.214 124.549 311.213 119.442 312.233 114.348C312.421 113.468 311.984 112.549 311.068 112.295C310.256 112.068 309.215 112.574 309.027 113.468C308.007 118.562 306.987 123.654 305.967 128.761C305.801 129.641 306.217 130.562 307.133 130.801C307.945 131.028 309.007 130.535 309.194 129.641Z" fill="#937C76"/>
<path d="M319.889 84.2392C321.226 79.812 322.584 75.3869 323.921 70.9597C324.548 68.9059 321.33 68.0263 320.704 70.0801C319.367 74.5073 318.009 78.9199 316.671 83.3471C316.045 85.4134 319.262 86.293 319.889 84.2392Z" fill="#937C76"/>
<path d="M270.768 15.5766C271.323 12.3354 271.158 9.04273 270.212 5.88373C269.945 5.05696 269.019 4.44405 268.156 4.72375C267.312 5.00346 266.716 5.8837 266.984 6.77628C267.21 7.44263 267.354 8.12336 267.498 8.81645C267.539 9.03034 267.58 9.24225 267.621 9.45614C267.662 9.81605 267.58 9.25659 267.641 9.65557C267.683 10.0031 267.703 10.3487 267.744 10.6962C267.785 11.4037 267.785 12.1091 267.744 12.8022C267.744 13.1498 267.703 13.5097 267.662 13.8552C267.662 13.9231 267.621 14.3488 267.662 14.0568C267.621 14.2686 267.58 14.4826 267.559 14.6965C267.395 15.55 267.786 16.5227 268.732 16.7366C269.513 16.9238 270.624 16.496 270.768 15.5766" fill="#937C76"/>
<path d="M481.215 600.922C488.664 601.975 515.998 603.107 515.998 603.107C532.536 557.734 519.168 499.202 497.664 455.961C490.836 442.214 482.146 425.829 469.554 416.536C469.044 425.734 478.377 439.922 481.237 449.109C484.917 460.867 487.711 472.894 489.639 485.053C493.541 509.614 493.851 534.734 490.526 559.388C488.619 573.468 485.516 587.387 481.215 600.922" fill="#514441"/>
<path d="M350.128 621.92C333.192 626.628 255.773 626.135 238.286 624.346C214.046 621.879 189.531 621.879 165.27 624.32C171.621 614.428 182.842 607.839 194.591 607.147C183.138 604.213 171.071 603.853 159.47 606.106C168.742 596.56 181.339 590.347 194.549 588.827C186.059 585.827 176.66 585.414 167.938 587.679C181.042 577.841 197.872 574.467 214.173 573.012C230.496 571.56 247.072 571.734 262.992 567.841C279.123 563.88 329 542.199 333.086 573C336.113 595.787 369.732 616.479 350.128 621.92" fill="#3F3532"/>
<path d="M361.873 443.479C351.198 467.827 352.363 495.173 354.581 521.427C355.218 528.786 355.723 536.84 351.155 542.854C347.355 547.853 340.809 550.32 334.396 551.587C318.757 554.693 302.525 552.134 286.513 552C270.522 551.853 253.06 554.88 242.583 566.227C241.375 567.533 240.233 569.04 240.167 570.76C240.057 573.44 242.495 575.533 244.714 577.2C266.657 593.559 290.708 608.107 317.571 615.601C367.518 629.52 421.024 617.773 471.609 605.987C476.046 604.946 480.658 603.841 484.173 601.067C487.995 598.053 489.971 593.467 491.487 588.986C496.824 573.04 497.966 556.147 498.318 539.427C499.24 495.494 494.913 440.707 459.045 408.16C426.559 378.692 376.304 410.64 361.873 443.479" fill="#665651"/>
<path d="M758.158 627.281C743.528 632.348 727.566 630.68 712.079 630.081C690.622 629.253 669.069 630.602 647.873 634.082C652.893 625.028 662.408 618.615 672.709 617.361C662.48 615.415 651.822 615.76 641.76 618.374C649.372 609.48 660.148 603.321 671.662 601.254C664.026 599.082 655.748 599.241 648.207 601.708C659.173 592.333 673.779 588.441 688.053 586.267C702.326 584.095 716.908 583.334 730.706 579.028C744.67 574.653 787.346 552.841 792.628 579.694C796.553 599.574 775.095 621.415 758.158 627.281" fill="#3F3532"/>
<path d="M800.21 421.546C805.871 474.654 842.551 522.105 890.37 545.88C845.551 551.546 801.045 559.56 757.06 569.907C743.26 573.147 728.859 576.987 718.711 586.867C708.562 596.746 704.806 614.653 714.536 624.945C723.928 634.892 739.946 633.147 753.434 630.841C836.733 616.625 921.415 610.547 1005.86 612.694C1023.92 613.145 1042.57 613.894 1059.4 607.333C1076.22 600.772 1090.83 584.693 1089.45 566.68C1088.74 557.16 1083.76 548.4 1082.61 538.919C1080.21 518.852 1094.8 501.292 1107.32 485.426C1140.79 442.946 1171.37 386.238 1164.35 332.599C1155.92 268.359 1061.95 153.519 953.999 149.893C849.334 146.374 786.748 295.332 800.21 421.546" fill="#665651"/>
<path d="M1256.83 561.214C1258.3 587.095 1256.65 613.842 1245.89 637.402C1219.49 695.107 1148.86 716.027 1085.95 724.454C987.292 737.68 886.663 736.134 788.483 719.894C780.178 718.52 770.194 715.52 768.411 707.294C765.482 693.894 785.555 689.295 799.212 690.761C864.355 697.787 930.482 695.734 995.093 684.695C1032.76 678.268 1070.54 668.52 1103.15 648.641C1135.79 628.76 1162.97 597.533 1171.01 560.173C1179.07 522.828 1164.7 479.8 1131.87 460.215C1109.8 447.042 1082.65 445.416 1059.36 434.536C1021.93 417.083 998.101 374.214 1003.05 333.214C1007.07 299.815 1034.94 256.347 1071.9 253.989C1111.8 251.441 1142.76 298.015 1163.55 325.787C1214.72 394.148 1252.04 475.04 1256.83 561.214Z" fill="#665651"/>
<path d="M520.822 280.613C544.605 281.641 568.5 278.812 591.381 272.279C593.455 271.693 592.576 268.481 590.502 269.067C567.869 275.534 544.334 278.293 520.822 277.279C518.658 277.187 518.681 280.521 520.822 280.613Z" fill="#937C76"/>
<path d="M602.846 285.695C617.927 281.134 632.71 275.615 647.081 269.187C649.049 268.322 647.355 265.454 645.41 266.322C631.268 272.615 616.759 278.002 601.977 282.48C599.917 283.093 600.787 286.32 602.846 285.695" fill="#937C76"/>
<path d="M637.263 253.677C646.576 248.851 655.889 244.024 665.179 239.212C667.087 238.225 665.409 235.344 663.5 236.333C654.187 241.146 644.897 245.972 635.585 250.799C633.676 251.785 635.378 254.666 637.263 253.677Z" fill="#937C76"/>
<path d="M732.447 248.533C750.55 240.16 768.013 230.427 784.645 219.401C786.425 218.213 784.764 215.335 782.961 216.521C766.328 227.547 748.889 237.294 730.762 245.652C728.817 246.561 730.501 249.427 732.447 248.533Z" fill="#937C76"/>
<path d="M780.392 196.829C792.961 190.695 806.034 185.682 819.465 181.801C821.524 181.214 820.662 178.001 818.579 178.588C804.86 182.548 791.549 187.695 778.716 193.949C776.801 194.895 778.476 197.775 780.392 196.829Z" fill="#937C76"/>
<path d="M822.292 195.868C828.382 193.959 834.472 192.041 840.538 190.135C842.584 189.494 841.717 186.266 839.647 186.921C833.581 188.828 827.491 190.748 821.401 192.655C819.379 193.293 820.246 196.521 822.292 195.868Z" fill="#937C76"/>
<path d="M912.142 182.815C920.719 180.202 929.622 182.146 937.972 184.694C945.215 186.907 952.358 189.402 959.451 192.041C972.856 197.041 986.086 203.042 997.579 211.653C1003.99 216.455 1009.78 222.149 1014.46 228.64C1015.69 230.376 1018.58 228.708 1017.32 226.96C999.39 202.053 968.782 190.987 940.663 182.041C931.207 179.04 921.046 176.613 911.262 179.601C909.225 180.227 910.08 183.442 912.142 182.815" fill="#937C76"/>
<path d="M1033.38 202.414C1043.07 206.945 1051.53 213.653 1058.19 222.053C1059.53 223.733 1061.87 221.359 1060.55 219.692C1053.77 211.106 1044.97 204.172 1035.06 199.531C1033.13 198.627 1031.42 201.491 1033.38 202.414Z" fill="#937C76"/>
<path d="M982.59 239.239C988.928 243.332 994.515 248.428 999.224 254.307C999.8 255.013 1001 254.893 1001.58 254.307C1002.28 253.613 1002.16 252.654 1001.58 251.947C996.719 245.852 990.832 240.599 984.269 236.361C982.465 235.186 980.812 238.079 982.59 239.239" fill="#937C76"/>
<path d="M1041.5 258.467C1046.17 263.626 1050.87 268.772 1055.54 273.934C1056.99 275.531 1059.35 273.159 1057.9 271.587C1053.23 266.425 1048.53 261.266 1043.86 256.105C1042.41 254.52 1040.05 256.879 1041.5 258.467" fill="#937C76"/>
<path d="M1099.49 269.373C1114.27 284.693 1124.04 304.399 1127.4 325.425C1127.76 327.534 1130.96 326.64 1130.63 324.534C1127.17 302.973 1117.01 282.719 1101.84 267.026C1100.34 265.478 1097.99 267.827 1099.49 269.373Z" fill="#937C76"/>
<path d="M1084.69 371.667C1088.07 382.332 1088.55 393.694 1086.07 404.6C1085.59 406.678 1088.81 407.574 1089.27 405.48C1091.91 394.014 1091.45 382.012 1087.91 370.786C1087.27 368.746 1084.05 369.614 1084.69 371.667Z" fill="#937C76"/>
<path d="M1172.7 380.918C1184.16 388.907 1193.15 400.065 1198.69 412.878C1199.53 414.838 1202.42 413.146 1201.58 411.199C1195.8 397.839 1186.31 386.344 1174.38 378.038C1172.62 376.811 1170.97 379.707 1172.7 380.918Z" fill="#937C76"/>
<path d="M1179.56 415.695C1185.58 421.388 1191.6 427.081 1197.64 432.775C1199.19 434.254 1201.55 431.895 1200 430.416C1193.96 424.719 1187.94 419.042 1181.9 413.348C1180.35 411.867 1177.99 414.229 1179.56 415.695Z" fill="#937C76"/>
<path d="M1213.47 457.187C1220.21 477.092 1223.91 497.933 1224.34 518.948C1224.39 521.094 1227.72 521.094 1227.67 518.948C1227.22 497.652 1223.52 476.479 1216.67 456.294C1215.98 454.28 1212.78 455.147 1213.47 457.187" fill="#937C76"/>
<path d="M1239.58 555.506C1238.83 571.401 1233.32 586.787 1223.87 599.587C1222.6 601.306 1225.49 602.974 1226.74 601.266C1236.53 588.013 1242.15 571.961 1242.89 555.506C1243 553.373 1239.66 553.373 1239.58 555.506" fill="#937C76"/>
<path d="M879.112 711.346C890.762 713.88 902.682 715.04 914.601 714.773C916.76 714.72 916.76 711.387 914.601 711.44C902.976 711.693 891.375 710.6 879.995 708.134C877.91 707.666 877.003 710.88 879.112 711.346Z" fill="#937C76"/>
<path d="M947.376 708.893C958.849 706.84 970.471 705.96 982.118 706.199C984.263 706.254 984.263 702.92 982.118 702.867C970.172 702.613 958.25 703.573 946.479 705.68C944.384 706.055 945.281 709.28 947.376 708.893Z" fill="#937C76"/>
<path d="M982.119 720.427C995.034 720.253 1007.9 718.747 1020.51 715.933C1022.6 715.467 1021.72 712.253 1019.63 712.72C1007.29 715.467 994.757 716.92 982.119 717.093C979.979 717.12 979.979 720.453 982.119 720.427Z" fill="#937C76"/>
<path d="M1062.8 714.826C1072.66 712.053 1082.5 709.279 1092.36 706.493C1094.41 705.919 1093.54 702.693 1091.46 703.279C1081.6 706.066 1071.76 708.84 1061.9 711.613C1059.85 712.2 1060.72 715.413 1062.8 714.826Z" fill="#937C76"/>
<path d="M1157.35 690.533C1158.26 690.067 1159.2 689.601 1160.16 689.132C1160.5 688.948 1160.81 688.508 1160.92 688.133C1161.02 687.735 1160.97 687.201 1160.73 686.853C1160.53 686.494 1160.19 686.173 1159.75 686.08C1159.62 686.067 1159.46 686.041 1159.3 686.028C1159.02 686.028 1158.73 686.106 1158.47 686.254C1157.53 686.72 1156.6 687.186 1155.66 687.654C1155.3 687.842 1154.98 688.279 1154.88 688.654C1154.77 689.054 1154.83 689.588 1155.03 689.934C1155.3 690.293 1155.63 690.613 1156.05 690.707C1156.21 690.72 1156.34 690.746 1156.49 690.759C1156.8 690.759 1157.06 690.694 1157.35 690.533" fill="#937C76"/>
</svg>
