<svg width="1120" height="603" viewBox="0 0 1120 603" fill="none" xmlns="http://www.w3.org/2000/svg">
<path d="M736.26 571.08C752.552 578.773 771.224 578.84 789.197 580.08C814.126 581.8 838.88 586.053 862.956 592.747C858.274 581.653 848.068 573.04 836.336 570.307C848.396 569.32 860.666 571.067 871.981 575.347C864.285 564.107 852.62 555.627 839.545 551.8C848.648 550.24 858.205 551.467 866.625 555.253C855.098 543.053 838.701 536.72 822.472 532.413C806.24 528.107 789.461 525.413 774.066 518.707C758.444 511.893 711.836 481.333 702.348 511.733C695.33 534.227 717.408 562.173 736.26 571.08Z" fill="#3F3532"/>
<path d="M369.04 468.32C353.911 478.107 335.415 480.653 317.764 484.267C293.283 489.28 269.312 496.773 246.335 506.6C249.503 494.973 258.479 485.093 269.744 480.827C257.661 481.453 245.728 484.8 235.083 490.547C241.22 478.373 251.659 468.44 264.111 462.907C254.881 462.573 245.569 465.053 237.728 469.92C247.535 456.293 262.947 447.84 278.464 441.427C293.981 435.013 310.253 430.107 324.623 421.427C339.205 412.6 381.351 376.133 394.784 405C404.723 426.36 386.545 457 369.04 468.32Z" fill="#3F3532"/>
<path d="M286.361 430.147C281.569 435.467 277.177 442.427 278.985 449.347C280.045 453.413 283.105 456.667 286.48 459.16C291.356 462.76 297.037 465.133 302.809 466.987C332.283 476.467 364.144 473.093 394.905 469.613C403.68 468.627 413.661 466.907 418.325 459.413C422.736 452.32 420.339 442.867 415.944 435.76C387.917 390.467 318.868 394.093 286.361 430.147Z" fill="#514441"/>
<path d="M271.468 400.893C294.46 438.013 339.019 460.627 382.556 457.267C394.137 456.373 405.845 453.667 415.568 447.32C438.969 432.013 444.848 398.24 434.648 372.213C424.449 346.187 401.764 327 377.696 312.773C356.023 299.96 332.652 290.293 311.035 277.387C294.901 267.747 280.088 254.92 268.06 275.933C247.069 312.613 249.645 365.653 271.468 400.893Z" fill="#514441"/>
<path d="M507.156 121.28C748.963 51.0533 975.065 152.12 1007.38 176.947C1043.54 204.72 1070.75 245.4 1079.75 290.4C1088.75 335.413 1078.62 384.347 1050.24 419.333C1029.58 444.813 1000.39 462.16 969.364 472.147C938.336 482.147 905.42 485.187 872.725 485.453C812.719 485.933 751.352 476.88 697.392 449.147C598.453 398.307 536.021 287.613 526.292 175.733L507.156 121.28Z" fill="#514441"/>
<path d="M277.793 127.48C257.547 147.867 241.487 173.52 237.411 201.96C230.423 250.733 260.972 299.533 303.161 324.973C345.353 350.413 396.848 355.88 446.011 352.64C481.605 350.307 518.512 343.027 546.451 320.853C586.351 289.187 599.403 234.187 600.653 183.253C601.743 138.92 593.82 90.3868 560.9 60.6535C532.788 35.2801 491.417 29.0268 454.071 35.3335C391.447 45.9068 322.529 82.4535 277.793 127.48Z" fill="#665651"/>
<path d="M525.893 10.4667C540.899 -0.0532837 554.719 -5.34663 566.785 8.45337C573.856 16.5334 575.747 27.7734 577.356 38.4C580.535 59.36 583.713 80.3201 586.891 101.28C587.165 103.093 587.435 104.973 586.876 106.72C585.771 110.16 581.9 111.84 578.364 112.6C566.736 115.147 554.571 112.44 543.427 108.267C521.237 99.9467 485.333 80.9601 473.127 59.5601C465.825 46.7467 468.941 36.2 480.491 33.0534C495.573 28.9467 514.236 18.64 525.893 10.4667Z" fill="#665651"/>
<path d="M197.412 194.4C190.811 198.787 185.177 205.48 184.407 213.36C183.493 222.72 189.631 231.52 197.216 237.08C204.801 242.627 213.831 245.787 222.189 250.093C230.949 254.6 239.033 260.427 246.092 267.293C251.863 272.92 257.869 279.693 265.916 280.067C273.921 280.427 280.697 274.12 285.021 267.373C297.492 247.907 297.471 222.613 291.203 200.36C287.065 185.68 264.727 146.24 252.721 159.653C234.813 179.653 204.013 190.013 197.412 194.4Z" fill="#665651"/>
<path d="M296.519 186.347C292.624 191.453 289.984 197.933 291.071 204.267C291.852 208.813 294.472 212.867 297.609 216.253C305.845 225.133 317.731 230.053 329.741 231.653C340.012 233.027 351.024 232 359.701 226.333C368.379 220.667 373.988 209.613 371.141 199.653C369.563 194.12 365.684 189.533 361.389 185.707C342.675 169.04 313.477 164.093 296.519 186.347Z" fill="#514441"/>
<path d="M526.617 68.7468C533.041 68.5734 539.843 70.2268 544.345 74.8001C547.579 78.0934 549.331 82.5868 550.243 87.1201C552.636 99.0001 549.668 111.507 543.948 122.187C539.057 131.32 531.785 139.653 522.117 143.387C512.449 147.107 500.203 145.2 493.784 137.067C490.221 132.547 488.763 126.72 488.171 121C485.589 96.0668 498.649 69.4934 526.617 68.7468Z" fill="#514441"/>
<path d="M464.703 212.067C403.683 248.76 369.195 292.44 380.02 320.84C390.843 349.24 481.239 365.24 542.723 323.093C600.973 283.16 603.439 218.613 588.963 193.707C574.485 168.8 539.147 167.307 464.703 212.067Z" fill="#937C76"/>
<path d="M435.577 222.387C433.272 225.613 431.259 229.253 431.083 233.2C430.905 237.16 433.039 241.44 436.807 242.653C445.007 245.307 451.125 232.973 459.739 232.787C464.211 232.693 467.951 235.893 471.8 238.173C477.139 241.32 483.763 242.84 489.624 240.827C495.485 238.8 500.053 232.613 498.945 226.52C497.888 220.693 498.432 214.133 502.389 209.733C504.897 206.947 508.447 205.373 511.541 203.267C514.636 201.147 519.516 196.16 519.412 192.413C519.299 188.36 518.523 177.92 493.911 184.213C472.529 189.667 448.963 203.72 435.577 222.387Z" fill="#231F20"/>
<path d="M482.887 232.2C488.553 238.907 492.252 247.467 493.3 256.187C493.848 260.773 493.887 265.667 492.747 270.16C491.721 274.187 489.369 277.36 486.28 280.107C482.749 283.24 478.531 285.547 474.417 287.813C470.048 290.227 473.956 296.933 478.332 294.507C486.96 289.747 495.841 284.213 499.491 274.56C501.42 269.467 501.645 263.493 501.236 258.093C500.828 252.747 499.707 247.453 497.744 242.453C495.476 236.68 492.369 231.453 488.369 226.707C487.019 225.107 484.279 225.32 482.887 226.707C481.301 228.293 481.532 230.587 482.887 232.2Z" fill="#231F20"/>
<path d="M485.729 234.307C490.031 239.573 494.107 245.24 498.972 250C502.897 253.84 507.607 256.667 512.765 258.52C522.92 262.173 534.519 261.347 544.032 256.28C548.439 253.933 544.525 247.24 540.119 249.587C532.18 253.813 522.772 254.027 514.369 250.88C510.121 249.28 506.312 246.547 503.165 243.187C498.915 238.667 495.144 233.627 491.213 228.827C489.887 227.2 487.107 227.453 485.729 228.827C484.125 230.427 484.399 232.68 485.729 234.307Z" fill="#231F20"/>
<path d="M201.967 226.44C200.797 225.347 199.641 224.12 199.195 222.573C198.483 220.107 199.817 217.413 201.805 215.8C203.792 214.173 206.321 213.4 208.788 212.693C220.873 209.227 233.168 206.507 245.584 204.52C243.008 211.467 241.233 218.707 240.284 226.053C239.721 230.413 241.521 241.627 236.821 243.613C232.515 245.427 222.436 239.373 218.537 237.48C212.539 234.587 206.825 231.04 201.967 226.44Z" fill="#937C76"/>
<path d="M545.957 18.84C548.139 17.4266 550.645 16.2667 553.229 16.4934C558.871 16.9867 561.785 23.3467 563.355 28.7867C566.705 40.4133 569.153 52.2933 570.671 64.3066C564.832 56.0533 556.101 50.0267 546.501 46.88C537.397 43.9067 528.677 44.44 519.357 44.6267C522.076 40.1334 528.692 36.0266 532.437 31.84C536.609 27.1733 540.637 22.2666 545.957 18.84Z" fill="#937C76"/>
<path d="M302.027 381.2C301.061 377.08 330.068 338.4 347.295 319.107C364.2 300.187 412.636 259.64 415.333 267.427C417.237 275.04 397.312 277.693 357.339 317.147C314.587 359.36 304.007 384.773 302.027 381.2Z" fill="#231F20"/>
<path d="M335.377 411.6C333.749 407.694 356.019 364.774 369.849 342.934C383.423 321.48 424.553 273.547 428.491 280.787C431.619 287.987 412.397 293.867 379.437 339.347C344.187 388 337.917 414.8 335.377 411.6Z" fill="#231F20"/>
<path d="M375.547 438.8C373.223 435.253 387.171 388.96 396.723 364.933C406.097 341.347 437.652 286.627 442.861 293.013C447.267 299.507 429.463 308.84 405.483 359.64C379.836 413.96 378.633 441.467 375.547 438.8Z" fill="#231F20"/>
<path d="M707.339 159.8C704.297 156.84 656.2 161.747 630.795 166.56C605.861 171.293 546.147 191.88 551.431 198.213C556.973 203.773 569.513 188.067 623.937 174.16C682.144 159.293 709.375 163.333 707.339 159.8Z" fill="#231F20"/>
<path d="M716.188 204.04C713.672 200.627 665.421 197.587 639.571 198.173C614.2 198.747 551.916 209.267 556.091 216.373C560.647 222.76 575.592 209.333 631.56 204.533C691.417 199.413 717.616 207.867 716.188 204.04Z" fill="#231F20"/>
<path d="M718.773 252.48C716.932 248.667 670.077 236.747 644.563 232.533C619.524 228.413 556.369 227.227 559.157 234.987C562.452 242.12 579.625 231.667 635.513 237.32C695.284 243.36 719.469 256.507 718.773 252.48Z" fill="#231F20"/>
<path d="M272.08 158.293C276.729 167.013 284.973 173.133 292.955 178.96C283.18 176.947 273.787 173.093 265.409 167.667C272.319 175.533 280.072 182.653 288.493 188.88C281.216 186.4 274.068 183.533 267.089 180.307C273.163 185.493 279.476 190.413 286.001 195.013C279.957 193.667 273.915 192.32 267.872 190.96C282.028 200.84 293.139 215.52 309.276 221.627C306.844 218.133 305.344 213.653 306.628 209.6C308.948 202.253 318.569 200.053 322.828 193.653C323.171 193.133 323.487 192.547 323.431 191.933C323.353 191.08 322.612 190.467 321.928 189.96C313.796 183.947 305.251 178.36 295.7 174.933C286.476 171.627 278.961 165.16 272.08 158.293Z" fill="#514441"/>
<path d="M510.273 64C510.447 65.5067 511.183 66.9467 512.304 67.9733C517.253 60.72 522.204 53.48 527.153 46.2267C527.404 50.7467 527.656 55.28 527.907 59.8C533.796 52.6667 538.987 44.9467 543.383 36.8C544.575 34.6 545.733 32.2667 545.851 29.76C547.861 41.16 548.419 52.8134 547.507 64.3467C549.009 62.3067 550.325 60.12 551.431 57.84C551.567 63.64 551.153 69.4667 550.196 75.2C551.533 73.4933 552.535 71.52 553.128 69.44C552.523 78.2 551.612 86.9467 550.399 95.64C549.825 99.76 549.175 103.893 547.743 107.787C547.62 108.12 547.463 108.493 547.137 108.627C546.619 108.853 546.076 108.387 545.723 107.947C541.657 102.867 540.209 95.8267 535.277 91.5733C531.385 88.2267 525.983 87.2533 520.849 87.1733C516.395 87.1067 503.035 90.2267 502.205 83.6134C501.807 80.4267 504.593 77.5467 505.997 74.96C507.877 71.5067 509.323 67.8267 510.273 64Z" fill="#514441"/>
<path d="M318.372 108.653C331.241 108.573 343.879 112.12 354.837 118.867C356.969 120.173 358.919 116.827 356.795 115.507C345.277 108.427 331.895 104.693 318.372 104.773C315.877 104.787 315.872 108.667 318.372 108.653Z" fill="#937C76"/>
<path d="M344.601 97.4268C351.916 99.6268 358.496 103.76 363.695 109.347C365.399 111.187 368.136 108.44 366.437 106.613C360.793 100.547 353.563 96.0801 345.632 93.6934C343.237 92.9734 342.215 96.7068 344.601 97.4268Z" fill="#937C76"/>
<path d="M370.284 122.56C374.584 126.2 378.885 129.84 383.185 133.48C383.984 134.16 385.143 134.267 385.927 133.48C386.62 132.787 386.729 131.427 385.927 130.747C381.627 127.107 377.327 123.467 373.027 119.827C372.227 119.147 371.068 119.04 370.284 119.827C369.591 120.52 369.481 121.88 370.284 122.56Z" fill="#937C76"/>
<path d="M390.8 125.267C397.688 130.08 404.083 135.547 409.931 141.573C411.671 143.373 414.411 140.627 412.672 138.84C406.595 132.573 399.915 126.92 392.757 121.92C391.899 121.32 390.603 121.773 390.105 122.613C389.54 123.587 389.94 124.667 390.8 125.267Z" fill="#937C76"/>
<path d="M420.155 126.333C424.861 132.72 429.568 139.107 434.276 145.493C434.895 146.333 435.956 146.76 436.928 146.187C437.757 145.707 438.248 144.387 437.623 143.533C432.916 137.147 428.209 130.76 423.503 124.373C422.883 123.533 421.821 123.107 420.851 123.68C420.02 124.16 419.529 125.48 420.155 126.333Z" fill="#937C76"/>
<path d="M407.045 109.253C401.883 102.213 397.395 94.7068 393.641 86.8401C393.192 85.8934 391.839 85.6401 390.989 86.1335C390.023 86.7068 389.841 87.8401 390.293 88.7868C394.048 96.6668 398.533 104.173 403.697 111.213C404.316 112.053 405.379 112.467 406.349 111.907C407.181 111.413 407.668 110.093 407.045 109.253Z" fill="#937C76"/>
<path d="M426.667 96C425.188 88.8667 423.707 81.7467 422.227 74.6134C421.72 72.1734 417.981 73.2133 418.488 75.64C419.968 82.7733 421.448 89.8934 422.928 97.0267C423.436 99.4667 427.173 98.44 426.667 96Z" fill="#937C76"/>
<path d="M447.101 73.8267C447.127 66.3867 447.151 58.9333 447.175 51.48C447.184 48.9866 443.305 48.9866 443.299 51.48C443.273 58.9333 443.249 66.3867 443.224 73.8267C443.216 76.32 447.093 76.3333 447.101 73.8267Z" fill="#937C76"/>
<path d="M453.788 123.747C450.235 117.8 447.889 111.267 446.801 104.413C446.636 103.387 445.345 102.813 444.416 103.067C443.313 103.36 442.896 104.413 443.061 105.453C444.2 112.6 446.729 119.493 450.44 125.707C451.717 127.853 455.071 125.907 453.788 123.747Z" fill="#937C76"/>
<path d="M461.168 164.48C459.64 160.56 457.728 156.827 455.376 153.36C454.808 152.52 453.643 152.067 452.723 152.653C451.888 153.2 451.42 154.413 452.028 155.307C453.136 156.947 454.159 158.64 455.081 160.4C455.535 161.253 455.965 162.133 456.372 163.013C456.849 164.053 457.02 164.453 457.429 165.507C457.799 166.44 458.747 167.2 459.815 166.853C460.729 166.56 461.564 165.48 461.168 164.48Z" fill="#937C76"/>
<path d="M438.64 172.933C431.355 163.76 423.015 155.467 413.795 148.24C412.964 147.587 411.864 147.44 411.053 148.24C410.373 148.907 410.229 150.333 411.053 150.987C420.272 158.213 428.613 166.493 435.899 175.667C436.555 176.493 437.952 176.347 438.64 175.667C439.459 174.867 439.288 173.747 438.64 172.933Z" fill="#937C76"/>
<path d="M439.581 193.72C433.769 190.093 429.045 184.96 425.851 178.907C425.363 177.987 424.075 177.707 423.199 178.213C422.261 178.76 422.013 179.933 422.503 180.867C426 187.493 431.271 193.107 437.624 197.067C439.748 198.387 441.696 195.04 439.581 193.72Z" fill="#937C76"/>
<path d="M456.843 190.04C454.677 185.973 452.513 181.907 450.348 177.84C449.871 176.947 448.552 176.6 447.695 177.147C446.784 177.733 446.489 178.84 447 179.8C449.165 183.867 451.329 187.933 453.495 192C453.972 192.893 455.291 193.24 456.147 192.693C457.059 192.107 457.353 191 456.843 190.04Z" fill="#937C76"/>
<path d="M482.948 172.573C481.145 166.8 479.341 161.04 477.539 155.267C476.796 152.893 473.052 153.907 473.8 156.293C475.603 162.067 477.407 167.84 479.209 173.613C479.951 175.987 483.696 174.96 482.948 172.573Z" fill="#937C76"/>
<path d="M468.553 120.267C467.459 115 466.365 109.733 465.272 104.467C465.057 103.44 463.849 102.84 462.887 103.107C461.823 103.4 461.319 104.467 461.532 105.493C462.627 110.76 463.72 116.027 464.813 121.293C465.028 122.32 466.236 122.907 467.199 122.653C468.264 122.36 468.767 121.293 468.553 120.267Z" fill="#937C76"/>
<path d="M380.141 77.5467C378.911 73.9467 376.883 70.6667 374.16 68.0134C373.433 67.3067 372.133 67.24 371.419 68.0134C370.715 68.7734 370.643 70 371.419 70.76C372.011 71.3334 372.572 71.9333 373.096 72.5733L373.325 72.8667C373.5 73.08 373.127 72.6 373.289 72.8134C373.407 72.9734 373.523 73.1334 373.637 73.28C373.892 73.64 374.137 74 374.371 74.3733C374.812 75.0667 375.215 75.8 375.576 76.5467C375.66 76.72 375.743 76.8933 375.823 77.0667L375.971 77.4C375.925 77.2667 375.857 77.12 375.944 77.3467C376.107 77.7467 376.26 78.16 376.403 78.5733C376.729 79.5333 377.749 80.2667 378.787 79.9333C379.737 79.6133 380.493 78.5734 380.141 77.5467Z" fill="#937C76"/>
<path d="M311.425 232.88C312.241 232.733 338.112 233.24 352.873 223.027C367.636 212.827 369.449 191.253 369.449 191.253C369.449 191.253 384.659 217.667 364.248 231.16C345.1 243.813 311.425 232.88 311.425 232.88Z" fill="#231F20"/>
<path d="M553.827 95.1067C553.467 95.84 546.672 120.813 532.723 132.107C518.776 143.4 497.568 139.08 497.568 139.08C497.568 139.08 518.637 161.107 537.325 145.307C554.859 130.493 553.827 95.1067 553.827 95.1067Z" fill="#231F20"/>
<path d="M380.197 486.453C365.661 458.093 364.688 424.093 372.455 393.173C380.223 362.24 396.128 333.96 414.084 307.653C440.056 269.587 472.523 234.92 513.655 214.333C716.244 112.88 1002.11 193.8 1028.31 204.52C1122.42 243.027 1124.56 366.84 1116.3 411.867C1107.91 457.613 1099.91 489.88 1053.95 507.307C1011.25 523.493 922.168 529.893 876.844 535.2C803.335 543.8 729.243 546.133 655.281 545.547C617.784 545.24 580.297 544.187 542.824 542.827C513.493 541.773 481.917 543.747 453.02 538.173C422.015 532.2 394.888 515.12 380.197 486.453Z" fill="#665651"/>
<path d="M755.981 383.974C757.556 424.214 744.787 464.867 720.487 496.987C750.997 473.613 780.333 445.187 790.915 408.227C796.285 389.48 796.424 369.254 791.309 350.427C787.983 338.174 782.405 326.427 774.195 316.747C755.664 294.907 722.731 285.294 695.532 294.854C735.119 291.707 754.803 353.84 755.981 383.974Z" fill="#514441"/>
<path d="M464.256 541.04C551.484 557.227 639.611 568.573 728.092 575.013C739.513 575.84 752.677 575.92 760.285 567.373C769.239 557.293 764.6 540.347 754.383 531.56C744.165 522.773 730.316 519.88 717.197 516.8C667.903 505.213 620.101 486.693 569.872 480.267C535.876 475.907 499.931 477.72 467.828 490.533C456.424 495.08 431.413 504.707 428.131 518.387C424.015 535.533 452.249 538.813 464.256 541.04Z" fill="#665651"/>
<path d="M344.179 512.027C310.059 528.147 273.287 538.64 235.797 542.96C204.159 546.6 171.273 545.693 141.643 534.027C112.013 522.347 86.0027 498.613 77.2827 467.987C69.276 439.867 77.2107 407.773 97.3973 386.613C113.777 369.453 136.663 359.947 159.671 354.16C182.68 348.373 206.412 345.84 229.423 340.067C232.596 339.28 236.329 337.813 236.864 334.587C237.459 331 233.632 328.36 230.249 327.013C206.961 317.773 180.708 323.36 156.419 329.507C124.049 337.693 91.3973 346.893 62.9147 364.307C34.4307 381.733 10.1987 408.587 2.99602 441.2C-0.250647 455.88 0.0666853 471.347 3.91202 485.893C13.8214 523.387 45.7654 551.32 80.16 569.227C144.356 602.653 220.209 608.453 291.797 597.813C363.387 587.173 431.688 561.08 498.532 533.333C510.679 528.293 524.664 520.733 525.648 507.627C526.427 497.24 518.348 488.413 510.141 482.013C483.623 461.307 437.668 443.613 404.052 455.893C390.927 460.68 389.379 469.08 382.921 480.107C374.068 495.227 359.751 504.667 344.179 512.027Z" fill="#665651"/>
<path d="M651.525 205.92C654.02 205.92 654.025 202.04 651.525 202.04C649.031 202.04 649.027 205.92 651.525 205.92Z" fill="#937C76"/>
<path d="M655.357 205.653C671.188 201.773 687.364 199.547 703.657 199.04C706.147 198.96 706.157 195.08 703.657 195.16C687.031 195.68 670.481 197.947 654.327 201.92C651.905 202.507 652.931 206.253 655.357 205.653Z" fill="#937C76"/>
<path d="M734.431 219.2C749.208 216.253 764.297 215.227 779.34 216.067C781.833 216.213 781.825 212.333 779.34 212.2C763.952 211.333 748.513 212.453 733.4 215.467C730.955 215.947 731.989 219.693 734.431 219.2Z" fill="#937C76"/>
<path d="M757.483 187.507C781.972 186.76 806.536 188.12 830.777 191.693C837.629 192.707 844.456 193.893 851.251 195.24C853.688 195.72 854.731 191.987 852.281 191.493C828.011 186.693 803.324 183.987 778.585 183.507C771.552 183.36 764.515 183.413 757.483 183.627C754.993 183.693 754.983 187.573 757.483 187.507Z" fill="#937C76"/>
<path d="M917.261 210.773C928.6 211.307 939.745 213.653 950.356 217.667C952.692 218.56 953.701 214.813 951.387 213.933C940.457 209.787 928.936 207.44 917.261 206.893C914.768 206.787 914.773 210.667 917.261 210.773Z" fill="#937C76"/>
<path d="M1004.71 217.64C1012.74 218.627 1020.47 221.493 1027.29 225.813C1029.4 227.16 1031.35 223.8 1029.25 222.467C1021.81 217.747 1013.44 214.84 1004.71 213.76C1003.67 213.627 1002.78 214.747 1002.78 215.707C1002.78 216.853 1003.67 217.507 1004.71 217.64Z" fill="#937C76"/>
<path d="M575.539 293.92C582.54 281.787 590.455 270.2 599.252 259.307C600.807 257.387 598.08 254.627 596.511 256.56C587.503 267.72 579.36 279.547 572.191 291.96C570.941 294.133 574.291 296.08 575.539 293.92Z" fill="#937C76"/>
<path d="M445.896 359.12C448.969 339.32 455.293 320.067 464.673 302.36C467.368 297.28 470.309 292.32 473.472 287.52C474.847 285.427 471.491 283.48 470.124 285.56C458.941 302.573 450.604 321.453 445.596 341.187C444.18 346.76 443.04 352.4 442.157 358.093C441.777 360.533 445.513 361.587 445.896 359.12Z" fill="#937C76"/>
<path d="M515.261 248.667C523.551 236.907 533.621 226.4 545.035 217.64C545.871 217 546.295 215.987 545.729 214.987C545.261 214.173 543.907 213.653 543.077 214.293C531.101 223.48 520.615 234.373 511.913 246.707C510.472 248.747 513.832 250.693 515.261 248.667Z" fill="#937C76"/>
<path d="M523.383 269.24C530.132 261.413 536.881 253.587 543.632 245.76C545.253 243.88 542.523 241.12 540.889 243.013C534.14 250.84 527.389 258.68 520.64 266.507C519.019 268.387 521.749 271.133 523.383 269.24Z" fill="#937C76"/>
<path d="M907.117 254.24C927.817 252.147 948.705 252.427 969.343 255.053C971.812 255.373 971.788 251.493 969.343 251.173C948.704 248.547 927.817 248.28 907.117 250.36C904.659 250.613 904.633 254.493 907.117 254.24Z" fill="#937C76"/>
<path d="M297.38 549.467C307.469 545.533 317.557 541.6 327.647 537.68C329.947 536.773 328.945 533.027 326.616 533.933C316.527 537.867 306.439 541.8 296.349 545.72C294.049 546.613 295.049 550.373 297.38 549.467Z" fill="#937C76"/>
<path d="M367.568 523.093C381.976 517.36 394.32 507.347 402.829 494.373C404.201 492.28 400.845 490.333 399.48 492.413C391.568 504.48 379.952 514.013 366.537 519.347C364.247 520.267 365.245 524.013 367.568 523.093Z" fill="#937C76"/>
<path d="M350.923 558.853C368.78 551.573 385.493 541.893 400.711 530.053C402.677 528.52 399.916 525.8 397.969 527.307C383.323 538.72 367.079 548.107 349.892 555.12C347.613 556.053 348.611 559.8 350.923 558.853Z" fill="#937C76"/>
<path d="M427.08 506.613C432.335 502.72 437.051 498.173 441.056 493C441.695 492.16 441.861 491.053 441.056 490.253C440.389 489.587 438.959 489.413 438.313 490.253C434.531 495.147 430.044 499.613 425.123 503.267C424.284 503.893 423.859 504.947 424.428 505.92C424.912 506.747 426.235 507.24 427.08 506.613Z" fill="#937C76"/>
<path d="M74.6586 496.867C77.1533 496.867 77.1573 493 74.6586 493C72.164 493 72.16 496.867 74.6586 496.867Z" fill="#937C76"/>
<path d="M76.3986 493.213C64.9906 480.987 57.5186 465.48 54.904 448.973C54.5146 446.507 50.7773 447.56 51.1653 450C53.8813 467.16 61.8213 483.267 73.6573 495.96C75.3626 497.787 78.1 495.04 76.3986 493.213Z" fill="#937C76"/>
<path d="M47.428 473.387C39.4893 463.733 35.9786 450.627 38.0373 438.293C38.444 435.853 34.7093 434.813 34.2986 437.267C31.9906 451.093 35.7853 465.307 44.6866 476.133C46.272 478.053 49.0013 475.307 47.428 473.387Z" fill="#937C76"/>
<path d="M63.6546 424.32C63.5213 412.253 67.4266 400.267 74.8186 390.72C76.328 388.773 73.6026 386 72.0773 387.973C64.0386 398.373 59.632 411.16 59.7773 424.32C59.8053 426.813 63.6813 426.813 63.6546 424.32Z" fill="#937C76"/>
<path d="M66.4174 513.28C76.9987 522.987 90.2774 529.52 104.46 531.84C106.901 532.24 107.951 528.507 105.491 528.107C91.9547 525.894 79.2734 519.814 69.1601 510.534C67.3241 508.854 64.5747 511.587 66.4174 513.28Z" fill="#937C76"/>
<path d="M130.916 543.587C139.747 547.56 149.077 550.067 158.719 551.014C161.2 551.267 161.183 547.387 158.719 547.147C149.811 546.254 141.032 543.92 132.872 540.227C131.911 539.8 130.797 539.96 130.22 540.933C129.725 541.76 129.963 543.147 130.916 543.587Z" fill="#937C76"/>
<path d="M166.695 577.387C175.981 580.667 185.943 581.88 195.744 580.893C198.203 580.653 198.228 576.773 195.744 577.013C186.241 577.973 176.731 576.827 167.725 573.653C165.369 572.813 164.355 576.56 166.695 577.387Z" fill="#937C76"/>
</svg>
