<svg width="1286" height="1002" viewBox="0 0 1286 1002" fill="none" xmlns="http://www.w3.org/2000/svg">
<path d="M950.208 944.747C988.654 944.44 1029.06 944.214 1063.66 927.44C1167.8 876.934 1166.44 775.694 1161.25 729.174C1156.05 682.641 1139.72 600.668 1148.13 554.614C1156.53 508.56 1202.32 487.867 1248.32 479.2C1256.69 477.627 1265.44 477.268 1273.12 473.641C1280.81 470.002 1287.25 461.721 1285.24 453.468C1282.81 443.468 1270.56 439.961 1260.32 438.881C1223.37 435.001 1123.79 458.148 1101.74 528.761C1076.66 608.988 1101.88 698.014 1079.38 779C1070.97 809.32 1052.11 872.426 913.415 838.386C891.375 832.974 868.428 833.774 847.294 825.495C823.174 816.055 794.841 818.107 772.338 830.921C755.808 840.335 734.656 863.614 741.055 884.668C746.903 903.841 776.622 913.068 793.064 919.508C842.832 939.054 897.045 945.16 950.208 944.747" fill="#514441"/>
<path d="M593.617 572.988C607.201 551.508 632.094 539.975 656.576 533.109C712.949 517.309 774.486 520.641 828.806 542.442C825.394 528.814 822.093 513.921 827.921 501.12C834.602 486.494 844.948 474.041 861.043 474.228C877.123 474.416 902.379 481.841 907.828 501.428C918.174 538.975 905.807 565.627 914.762 601.108C920.243 622.842 930.463 643.055 938.803 663.881C950.886 694.134 959.083 725.947 963.095 758.28C963.948 765.187 964.596 772.374 962.321 778.933C957.883 791.734 943.873 798.455 930.7 801.587C895.508 809.987 858.216 802.334 824.683 788.707C791.166 775.081 760.366 755.667 728.144 739.228C703.693 726.748 678.31 715.921 655.123 701.253C618.7 678.241 563.922 619.934 593.617 572.988Z" fill="#514441"/>
<path d="M319.813 415.867C336.507 432.693 358.613 443.947 373.08 462.72C385.547 478.867 391.333 500.013 388.827 520.267C387.8 528.467 385.267 536.88 379.387 542.693C372.067 549.893 360.64 551.747 350.627 549.44C327.413 544.08 313.547 520.787 303.307 499.267C292.133 475.8 281.987 451.587 277.173 426.053C275.253 415.88 266.493 369.173 287.573 370.08C296.613 370.48 311.493 407.467 319.813 415.867" fill="#665651"/>
<path d="M115.036 711.228C179.323 850.52 335.311 954.361 494.795 988.654C585.018 1008.05 683.029 1007.48 766.768 970.773C783.885 963.267 800.699 953.987 812.317 940.121C829.243 919.921 833.566 891.921 852.796 873.575C879.718 847.868 927.397 848.895 953.477 822.441C980.526 794.988 971.595 749.935 948.963 719.214C915.906 674.362 860.186 647.735 803.385 634.428C746.569 621.135 687.479 619.468 629.184 614.002C571.668 608.602 513.977 599.308 460.593 578.722C407.21 558.136 358.037 525.508 326.442 480.589C291.796 431.335 280.401 369.736 288.633 311.429C292.908 281.217 302.174 251.149 299.123 220.816C295.165 181.656 263.364 143.35 217.275 154.363C203.337 157.696 181.675 156.016 159.504 154.349C123.92 151.655 87.0173 148.976 78.7531 166.976C35.3022 261.549 6.8858 476.976 115.036 711.228" fill="#665651"/>
<path d="M108.529 329.218C106.817 456.99 145.256 584.989 217.069 690.695C262.585 757.682 324.61 817.788 402.544 839.801C427.585 846.881 453.653 849.842 479.664 850.775C556.129 853.495 638.757 835.481 689.624 778.322C698.656 768.188 706.646 756.709 710.299 743.629C715.749 724.122 710.927 702.816 701.024 685.136C676.839 641.91 626.757 620.216 578.53 608.948C530.274 597.682 494.389 588.202 447.161 573.243C333.413 537.177 269.534 357.351 296.529 266.751C297.928 262.058 281.319 258.458 278.494 254.457C275.855 250.725 271.503 248.657 267.322 246.751C229.753 229.552 169.17 196.978 126.136 209.151C107.944 214.297 111.183 230.552 111.083 246.578C110.926 274.15 108.886 301.657 108.529 329.218" fill="#937C76"/>
<path d="M254.613 360.107C266.32 357.52 277.453 351.627 286.146 343.4C286.546 335.907 287.267 328.453 288.32 321.04C290.453 305.933 293.84 290.867 296.306 275.787C289.826 263 279.573 251.613 267.906 243.267C244.64 226.587 216.4 218.773 189.853 208.04C171.613 200.653 154.013 191.787 135.72 184.507C122.773 179.347 98.1865 167.68 83.0131 170.613C81.0531 172.293 79.5065 174.267 78.4398 176.6C76.2398 181.373 74.0932 186.48 71.9866 191.867C74.4932 213.413 91.3732 244.547 96.4398 253.04C107.786 272.053 121.933 289.307 137.027 305.427C152.507 321.96 169.24 337.76 189.12 348.6C209.013 359.44 232.493 365.013 254.613 360.107" fill="#514441"/>
<path d="M298.253 273.253C295.32 267.987 288.52 265.093 284.493 260.48C281.853 259.24 279.587 258.027 278.693 256.76C276.04 253.013 271.68 250.947 267.507 249.04C229.933 231.853 169.347 199.267 126.32 211.44C108.12 216.587 111.36 232.84 111.267 248.867C111.213 257.987 110.947 267.107 110.613 276.213C118.813 287.253 127.827 297.707 137.213 307.733C152.693 324.267 169.413 340.053 189.307 350.893C209.187 361.733 232.68 367.307 254.787 362.413C266.493 359.813 283.2 349.28 291.88 341.04C292.28 333.56 295.68 283.853 298.253 273.253" fill="#7A6763"/>
<path d="M165.453 4.72017C139.36 6.18683 112.893 13.7601 92.8397 30.5068C58.4397 59.2268 49.3997 110.8 62.4397 153.68C75.4797 196.547 106.973 231.587 142.173 259.307C167.666 279.387 197.053 296.92 229.44 298.933C275.68 301.8 317.973 272.56 349.8 238.893C377.52 209.573 401.693 171.933 397.52 131.813C393.96 97.5467 369.8 68.1467 340.706 49.6801C291.933 18.7334 223.106 1.4935 165.453 4.72017" fill="#665651"/>
<path d="M404.4 76.5734C420.947 78.5867 433.506 83.4267 433.28 100.093C433.133 109.853 427.573 118.613 422.2 126.773C411.587 142.88 400.987 158.987 390.387 175.093C389.467 176.48 388.507 177.92 387.067 178.747C384.213 180.413 380.587 179.187 377.72 177.56C368.32 172.2 361.733 162.96 356.746 153.36C346.8 134.24 334.08 99.5601 338.853 77.6534C341.707 64.5468 350.24 59.32 359.96 64.2133C372.653 70.6267 391.547 75 404.4 76.5734" fill="#665651"/>
<path d="M70.3866 1.05347C63.2666 0.000136116 55.3733 1.09344 50.0533 5.96011C43.7466 11.7334 42.5466 21.4135 44.2933 29.7868C46.0399 38.1601 50.2266 45.7868 53.2533 53.7868C56.44 62.1601 58.3599 71.0134 58.9465 79.9601C59.4265 87.2801 59.36 95.5068 64.5866 100.653C69.7733 105.773 78.1866 105.627 85.2266 103.707C105.493 98.1334 120.867 81.0134 130.173 62.1601C136.32 49.7068 145.213 9.45337 128.933 11.2134C104.653 13.84 77.52 2.1068 70.3866 1.05347" fill="#665651"/>
<path d="M142.293 55.9068C136.56 57.0001 130.826 59.7735 127.706 64.7202C125.466 68.2668 124.773 72.6001 124.84 76.8001C125 87.8134 130.053 98.3601 137.187 106.76C143.307 113.933 151.373 119.947 160.68 121.4C170 122.853 180.52 118.787 184.653 110.32C186.947 105.613 187.12 100.16 186.546 94.9601C184.04 72.2935 167.306 51.1868 142.293 55.9068" fill="#514441"/>
<path d="M181.867 115.173C175.533 126.04 161.6 129.707 150.747 123.373C139.88 117.04 136.213 103.093 142.547 92.2401C148.88 81.3868 162.813 77.7068 173.68 84.0535C184.533 90.3868 188.213 104.32 181.867 115.173Z" fill="#231F20"/>
<path d="M163.667 100.707C161.587 104.28 157 105.48 153.427 103.4C149.853 101.307 148.64 96.7201 150.733 93.1468C152.813 89.5734 157.4 88.3735 160.973 90.4535C164.547 92.5335 165.76 97.1201 163.667 100.707Z" fill="white"/>
<path d="M369.427 116.413C373.88 120.213 377.467 125.467 377.72 131.307C377.907 135.493 376.36 139.6 374.227 143.213C368.613 152.693 358.987 159.347 348.627 163.093C339.76 166.293 329.773 167.507 320.973 164.147C312.16 160.773 305.04 152.04 305.653 142.627C306 137.413 308.56 132.573 311.64 128.347C325.067 109.92 350.067 99.9066 369.427 116.413Z" fill="#514441"/>
<path d="M305.653 148.227C305.773 160.8 316.053 170.893 328.613 170.787C341.187 170.68 351.293 160.4 351.187 147.827C351.067 135.253 340.787 125.16 328.227 125.267C315.653 125.373 305.547 135.653 305.653 148.227Z" fill="#231F20"/>
<path d="M317.893 138.427C317.933 142.56 321.32 145.88 325.453 145.853C329.587 145.813 332.92 142.427 332.88 138.293C332.84 134.16 329.453 130.827 325.32 130.867C321.187 130.907 317.867 134.28 317.893 138.427Z" fill="white"/>
<path d="M240.36 175.64C176.773 163.32 126.88 171.867 116.92 197.653C106.947 223.44 158.333 289.267 225.547 298.173C289.227 306.627 330.173 264.48 335.533 238.84C340.907 213.187 317.92 190.68 240.36 175.64" fill="#937C76"/>
<path d="M214.387 164.893C210.867 165.667 207.293 166.907 204.76 169.467C202.24 172.04 201.08 176.227 202.88 179.347C206.813 186.12 218.453 181.52 224.4 186.627C227.48 189.28 228.053 193.733 229.267 197.613C230.96 202.987 234.52 208.04 239.707 210.24C244.893 212.453 251.747 211.04 254.72 206.253C257.547 201.667 261.907 197.56 267.253 197C270.64 196.64 274 197.733 277.387 198.187C280.76 198.64 287.093 198.24 289.307 195.64C291.693 192.84 297.52 185.307 277.053 174.573C259.28 165.267 234.8 160.413 214.387 164.893" fill="#231F20"/>
<path d="M240.4 200.133C240.08 209.987 236.2 219.707 229.533 227C226.08 230.773 222.107 233.987 216.867 234.627C211.56 235.267 206.187 234.013 201.053 232.813C196.64 231.787 194.76 238.587 199.187 239.613C208.64 241.813 219.307 243.72 227.88 237.84C235.64 232.52 241.293 224.187 244.533 215.44C246.333 210.547 247.28 205.333 247.453 200.133C247.6 195.587 240.547 195.6 240.4 200.133" fill="#231F20"/>
<path d="M241.04 203.28C240.747 209.413 240.067 215.667 240.427 221.787C240.733 226.907 242.147 231.827 244.6 236.32C249.227 244.84 257.427 251.4 266.867 253.747C271.267 254.84 273.147 248.04 268.733 246.947C260.827 244.987 254.24 239.533 250.453 232.347C248.533 228.68 247.547 224.653 247.427 220.52C247.28 214.787 247.813 209 248.093 203.28C248.307 198.747 241.253 198.76 241.04 203.28" fill="#231F20"/>
<path d="M53.9732 25.4934C53.8532 24.0401 53.8133 22.5068 54.4533 21.1868C55.4799 19.0801 58.0132 18.0801 60.3465 18.1868C62.6798 18.3068 64.8532 19.32 66.9465 20.3467C77.2265 25.36 87.1999 30.9867 96.7999 37.2133C90.8399 40.3333 85.2266 44.16 80.1199 48.5467C77.0799 51.1467 71.4799 59.8267 67.0932 58.3067C63.0799 56.9067 59.9466 46.68 58.4533 43.04C56.1733 37.4267 54.4665 31.5468 53.9732 25.4934" fill="#937C76"/>
<path d="M412.866 94.4401C415.2 94.8134 417.6 95.56 419.213 97.28C422.72 101.053 420.826 107.12 418.573 111.76C413.76 121.653 408.187 131.173 401.92 140.213C402.987 131.093 400.746 121.693 396.173 113.733C391.826 106.173 385.613 101.24 379.187 95.6935C383.76 94.3068 390.733 95.5601 395.813 95.0001C401.48 94.3868 407.186 93.5201 412.866 94.4401" fill="#937C76"/>
<path d="M209.6 177.667H244.16V168.707H209.6V177.667Z" fill="#979696"/>
<path d="M27.4532 191C29.3199 187.627 72.4665 179.133 95.8398 176.573C118.786 174.067 176.213 176.12 173.293 183.027C169.947 189.333 154.867 179 103.827 181.36C49.2399 183.88 26.6265 194.627 27.4532 191Z" fill="#231F20"/>
<path d="M31.5067 231.853C32.7867 228.213 73.9601 212.76 96.6001 206.4C118.827 200.16 175.8 192.773 174.053 200.067C171.787 206.84 155.227 199.12 105.253 209.813C51.8268 221.253 31.2801 235.56 31.5067 231.853" fill="#231F20"/>
<path d="M42.1201 274.68C42.7068 270.867 80.3068 248.053 101.387 237.627C122.067 227.387 176.693 209.587 176.333 217.08C175.36 224.147 157.64 219.627 110.52 239.373C60.1335 260.507 42.5735 278.36 42.1201 274.68Z" fill="#231F20"/>
<path d="M436.213 287.947C435.947 284.093 400.44 258.147 380.333 245.947C360.6 233.96 307.707 211.56 307.427 219.053C307.787 226.173 325.827 223.187 371.08 246.907C419.48 272.267 435.427 291.573 436.213 287.947Z" fill="#231F20"/>
<path d="M415.267 323.24C415.64 319.4 384.88 287.987 367.04 272.653C349.533 257.6 301.027 226.813 299.52 234.16C298.72 241.253 317 241.267 357.747 272.08C401.333 305.04 413.907 326.693 415.267 323.24Z" fill="#231F20"/>
<path d="M387.533 357.56C388.613 353.867 364.186 317.293 349.506 298.92C335.08 280.893 293.107 241.667 290.267 248.613C288.16 255.44 306.12 258.827 340.48 296.653C377.213 337.107 385.56 360.707 387.533 357.56Z" fill="#231F20"/>
<path d="M142.84 22.0801C140.68 30.8001 142.533 39.9601 144.387 48.7467C139 41.4401 135 33.1201 132.64 24.3467C132.52 33.8801 133.427 43.4134 135.333 52.7467C131.92 46.6401 128.827 40.3468 126.08 33.9202C127.027 41.1202 128.307 48.2934 129.907 55.3734C126.64 50.7868 123.387 46.2001 120.12 41.6001C123.68 56.8934 122.267 73.5734 129.453 87.5334C129.933 83.6934 131.653 79.7468 134.987 77.7868C141.027 74.2402 148.867 78.6002 155.64 76.8535C156.187 76.7202 156.76 76.5201 157.093 76.0668C157.56 75.4401 157.427 74.5868 157.28 73.8268C155.44 64.8001 153.067 55.8268 148.693 47.7068C144.467 39.8534 143.32 30.9067 142.84 22.0801" fill="#514441"/>
<path d="M361.253 103.267C360.453 104.387 360.08 105.813 360.213 107.187C367.973 105.293 375.733 103.4 383.493 101.52C380.906 104.733 378.32 107.947 375.733 111.16C384.066 109.907 392.266 107.853 400.2 105.027C402.346 104.253 404.546 103.387 406.16 101.76C400.573 110.693 393.866 118.907 386.226 126.16C388.48 125.68 390.706 125.013 392.84 124.133C389.4 128.147 385.573 131.84 381.44 135.12C383.386 134.787 385.253 134.067 386.92 133.013C381.187 138.573 375.253 143.933 369.133 149.067C366.253 151.507 363.293 153.907 359.946 155.667C359.666 155.827 359.333 155.973 359.026 155.867C358.546 155.707 358.466 155.053 358.493 154.547C358.84 148.64 362.133 143 361.387 137.12C360.787 132.493 357.733 128.547 354.306 125.373C351.346 122.613 340.413 116.587 343.88 111.613C345.546 109.227 349.186 108.96 351.693 108.08C355.066 106.88 358.293 105.267 361.253 103.267" fill="#514441"/>
<path d="M204.28 16.6134C213.04 24.3867 219.467 34.4668 222.773 45.7068C223.413 47.8801 226.813 46.9601 226.173 44.7734C222.707 32.9868 215.96 22.2935 206.773 14.1202C205.08 12.6268 202.573 15.1067 204.28 16.6134" fill="#937C76"/>
<path d="M228.88 25C232.48 30.9333 234.44 37.6933 234.56 44.64C234.6 46.9066 238.133 46.92 238.093 44.64C237.96 37.0933 235.84 29.6666 231.92 23.2133C230.747 21.2799 227.693 23.04 228.88 25" fill="#937C76"/>
<path d="M231.04 58.0534C231.733 63.1334 232.427 68.2133 233.12 73.28C233.253 74.2267 234.453 74.7468 235.293 74.5201C236.307 74.2401 236.653 73.2933 236.52 72.3467C235.827 67.2667 235.133 62.1868 234.44 57.1201C234.32 56.1734 233.107 55.6533 232.28 55.88C231.253 56.16 230.907 57.1068 231.04 58.0534Z" fill="#937C76"/>
<path d="M243.187 71.92C244.907 79.36 245.92 86.9333 246.213 94.56C246.293 96.8267 249.827 96.84 249.747 94.56C249.44 86.6267 248.387 78.72 246.587 70.9867C246.067 68.7734 242.667 69.7067 243.187 71.92Z" fill="#937C76"/>
<path d="M262.373 90.9202C261.667 98.1069 260.96 105.293 260.253 112.48C260.16 113.427 261.133 114.24 262.013 114.24C263.053 114.24 263.693 113.427 263.787 112.48C264.493 105.293 265.187 98.1069 265.893 90.9202C265.987 89.9735 265.027 89.1602 264.133 89.1602C263.107 89.1602 262.467 89.9735 262.373 90.9202" fill="#937C76"/>
<path d="M263.973 70.6801C264.746 62.9467 266.28 55.3067 268.493 47.8401C269.133 45.6667 265.733 44.7334 265.08 46.9067C262.786 54.6667 261.253 62.6267 260.44 70.6801C260.346 71.6401 261.32 72.4535 262.213 72.4535C263.24 72.4535 263.88 71.6401 263.973 70.6801Z" fill="#937C76"/>
<path d="M285.213 74.1201C288.547 68.4001 291.88 62.6801 295.227 56.9601C296.373 55.0001 293.32 53.2268 292.173 55.1868C288.84 60.9068 285.507 66.6267 282.173 72.3467C281.027 74.3067 284.067 76.0801 285.213 74.1201Z" fill="#937C76"/>
<path d="M312.506 71.5334C317.053 66.52 321.6 61.4933 326.16 56.48C326.8 55.7733 326.853 54.68 326.16 53.9734C325.507 53.3334 324.307 53.2667 323.667 53.9734C319.107 59 314.56 64.0267 310.013 69.04C309.373 69.7467 309.32 70.84 310.013 71.5334C310.666 72.1867 311.866 72.24 312.506 71.5334" fill="#937C76"/>
<path d="M286.693 109.4C287.907 103.213 290.266 97.36 293.706 92.0667C294.933 90.1601 291.893 88.3867 290.653 90.28C287.08 95.8133 284.56 102.013 283.293 108.467C283.107 109.4 283.56 110.373 284.52 110.627C285.387 110.867 286.507 110.333 286.693 109.4Z" fill="#937C76"/>
<path d="M267.053 140.987C268.333 137.56 269.24 134.013 269.746 130.387C269.88 129.467 269.533 128.44 268.52 128.213C267.693 128.027 266.48 128.467 266.346 129.44C265.84 133.067 264.933 136.627 263.653 140.053C263.32 140.92 264.013 142.027 264.88 142.227C265.88 142.453 266.706 141.92 267.053 140.987" fill="#937C76"/>
<path d="M246.546 133.413C247.213 122.613 246.573 111.8 244.72 101.133C244.32 98.9068 240.92 99.8534 241.306 102.067C243.12 112.413 243.667 122.933 243.027 133.413C242.893 135.68 246.413 135.667 246.546 133.413" fill="#937C76"/>
<path d="M234.56 148.013C232.84 142.04 232.72 135.733 234.24 129.693C234.786 127.493 231.386 126.547 230.84 128.76C229.173 135.387 229.28 142.373 231.16 148.96C231.773 151.133 235.187 150.213 234.56 148.013Z" fill="#937C76"/>
<path d="M248.413 156.08C249.426 152.013 250.44 147.947 251.453 143.88C251.68 142.947 251.16 141.96 250.213 141.707C249.32 141.453 248.28 142.013 248.053 142.947C247.04 147 246.026 151.08 245.013 155.147C244.786 156.067 245.32 157.053 246.253 157.307C247.147 157.56 248.186 157 248.413 156.08Z" fill="#937C76"/>
<path d="M276.667 160.147C278.96 155.147 281.253 150.147 283.547 145.147C283.947 144.28 283.787 143.253 282.907 142.733C282.147 142.293 280.893 142.493 280.493 143.373C278.2 148.36 275.92 153.36 273.627 158.36C273.227 159.227 273.373 160.267 274.253 160.773C275.013 161.227 276.267 161.013 276.667 160.147" fill="#937C76"/>
<path d="M298.76 116.013C301.227 111.787 303.693 107.56 306.16 103.333C306.64 102.507 306.347 101.4 305.533 100.92C304.707 100.44 303.6 100.733 303.12 101.56C300.653 105.787 298.187 110.013 295.72 114.24C295.24 115.053 295.533 116.173 296.36 116.653C297.173 117.133 298.28 116.84 298.76 116.013" fill="#937C76"/>
<path d="M264.987 33.3334C266.347 30.1468 267.027 26.7201 266.8 23.2401C266.747 22.3201 266.027 21.44 265.04 21.48C264.133 21.52 263.213 22.2534 263.267 23.2401C263.32 24.0267 263.333 24.8134 263.293 25.6001C263.28 25.9334 263.253 26.2668 263.213 26.6001C263.213 26.6668 263.12 27.3467 263.173 26.9734C263.147 27.1334 263.12 27.3068 263.093 27.4668C262.973 28.1868 262.813 28.8934 262.613 29.6001C262.507 29.9734 262.387 30.3468 262.253 30.7202C262.2 30.8802 262.133 31.0401 262.08 31.2001C262.053 31.2534 261.813 31.8668 261.947 31.5601C261.587 32.4001 261.653 33.4801 262.573 33.9734C263.333 34.3734 264.6 34.2401 264.987 33.3334" fill="#937C76"/>
<path d="M187.547 550.387C197.347 548.24 205.987 538.267 204.867 528.293C203.773 518.653 193.64 512.893 184.387 509.96C145.48 497.64 77.9199 500.227 56.7466 542.12L68.4 584.293C114.053 554.24 153.507 557.827 187.547 550.387Z" fill="#514441"/>
<path d="M73.6667 418.867C59.6133 380.013 46.8534 332 46.8534 332C39.1467 331.333 40.2533 341.973 38.5066 349.52C33.2 372.507 30.48 396.48 34.5733 419.72C36.44 430.267 39.9067 440.933 47.1867 448.787C54.7334 456.933 132.027 460.893 119.92 456.027C96.76 446.72 79.9067 436.093 73.6667 418.867Z" fill="#514441"/>
<path d="M181.093 531.733C196.467 533.56 211.72 528.533 226.706 524.64C247.506 519.253 268.84 515.973 290.293 514.867C283.453 507.093 272.786 502.853 262.48 503.827C272.04 499.733 282.52 497.813 292.907 498.213C283.573 491.147 271.76 487.427 260.053 487.853C267.04 484.107 275.173 482.507 283.067 483.307C270.347 476.493 255.253 475.8 240.84 476.707C226.44 477.627 212.026 480 197.64 478.72C183.053 477.427 136.72 465.213 137.267 492.587C137.667 512.84 163.293 529.613 181.093 531.733" fill="#3F3532"/>
<path d="M361.96 544.867C354.867 558.627 342.16 568.44 330.547 578.68C314.427 592.893 299.76 608.733 286.827 625.893C284.213 615.867 286.68 604.653 293.267 596.653C284.52 602.293 277.053 609.893 271.573 618.733C270.947 607.027 274.48 595.16 281.4 585.707C274.373 589.4 268.48 595.227 264.72 602.227C266.213 587.867 274.093 574.973 282.92 563.547C291.747 552.12 301.787 541.507 308.787 528.88C315.88 516.067 331.72 470.853 354.08 486.64C370.627 498.307 370.173 528.933 361.96 544.867Z" fill="#3F3532"/>
<path d="M872.319 436.386C862.065 424.786 847.344 418.386 833.559 411.306C814.463 401.479 796.365 389.719 779.617 376.266C779.541 386.612 784.683 396.88 793.018 403.026C783.163 399.706 774.06 394.172 766.569 386.945C768.841 398.439 775.181 409.079 784.207 416.559C776.486 414.693 769.348 410.479 763.99 404.626C768.949 418.185 779.756 428.746 791.115 437.652C802.474 446.559 814.801 454.398 824.686 464.92C834.71 475.599 861.144 515.559 878.966 494.772C892.137 479.4 884.185 449.825 872.319 436.386" fill="#3F3532"/>
<path d="M6.50651 427.56C2.26651 447.547 -1.05341 468.187 2.45326 488.307C5.97326 508.427 17.4266 528.147 35.9199 536.813C50.2666 543.533 66.8266 542.92 82.6533 542.187C114.053 540.72 145.467 539.253 176.867 537.773C187.147 537.293 198.533 536.32 205.52 528.787C210.653 523.267 212.227 515.173 211.453 507.68C208.893 482.853 183.987 466.013 159.627 460.547C135.28 455.067 109.693 457.293 85.3199 451.88C77.5733 450.16 69.7466 447.533 63.8533 442.213C54.3066 433.613 51.6799 419.88 50.0665 407.133C45.8665 373.907 47.2665 341.373 46.6665 308.107C36.6799 309.64 27.3066 351.76 24.0533 361.84C17.0799 383.427 11.2132 405.373 6.50651 427.56Z" fill="#665651"/>
<path d="M312.667 524.48C313.493 540.547 326.28 554.413 341.507 559.6C349.84 562.427 359.507 562.893 367.013 558.32C373.667 554.28 377.613 547.027 380.653 539.867C387.04 524.813 390.707 507.24 383.973 492.333C378.867 481 350.427 452.947 336.587 460.747C330.173 464.36 326.693 482.693 323.827 489.053C318.693 500.427 312 511.507 312.667 524.48" fill="#665651"/>
<path d="M341.697 897.199C333.984 887.812 327.033 877.28 324.838 865.333C321.252 845.879 331.292 825.772 346.307 812.892C361.322 800.012 380.625 793.279 399.841 788.612C453.858 775.478 511.3 776.665 564.731 792.011C542.018 773.438 518.676 758.452 523.476 729.519C523.739 727.905 536.398 707.652 537.13 709.105C542.823 720.305 539.94 708.439 541.403 708.612C551.779 709.879 562.156 711.145 572.532 712.413C575.751 712.812 579.088 713.24 581.854 714.933C585.118 716.906 587.166 720.318 589.274 723.493C624.222 775.958 699.971 784.385 743.056 830.413C755.818 844.053 765.301 860.747 770.482 878.692C773.965 890.773 775.472 903.826 771.77 915.839C763.179 943.666 730.997 956.012 702.328 961.119C646.13 971.146 588.82 967.973 532.052 967.292C483.523 966.707 447.272 972.826 403.953 948.213C380.508 934.892 358.878 918.08 341.697 897.199" fill="#665651"/>
<path d="M535.083 761.734C505.682 726.214 488.809 678.601 497.194 633.254C498.541 642.894 502.959 652.081 509.636 659.16C505.522 644.613 505.609 628.895 509.896 614.388C518.514 628.841 527.132 643.281 535.749 657.721C534.113 648.414 534.764 638.707 537.618 629.707C550.841 668.841 572.146 705.481 601.33 734.72C630.499 763.947 667.692 785.561 708.086 794.2C718.616 796.454 729.826 798.041 738.299 804.667C746.8 811.293 750.783 825.147 743.223 832.814C740.196 835.88 735.938 837.387 731.781 838.587C659.567 859.414 580.474 816.613 535.083 761.734" fill="#3F3532"/>
<path d="M630.315 860.642C650.479 873.401 675.238 876.441 699.112 876.895C708.781 877.081 718.971 876.748 727.234 871.721C735.714 866.562 740.715 857.282 744.745 848.215C749.224 838.121 752.804 825.801 746.716 816.615C742.382 810.068 734.337 807.148 726.712 805.322C712.274 801.854 697.257 800.882 682.486 802.269C671.266 803.334 647.971 805.175 639.824 814.015C633.475 820.922 639.201 829.788 634.911 837.136C632.04 842.028 624.691 841.561 622.633 846.442C620.038 852.642 625.59 857.654 630.315 860.642" fill="#3F3532"/>
<path d="M834.132 493.866C832.728 501.745 829.41 509.558 830.66 517.465C832.064 526.318 838.947 533.319 846.431 538.238C854.038 543.252 862.603 546.798 871.506 548.639C874.731 549.305 878.111 549.745 881.29 548.88C887.323 547.225 891.15 541.358 893.82 535.692C903.171 515.852 905.285 492.278 897.523 471.759C895.24 465.665 892.107 459.919 888.697 454.371C882.972 445.051 876.105 436.039 866.692 430.478C857.279 424.905 844.826 423.412 835.505 429.132C825.722 435.118 824.025 446.745 827.188 456.931C831.185 469.772 836.632 479.811 834.132 493.866" fill="#3F3532"/>
<path d="M91.2934 588.187C98.9467 608.68 108.92 628.253 121.04 646.453C122.227 648.227 125.107 646.56 123.92 644.773C111.96 626.813 102.067 607.52 94.5066 587.307C93.76 585.307 90.5467 586.173 91.2934 588.187Z" fill="#937C76"/>
<path d="M113.48 657.307C122.533 670.68 130.973 684.467 138.787 698.6C139.827 700.48 142.706 698.8 141.666 696.92C133.853 682.787 125.413 669 116.36 655.627C115.16 653.867 112.28 655.533 113.48 657.307Z" fill="#937C76"/>
<path d="M142.92 676.813C146.387 682.32 150.387 687.48 154.853 692.213C156.333 693.773 158.693 691.413 157.213 689.853C152.933 685.32 149.12 680.4 145.8 675.133C144.653 673.32 141.773 674.987 142.92 676.813" fill="#937C76"/>
<path d="M161.12 739.493C173.987 755.413 187.973 770.4 202.987 784.293C207.307 788.28 211.693 792.173 216.173 795.987C217.8 797.36 220.16 795.013 218.533 793.627C202.947 780.36 188.333 765.987 174.827 750.613C170.96 746.2 167.173 741.707 163.48 737.147C162.133 735.467 159.787 737.84 161.12 739.493Z" fill="#937C76"/>
<path d="M240.84 781.347C252.067 788.587 262.387 797.107 271.64 806.733C273.12 808.293 275.48 805.933 274 804.387C264.56 794.547 253.973 785.853 242.533 778.467C240.72 777.293 239.053 780.187 240.84 781.347Z" fill="#937C76"/>
<path d="M252.733 849.547C262.066 854.12 271.4 858.693 280.733 863.253C282.653 864.2 284.346 861.32 282.413 860.387C273.08 855.813 263.746 851.24 254.413 846.667C252.493 845.72 250.8 848.6 252.733 849.547Z" fill="#937C76"/>
<path d="M297.8 882.227L298.08 882.253C297.933 882.227 297.773 882.213 297.627 882.187C298.027 882.253 298.413 882.36 298.787 882.507C298.653 882.453 298.52 882.4 298.387 882.347C298.773 882.507 299.146 882.72 299.48 882.973L299.133 882.72C299.44 882.947 299.706 883.227 299.946 883.52L299.693 883.187C299.787 883.32 299.88 883.453 299.973 883.587C300.2 883.96 300.547 884.24 300.96 884.36C301.36 884.467 301.893 884.413 302.253 884.187C302.6 883.96 302.92 883.613 303.013 883.2C303.106 882.76 303.08 882.293 302.853 881.907C302.307 881.04 301.573 880.32 300.706 879.787C299.826 879.24 298.826 878.973 297.8 878.893C297.4 878.853 296.907 879.093 296.627 879.373C296.333 879.667 296.12 880.133 296.133 880.56C296.16 880.987 296.293 881.427 296.627 881.733C296.96 882.04 297.346 882.187 297.8 882.227" fill="#937C76"/>
<path d="M27.8534 500.733C20.9734 492.92 16.76 482.933 15.96 472.547C15.8 470.427 12.4667 470.413 12.6267 472.547C13.4933 483.853 18 494.573 25.4933 503.093C26.92 504.707 29.2667 502.333 27.8534 500.733" fill="#937C76"/>
<path d="M24.9866 447.733C22.48 436.813 21.3999 425.653 21.7065 414.44C21.7732 412.293 18.4399 412.293 18.3732 414.44C18.0532 425.933 19.1999 437.427 21.7732 448.627C22.2532 450.72 25.4666 449.827 24.9866 447.733Z" fill="#937C76"/>
<path d="M63.1333 325.32C65.12 315.813 67.9466 306.493 71.5733 297.48C72.3866 295.493 69.16 294.627 68.36 296.6C64.7333 305.613 61.9067 314.92 59.92 324.44C59.4934 326.533 62.7066 327.427 63.1333 325.32Z" fill="#937C76"/>
<path d="M82.2399 308C84.5199 298.307 86.7867 288.6 89.0534 278.907C89.5467 276.827 86.3333 275.933 85.8399 278.027C83.5733 287.72 81.3067 297.413 79.0267 307.12C78.5333 309.2 81.7466 310.093 82.2399 308Z" fill="#937C76"/>
</svg>
