<svg width="1791" height="777" viewBox="0 0 1791 777" fill="none" xmlns="http://www.w3.org/2000/svg">
<path d="M1126.21 650.744C1124.16 669.594 1114 686.394 1105.25 703.195C1093.12 726.522 1083.35 751.069 1076.15 776.348C1068.75 766.056 1066.63 752.175 1070.61 740.144C1063.11 750.429 1057.94 762.396 1055.57 774.9C1049.71 761.824 1048.51 746.708 1052.24 732.87C1045.85 740.186 1041.7 749.437 1040.48 759.073C1035.86 742.029 1039.16 723.841 1044.21 706.921C1049.26 689.985 1056.03 673.438 1058.47 655.943C1060.93 638.194 1059.08 579.596 1091.56 587.759C1115.6 593.805 1128.57 628.947 1126.21 650.744" fill="#3F3532"/>
<path d="M494.765 600.012C508.997 593.887 525.045 594.383 540.53 593.86C561.988 593.116 583.391 590.212 604.27 585.175C599.907 594.575 590.878 601.664 580.72 603.673C591.057 604.871 601.655 603.742 611.51 600.398C604.546 609.84 594.278 616.763 582.923 619.667C590.713 621.277 598.944 620.506 606.294 617.506C596.026 627.65 581.753 632.591 567.686 635.812C553.605 639.019 539.112 640.836 525.679 646.135C512.052 651.516 471.091 676.374 463.851 649.975C458.497 630.444 478.303 607.087 494.765 600.012" fill="#3F3532"/>
<path d="M1104.46 254.452C1066.44 267.948 1037.75 301.868 1024.84 340.084C1011.93 378.3 1013.51 420.275 1023.07 459.458C1033.68 503.008 1054.03 545.77 1049.79 590.376C1047.97 609.529 1041.63 628.035 1040.09 647.201C1039.11 659.492 1040.77 673.275 1049.99 681.459C1055.04 685.927 1061.73 688.112 1068.41 689.063C1091.62 692.371 1116.31 680.745 1128.55 660.727C1143.48 636.323 1139.93 603.711 1155.78 579.887C1172.92 554.111 1206.86 546.522 1232.12 528.604C1269.33 502.184 1285.66 452.727 1280.3 407.423C1270.89 327.751 1196.21 221.874 1104.46 254.452" fill="#514441"/>
<path d="M351.395 607.439C373.921 626.777 399.008 643.715 427.068 653.357C455.142 663.013 486.511 664.947 514.411 654.784C522.707 651.757 530.975 647.409 536.03 640.141C541.071 632.872 541.898 622.096 535.923 615.574C528.535 607.492 515.731 609.346 504.809 608.492C484.63 606.919 466.665 593.648 455.462 576.804C444.246 559.946 438.978 539.834 435.857 519.843C433.897 507.306 431.936 493.236 421.88 485.5C414.878 480.099 405.396 479.139 396.594 480.006C371.841 482.406 339.419 504.159 325.242 525.164C305.263 554.825 328.816 588.074 351.395 607.439" fill="#514441"/>
<path d="M584.979 646.548C600.295 648.795 613.72 657.612 627.187 665.278C645.845 675.887 665.612 684.618 686.034 691.274C677.387 697.005 665.996 698.313 656.283 694.687C664.46 701.129 674.074 705.722 684.228 708.026C673.349 712.421 660.976 712.947 649.799 709.477C655.572 714.909 662.996 718.578 670.831 719.872C656.767 723.129 642.02 719.872 628.339 715.236C614.672 710.6 601.362 704.556 587.155 702.039C572.72 699.494 524.824 699.223 532.475 672.929C538.135 653.488 567.245 643.96 584.979 646.548" fill="#3F3532"/>
<path d="M1438.08 416.397C1456.83 419.14 1473.23 429.936 1489.71 439.302C1512.55 452.296 1536.73 462.972 1561.71 471.113C1551.15 478.118 1537.2 479.725 1525.33 475.3C1535.32 483.171 1547.1 488.788 1559.5 491.616C1546.21 496.994 1531.07 497.629 1517.37 493.385C1524.45 500.041 1533.54 504.53 1543.12 506.103C1525.92 510.098 1507.85 506.109 1491.14 500.437C1474.41 494.763 1458.14 487.37 1440.74 484.294C1423.09 481.169 1364.47 480.838 1373.83 448.687C1380.77 424.881 1416.39 413.223 1438.08 416.397" fill="#3F3532"/>
<path d="M411.751 365.095C481.777 352.277 552.395 355.513 622.78 350.677C728.438 343.395 781.474 308.428 882.35 265.495C930.963 244.82 978.714 220.064 1028.82 206.437C1071.55 194.823 1115.58 191.533 1158.46 196.711C1196.54 201.331 1235.78 214.06 1260.65 246.636C1298.46 296.113 1290.4 378.956 1255.44 435.696C1220.47 492.435 1160.53 617.623 895.241 620.457C799.956 621.474 706.81 598.848 612.73 586.228C518.668 573.625 420.65 570.569 328.889 606.795C302.371 617.265 272.024 630.668 248.976 614.59C239.519 608 232.939 597.266 226.611 586.821C215.357 568.25 203.851 548.959 200.345 526.252C185.728 431.453 354.203 375.63 411.751 365.095" fill="#665651"/>
<path d="M887.975 621.084C1074.93 619.079 1164.61 561.16 1210.72 504.411C1208.28 505.945 1201.23 502.736 1199.09 504.323C1166.13 528.739 1125.42 540.11 1085.15 547.941C1001.41 564.23 915.06 567.195 830.371 556.678C738.148 545.238 648.245 518.014 555.674 509.852C526.549 507.288 497.18 506.905 468.055 509.364C416.747 513.706 361.566 526.612 318.594 556.312C297.875 570.63 293.167 593.791 297.928 616.445C305.968 613.707 313.955 610.446 321.611 607.429C413.381 571.188 511.393 574.24 605.465 586.867C699.536 599.476 792.683 622.096 887.975 621.084" fill="#937C76"/>
<path d="M438.127 564.59C449.361 592.071 463.937 618.578 484.527 639.977C505.103 661.361 532.337 696.883 561.79 700.568C570.571 701.664 590.942 687.938 595.449 679.691C599.709 671.923 600.97 664.526 598.641 655.991C595.737 645.443 583.49 641.251 574.174 635.511C556.941 624.894 547.009 604.893 544.721 584.796C542.419 564.686 546.913 544.384 553.255 525.164C557.228 513.108 561.9 499.697 556.488 488.217C552.721 480.23 544.707 475.052 536.488 471.792C513.363 462.641 474.581 467.216 452.402 479.449C421.072 496.724 426.88 537.041 438.127 564.59" fill="#665651"/>
<path d="M1018.61 469.77C1035.6 506.351 1072.03 531.754 1111.28 541.042C1150.53 550.332 1192.19 544.851 1230.3 531.686C1272.68 517.055 1313.33 492.806 1358.17 492.882C1377.4 492.901 1396.42 497.485 1415.63 497.239C1427.96 497.068 1441.54 494.132 1448.82 484.186C1452.81 478.75 1454.35 471.873 1454.67 465.148C1455.81 441.715 1441.92 418.225 1420.86 407.901C1395.19 395.322 1363.04 401.876 1337.83 388.332C1310.57 373.669 1280.88 270.105 1260.67 246.634C1230.91 212.043 1199.12 270.863 1154.51 280.41C1076.06 297.213 977.613 381.436 1018.61 469.77" fill="#665651"/>
<path d="M1155.65 157.315C1194.31 134.779 1236.68 118.649 1280.53 109.744C1405.6 84.3523 1550.12 121.169 1665.8 67.2773C1701.82 50.4964 1726.2 21.8072 1761.97 4.52219C1770.7 0.300705 1783.16 -2.57666 1788.49 5.53026C1791.39 9.96177 1790.57 15.8214 1789.25 20.967C1778.2 64.652 1725.55 97.3948 1684.53 116.045C1643.51 134.716 1614.19 141.437 1569.35 145.721C1524.49 149.985 1419.63 162.922 1375 169.181C1227.08 189.994 1259.25 243.361 1182.57 274.529C1135.63 293.578 1119.76 313.192 1070.48 301.37C1036.46 293.2 997.438 254.976 1035.89 226.707C1053.66 213.643 1078.38 206.313 1097.49 194.342C1116.96 182.139 1135.76 168.887 1155.65 157.315" fill="#665651"/>
<path d="M1080.5 518.909C1067.86 508.967 1058.19 495.716 1049.91 481.928C1030.18 449.087 1018.56 411.43 1016.31 373.185C1010.66 408.798 1014.15 445.813 1026.3 479.746C1033.37 499.475 1043.56 518.459 1058.66 532.974C1073.75 547.507 1105.45 576.607 1126.37 575.931C1135.34 575.654 1186.98 551.179 1191.38 541.999C1161.17 543.592 1119.13 549.291 1080.5 518.909" fill="#514441"/>
<path d="M559.362 492.19C559.444 474.85 552.385 456.503 537.575 447.473C550.182 445.787 563.469 450.506 572.201 459.768C580.918 469.029 584.822 482.589 582.374 495.073C579.49 509.762 568.855 521.485 560.817 534.12C551.896 548.155 545.912 564.053 543.368 580.496C545.653 565.821 540.716 553.473 547.217 538.676C553.786 523.756 559.294 508.823 559.362 492.19" fill="#514441"/>
<path d="M374.133 463.76C381.307 470.534 386.56 478.534 390.76 486.76C402.627 509.96 406.373 536.174 397.507 559.16C388.64 582.134 366.227 601.24 337.68 606.24C330.827 607.44 323.573 607.84 316.587 606.334C302.493 603.294 291.813 593.174 283.613 582.934C262.827 556.96 251.147 525.387 256.52 495.8C260.76 472.48 276.84 449.72 301.307 438.04C322.253 428.04 359.253 449.72 374.133 463.76Z" fill="#514441"/>
<path d="M335.667 609.733C337.107 609.8 407.827 585.16 407.827 585.16C407.827 585.16 408.667 564.6 407.12 550.827C405.853 539.707 401.44 519.427 401.44 519.427C401.44 519.427 379.12 521.773 366.88 526.973C354.653 532.173 340.346 540.973 340.346 540.973L335.667 609.733" fill="#7A6763"/>
<path d="M72.1998 491.854C56.7465 511.107 45.3465 534.507 44.4398 559.187C42.9065 601.507 73.4532 640.453 111.84 658.373C150.213 676.28 194.733 676.28 236.467 669.04C266.68 663.8 297.573 654.227 319.44 632.733C350.666 602.027 356.84 553.827 353.28 510.187C350.173 472.174 338.986 431.414 308.146 408.987C281.813 389.84 245.88 388.254 214.52 397.054C161.947 411.787 106.347 449.28 72.1998 491.854" fill="#665651"/>
<path d="M273.667 369.267C285.533 358.893 296.866 353.12 308.44 363.813C315.213 370.093 317.853 379.533 320.2 388.453C324.813 406.093 329.44 423.72 334.053 441.347C334.453 442.88 334.853 444.453 334.546 446C333.906 449.04 330.747 450.827 327.8 451.813C318.093 455.027 307.44 453.827 297.533 451.28C277.813 446.187 245.386 433.213 233.013 416.027C225.6 405.733 227.307 396.44 236.893 392.693C249.427 387.813 264.44 377.307 273.667 369.267Z" fill="#665651"/>
<path d="M9.55986 556.36C4.31986 560.707 0.106477 566.933 0.173144 573.747C0.23981 581.827 6.27978 588.8 13.2798 592.854C20.2664 596.92 28.2665 598.8 35.8131 601.72C43.7064 604.774 51.1465 609.014 57.7998 614.254C63.2532 618.534 68.9998 623.774 75.9065 623.36C82.7865 622.947 88.0132 616.947 91.0932 610.773C99.9865 593 97.6664 571.387 90.2798 552.933C85.4131 540.747 62.7332 509.067 53.6932 521.627C40.1999 540.36 14.8132 552.014 9.55986 556.36" fill="#665651"/>
<path d="M93.5598 540.467C90.6932 545.187 89.0265 550.973 90.5332 556.28C91.6132 560.093 94.2132 563.32 97.1998 565.933C105.053 572.773 115.666 575.893 126.08 576.173C134.986 576.413 144.306 574.533 151.2 568.907C158.106 563.28 161.893 553.32 158.56 545.053C156.707 540.48 152.973 536.907 148.96 534.027C131.44 521.48 106.027 519.893 93.5598 540.467" fill="#514441"/>
<path d="M160.226 550.08C163.853 561.4 157.626 573.507 146.306 577.147C135 580.773 122.88 574.547 119.253 563.24C115.613 551.92 121.84 539.813 133.16 536.173C144.466 532.547 156.586 538.773 160.226 550.08Z" fill="#231F20"/>
<path d="M138.546 553.733C139.746 557.453 137.693 561.44 133.973 562.64C130.24 563.84 126.253 561.787 125.067 558.067C123.867 554.333 125.92 550.347 129.64 549.16C133.36 547.96 137.346 550.013 138.546 553.733Z" fill="white"/>
<path d="M279.573 419.013C285.053 418.28 291.013 419.08 295.28 422.587C298.346 425.107 300.253 428.787 301.44 432.573C304.573 442.507 303.173 453.48 299.253 463.133C295.893 471.387 290.44 479.173 282.506 483.227C274.586 487.293 263.946 486.773 257.72 480.413C254.266 476.867 252.48 472.014 251.453 467.187C246.986 446.107 255.733 422.2 279.573 419.013Z" fill="#514441"/>
<path d="M261.653 483.947C270.56 491.813 284.16 490.96 292.027 482.054C299.88 473.147 299.04 459.547 290.133 451.694C281.227 443.827 267.627 444.667 259.76 453.573C251.907 462.48 252.747 476.08 261.653 483.947" fill="#231F20"/>
<path d="M262.493 469.147C265.427 471.733 269.893 471.453 272.493 468.52C275.08 465.587 274.8 461.12 271.867 458.533C268.933 455.947 264.467 456.213 261.867 459.147C259.28 462.08 259.56 466.56 262.493 469.147Z" fill="white"/>
<path d="M239.667 547.173C190.84 584.08 165.333 624.56 177.16 647.853C189 671.147 267.733 676.613 316.453 634.987C362.627 595.56 358.867 540.16 344.227 520.173C329.587 500.2 299.24 502.133 239.667 547.173Z" fill="#937C76"/>
<path d="M215.707 558.64C214.027 561.6 212.64 564.893 212.853 568.293C213.053 571.693 215.267 575.147 218.6 575.854C225.853 577.374 229.96 566.28 237.307 565.333C241.12 564.84 244.613 567.24 248.107 568.84C252.96 571.053 258.76 571.747 263.587 569.48C268.413 567.227 271.76 561.52 270.253 556.413C268.827 551.533 268.693 545.867 271.68 541.747C273.573 539.147 276.453 537.48 278.907 535.387C281.373 533.294 285.08 528.587 284.653 525.4C284.187 521.947 282.573 513.08 262.107 520.694C244.333 527.307 225.453 541.453 215.707 558.64" fill="#231F20"/>
<path d="M256.787 562.48C263.787 569.2 268.347 578.453 269.027 588.173C269.373 593.133 268.8 597.76 265.68 601.76C262.827 605.44 258.933 608.2 255.16 610.84C253.68 611.88 253 613.76 253.96 615.413C254.813 616.867 257.04 617.64 258.52 616.6C263.173 613.347 267.787 609.973 271.227 605.413C274.92 600.533 276.08 594.747 275.733 588.72C275.053 577.053 269.933 565.867 261.493 557.773C258.4 554.8 253.68 559.507 256.787 562.48" fill="#231F20"/>
<path d="M259.4 564.04C266.826 571.36 273.8 579.68 284.32 582.36C293.386 584.667 303.426 583.213 311.213 577.947C314.746 575.56 311.413 569.787 307.853 572.187C301.346 576.587 293.173 577.867 285.613 575.8C276.6 573.347 270.52 565.64 264.12 559.32C261.066 556.307 256.346 561.013 259.4 564.04" fill="#231F20"/>
<path d="M16.3732 583.333C15.2666 582.493 14.1733 581.56 13.6533 580.28C12.8133 578.24 13.7066 575.813 15.2666 574.24C16.8133 572.68 18.9065 571.787 20.9465 570.96C30.9732 566.907 41.2266 563.453 51.6666 560.627C50.0933 566.8 49.2399 573.16 49.0933 579.52C48.9999 583.293 51.5599 592.72 47.7333 594.84C44.2133 596.787 35.0399 592.52 31.5333 591.267C26.1466 589.333 20.9466 586.813 16.3732 583.333" fill="#937C76"/>
<path d="M291.573 374.6C293.307 373.2 295.347 371.973 297.573 371.933C302.44 371.84 305.52 377.013 307.347 381.52C311.267 391.16 314.44 401.093 316.827 411.213C311.093 404.693 303.08 400.333 294.587 398.52C286.533 396.8 279.133 398.053 271.173 399.067C273.093 394.973 278.373 390.867 281.2 386.933C284.333 382.56 287.333 378.013 291.573 374.6Z" fill="#937C76"/>
<path d="M223.44 566.573C220.467 566.56 218.987 560.653 222.28 556.76C226.32 551.973 233.453 545.173 239.56 543.707C239.813 543.64 240.08 543.587 240.347 543.587C240.613 543.587 240.867 543.64 241.093 543.787C242.053 544.467 241.24 545.96 240.4 546.8C235.48 551.72 231.16 557.227 227.56 563.173C226.08 565.613 224.64 566.573 223.44 566.573Z" fill="#979696"/>
<path d="M115.973 706.547C114.773 703.107 136.053 667.4 149.027 649.347C161.76 631.627 199.48 592.573 202.493 598.987C204.813 605.32 188.027 609.387 157.44 646.76C124.72 686.72 117.987 709.413 115.973 706.547" fill="#231F20"/>
<path d="M147.253 729.507C145.507 726.307 160.64 687.587 170.48 667.653C180.133 648.093 210.933 603.373 214.96 609.213C218.293 615.08 202.387 621.84 178.347 663.72C152.627 708.52 149.707 732 147.253 729.507Z" fill="#231F20"/>
<path d="M184.053 749.094C181.747 746.28 189.467 705.427 195.453 684.027C201.32 663.014 223.32 613.36 228.36 618.347C232.707 623.507 218.347 633.093 202.453 678.707C185.467 727.48 186.933 751.094 184.053 749.094Z" fill="#231F20"/>
<path d="M442.347 480.427C439.48 478.173 398.8 486.747 377.52 493.173C356.64 499.48 307.467 522.507 312.56 527.44C317.8 531.693 327.093 517.12 372.347 500.293C420.76 482.293 444.413 483.267 442.347 480.427" fill="#231F20"/>
<path d="M453.933 517.453C451.467 514.76 409.947 516.547 387.893 519.4C366.267 522.187 313.973 536.84 318.187 542.547C322.667 547.6 334.227 534.747 381.627 525.573C432.333 515.747 455.507 520.587 453.933 517.453" fill="#231F20"/>
<path d="M460.546 558.627C458.626 555.533 417.48 549.6 395.293 548.32C373.507 547.067 319.413 551.8 322.506 558.173C325.96 563.973 339.693 553.48 387.987 553.227C439.64 552.96 461.506 562 460.546 558.627" fill="#231F20"/>
<path d="M70.12 518.707C74.88 525.733 82.4932 530.227 89.8399 534.48C81.2932 533.64 72.9199 531.2 65.2666 527.32C71.8799 533.413 79.16 538.813 86.92 543.36C80.48 541.893 74.1067 540.093 67.8533 537.973C73.5067 541.853 79.36 545.48 85.36 548.84C80.0666 548.227 74.7733 547.627 69.4933 547.013C82.48 554.173 93.3199 565.707 107.667 569.467C105.267 566.707 103.587 563 104.307 559.413C105.627 552.933 113.653 550.173 116.707 544.32C116.96 543.84 117.173 543.32 117.067 542.8C116.933 542.08 116.24 541.613 115.613 541.253C108.107 536.84 100.293 532.84 91.8132 530.787C83.6399 528.8 76.6267 523.947 70.12 518.707" fill="#514441"/>
<path d="M265.173 416.453C265.453 417.72 266.213 418.88 267.267 419.653C270.84 413.013 274.413 406.36 277.987 399.72C278.613 403.56 279.24 407.413 279.867 411.253C284.253 404.613 287.987 397.547 291 390.187C291.827 388.187 292.6 386.093 292.48 383.933C295.227 393.493 296.76 403.413 297.04 413.36C298.133 411.48 299.053 409.493 299.8 407.44C300.44 412.387 300.613 417.4 300.32 422.387C301.307 420.813 301.987 419.04 302.307 417.2C302.587 424.747 302.6 432.307 302.347 439.853C302.24 443.413 302.053 447.013 301.187 450.48C301.107 450.773 301.013 451.093 300.747 451.253C300.32 451.493 299.813 451.133 299.467 450.787C295.533 446.813 293.653 440.933 289.053 437.747C285.427 435.24 280.72 434.893 276.32 435.293C272.507 435.64 261.373 439.52 260.053 433.947C259.427 431.267 261.547 428.547 262.507 426.213C263.8 423.08 264.707 419.8 265.173 416.453" fill="#514441"/>
<path d="M105 472.067C115.987 470.84 127.133 472.627 137.12 477.387C139.053 478.307 140.747 475.44 138.8 474.507C128.293 469.507 116.587 467.44 105 468.734C102.893 468.974 102.867 472.307 105 472.067Z" fill="#937C76"/>
<path d="M126.413 460.04C132.853 461.253 138.907 464.12 143.853 468.413C145.467 469.827 147.84 467.48 146.213 466.067C140.84 461.387 134.307 458.147 127.293 456.827C126.413 456.667 125.493 457.08 125.24 457.987C125.027 458.8 125.52 459.88 126.413 460.04Z" fill="#937C76"/>
<path d="M151.027 479.373C155.04 482.093 159.04 484.813 163.053 487.547C163.787 488.053 164.893 487.68 165.333 486.947C165.813 486.12 165.48 485.173 164.733 484.667C160.72 481.947 156.72 479.227 152.707 476.493C151.96 475.987 150.867 476.36 150.427 477.093C149.947 477.92 150.28 478.867 151.027 479.373Z" fill="#937C76"/>
<path d="M168.453 479.6C174.773 483.08 180.76 487.147 186.307 491.773C187 492.347 187.987 492.44 188.667 491.773C189.267 491.173 189.36 489.987 188.667 489.413C182.907 484.613 176.707 480.347 170.133 476.72C168.253 475.693 166.573 478.56 168.453 479.6" fill="#937C76"/>
<path d="M193.96 478.107C198.56 483.147 203.173 488.173 207.773 493.213C209.227 494.8 211.573 492.44 210.133 490.853C205.52 485.827 200.92 480.787 196.32 475.76C194.867 474.173 192.52 476.533 193.96 478.107" fill="#937C76"/>
<path d="M180.88 464.32C175.906 458.88 171.493 452.987 167.64 446.72C166.52 444.894 163.64 446.56 164.76 448.4C168.76 454.907 173.373 461.027 178.52 466.68C179.96 468.267 182.32 465.907 180.88 464.32" fill="#937C76"/>
<path d="M196.667 451.56C194.747 445.613 192.84 439.653 190.92 433.693C190.267 431.653 187.053 432.52 187.707 434.573C189.627 440.533 191.533 446.493 193.453 452.453C194.107 454.48 197.32 453.613 196.667 451.56Z" fill="#937C76"/>
<path d="M212.066 430.76C211.413 424.4 210.76 418.027 210.106 411.654C210.013 410.76 209.4 409.987 208.44 409.987C207.613 409.987 206.68 410.76 206.773 411.654C207.426 418.027 208.08 424.4 208.733 430.76C208.826 431.667 209.44 432.427 210.4 432.427C211.24 432.427 212.16 431.667 212.066 430.76Z" fill="#937C76"/>
<path d="M222.413 472.813C218.84 468.04 216.187 462.68 214.64 456.933C214.08 454.867 210.867 455.747 211.427 457.813C213.053 463.827 215.8 469.52 219.533 474.494C220.067 475.214 220.973 475.587 221.813 475.094C222.52 474.68 222.96 473.533 222.413 472.813Z" fill="#937C76"/>
<path d="M232.213 506.573C230.546 503.373 228.52 500.387 226.2 497.627C225.64 496.96 224.413 497.013 223.84 497.627C223.187 498.347 223.24 499.28 223.84 499.987C224.107 500.307 224.373 500.627 224.627 500.947L224.827 501.187C224.813 501.173 225.08 501.533 224.973 501.387C224.88 501.253 225.066 501.507 225.08 501.52L225.267 501.773C225.773 502.453 226.266 503.147 226.746 503.853C227.693 505.28 228.547 506.747 229.333 508.253C229.733 509.027 230.88 509.32 231.613 508.853C232.4 508.347 232.64 507.4 232.213 506.573" fill="#937C76"/>
<path d="M213.96 516.2C206.813 508.92 198.8 502.507 190.147 497.094C188.32 495.947 186.64 498.827 188.467 499.96C196.88 505.24 204.64 511.467 211.613 518.56C213.12 520.08 215.467 517.734 213.96 516.2Z" fill="#937C76"/>
<path d="M216.68 533.853C211.4 531.28 206.827 527.387 203.547 522.493C203.04 521.747 202.067 521.427 201.267 521.907C200.52 522.333 200.16 523.427 200.667 524.187C204.253 529.533 209.2 533.907 215 536.72C215.813 537.12 216.8 536.947 217.28 536.133C217.707 535.4 217.493 534.24 216.68 533.853Z" fill="#937C76"/>
<path d="M231.053 529.2C228.827 525.92 226.613 522.64 224.387 519.36C223.893 518.64 222.893 518.253 222.107 518.76C221.387 519.227 220.987 520.267 221.507 521.04C223.733 524.32 225.947 527.6 228.173 530.88C228.653 531.6 229.653 531.987 230.453 531.48C231.173 531.013 231.573 529.973 231.053 529.2Z" fill="#937C76"/>
<path d="M251.573 511.52C249.507 506.747 247.44 501.973 245.373 497.213C245.013 496.387 243.8 496.2 243.093 496.613C242.24 497.107 242.133 498.067 242.493 498.893C244.56 503.667 246.627 508.427 248.693 513.2C249.053 514.027 250.267 514.213 250.973 513.8C251.827 513.293 251.933 512.347 251.573 511.52Z" fill="#937C76"/>
<path d="M234.68 468.507C233.267 464.093 231.853 459.693 230.44 455.293C230.16 454.44 229.28 453.88 228.387 454.133C227.547 454.36 226.947 455.32 227.227 456.173C228.64 460.587 230.053 464.987 231.467 469.387C231.733 470.24 232.613 470.8 233.507 470.56C234.36 470.32 234.947 469.36 234.68 468.507" fill="#937C76"/>
<path d="M155.04 439.613C153.733 436.813 151.746 434.28 149.306 432.36C148.946 432.08 148.613 431.88 148.133 431.88C147.72 431.88 147.226 432.053 146.946 432.36C146.4 432.96 146.213 434.147 146.946 434.72C148.106 435.627 149.146 436.667 150.066 437.813C150.093 437.853 150.253 438.053 150.106 437.867C149.946 437.667 150.146 437.933 150.186 437.973C150.293 438.12 150.413 438.28 150.52 438.44C150.72 438.733 150.92 439.027 151.12 439.347C151.506 439.973 151.853 440.627 152.16 441.307C152.533 442.093 153.733 442.36 154.44 441.893C155.266 441.373 155.44 440.467 155.04 439.613Z" fill="#937C76"/>
<path d="M340.12 399.947C348.387 394.973 357.533 391.76 367.08 390.387C367.973 390.253 368.44 389.12 368.24 388.333C367.986 387.373 367.08 387.04 366.187 387.173C356.387 388.573 346.933 391.96 338.44 397.067C336.6 398.16 338.267 401.053 340.12 399.947" fill="#937C76"/>
<path d="M352.987 405.24C357.6 403.64 362.36 402.467 367.2 401.747C368.08 401.613 368.573 400.48 368.36 399.693C368.093 398.733 367.2 398.4 366.307 398.533C361.467 399.253 356.72 400.413 352.093 402.027C351.24 402.32 350.68 403.16 350.933 404.067C351.16 404.893 352.12 405.533 352.987 405.24" fill="#937C76"/>
<path d="M396.746 386.427C407.706 383.734 418.907 382.4 430.187 382.413C432.333 382.413 432.333 379.08 430.187 379.08C418.627 379.067 407.093 380.453 395.866 383.213C393.773 383.72 394.666 386.934 396.746 386.427Z" fill="#937C76"/>
<path d="M386.533 419.813C399.133 415.8 412.2 413.627 425.413 413.373C427.56 413.32 427.573 409.987 425.413 410.04C411.92 410.293 398.507 412.507 385.653 416.587C383.613 417.24 384.48 420.467 386.533 419.813" fill="#937C76"/>
<path d="M452.587 394.067C457.32 392.4 462.307 391.88 467.28 392.547C468.173 392.667 468.947 391.693 468.947 390.88C468.947 389.88 468.173 389.333 467.28 389.213C462.053 388.52 456.667 389.094 451.693 390.854C450.853 391.16 450.28 392 450.533 392.907C450.76 393.733 451.733 394.373 452.587 394.067Z" fill="#937C76"/>
<path d="M444.933 370.907C458.386 369.307 472.026 369.4 485.44 371.28C487.533 371.573 488.44 368.36 486.32 368.067C472.586 366.147 458.706 365.947 444.933 367.573C442.84 367.813 442.813 371.16 444.933 370.907" fill="#937C76"/>
<path d="M517.303 365.505C531.628 365.72 545.979 365.949 560.317 366.178C562.458 366.205 562.458 362.88 560.317 362.839C545.979 362.624 531.628 362.395 517.303 362.166C515.149 362.139 515.149 365.465 517.303 365.505Z" fill="#937C76"/>
<path d="M573.819 377.498C581.691 376.978 589.549 376.458 597.408 375.937C599.53 375.8 599.557 372.474 597.408 372.611C589.549 373.131 581.691 373.651 573.819 374.171C571.697 374.308 571.683 377.649 573.819 377.498Z" fill="#937C76"/>
<path d="M605.617 389.555C613.968 388.832 622.319 388.124 630.669 387.401C632.795 387.221 632.809 383.886 630.669 384.066C622.319 384.789 613.968 385.498 605.617 386.22C603.505 386.401 603.478 389.735 605.617 389.555Z" fill="#937C76"/>
<path d="M676.263 403.887C685.69 402.509 695.13 401.132 704.571 399.755C706.68 399.453 705.791 396.239 703.682 396.541C694.255 397.918 684.814 399.295 675.374 400.673C673.265 400.988 674.154 404.188 676.263 403.887Z" fill="#937C76"/>
<path d="M673.104 365.06C681.397 362.281 690.428 362.686 699.011 361.47C707.868 360.211 716.61 358.098 725.062 355.175C727.088 354.48 726.22 351.267 724.179 351.962C715.712 354.871 707 357.013 698.128 358.257C689.531 359.459 680.529 359.068 672.221 361.847C670.195 362.527 671.063 365.74 673.104 365.06Z" fill="#937C76"/>
<path d="M721.387 367.924C742.3 364.317 761.663 355.194 780.132 345.088C785.409 342.196 790.641 339.2 795.873 336.219C797.721 335.16 796.052 332.269 794.174 333.342C776.033 343.732 757.653 354.226 737.605 360.546C732 362.305 726.291 363.721 720.507 364.72C718.405 365.077 719.3 368.282 721.387 367.924Z" fill="#937C76"/>
<path d="M880.611 284.141C900.925 275.958 920.985 267.176 940.777 257.777C942.704 256.861 941.014 253.987 939.087 254.903C919.564 264.175 899.772 272.862 879.727 280.934C877.768 281.724 878.621 284.946 880.611 284.141" fill="#937C76"/>
<path d="M936.729 283.676C950.865 274.915 965.803 267.47 981.334 261.518C983.324 260.748 982.458 257.539 980.436 258.309C964.648 264.358 949.437 271.883 935.045 280.804C933.216 281.927 934.9 284.815 936.729 283.676Z" fill="#937C76"/>
<path d="M978.234 295.747C998.74 285.067 1021.15 278.15 1044.11 275.455C1046.21 275.208 1046.24 271.873 1044.11 272.119C1020.53 274.88 997.623 281.912 976.559 292.872C974.653 293.874 976.328 296.749 978.234 295.747Z" fill="#937C76"/>
<path d="M899.475 326.586C910.101 321.061 920.931 315.945 931.935 311.222C933.902 310.388 932.202 307.507 930.25 308.342C919.247 313.064 908.417 318.18 897.775 323.706C895.886 324.697 897.571 327.578 899.475 326.586Z" fill="#937C76"/>
<path d="M979.552 245.344C995.211 238.682 1011.26 232.951 1027.56 228.134C1029.62 227.529 1028.75 224.313 1026.68 224.917C1010.09 229.815 993.807 235.694 977.87 242.47C975.91 243.319 977.609 246.177 979.552 245.344Z" fill="#937C76"/>
<path d="M1143.46 225.446C1161.59 227.259 1179.09 234.109 1193.77 244.917C1197.93 247.985 1201.84 251.402 1205.48 255.097C1207 256.614 1209.35 254.26 1207.83 252.726C1194.55 239.304 1177.63 229.612 1159.34 224.906C1154.13 223.563 1148.81 222.657 1143.46 222.117C1141.33 221.907 1141.33 225.237 1143.46 225.446Z" fill="#937C76"/>
<path d="M1212.63 235.027C1227.14 239.793 1234.96 254.004 1241.58 266.697C1242.59 268.603 1245.45 266.926 1244.46 265.019C1237.4 251.462 1228.96 236.881 1213.53 231.814C1211.49 231.143 1210.6 234.356 1212.63 235.027" fill="#937C76"/>
<path d="M1162.48 271.08C1167.71 273.05 1170.77 278.773 1173.47 283.32C1176.74 288.8 1179.63 294.54 1182.05 300.453C1182.84 302.407 1186.07 301.56 1185.26 299.571C1182.58 293.036 1179.44 286.709 1175.77 280.675C1172.64 275.54 1169.23 270.077 1163.36 267.864C1161.35 267.103 1160.47 270.319 1162.48 271.08" fill="#937C76"/>
<path d="M1223.4 281.581C1228.88 287.818 1233.32 294.901 1236.58 302.53C1236.95 303.358 1238.15 303.552 1238.85 303.129C1239.72 302.635 1239.82 301.684 1239.47 300.856C1236.07 292.963 1231.43 285.669 1225.76 279.22C1224.33 277.617 1221.99 279.978 1223.4 281.581Z" fill="#937C76"/>
<path d="M1261.46 286.74C1264.84 290.252 1266.24 295.091 1267.83 299.57C1269.75 304.856 1271.65 310.16 1273.55 315.446C1277.31 325.929 1281.08 336.393 1284.82 346.876C1285.56 348.883 1288.76 348.023 1288.05 345.998C1284.12 335.103 1280.22 324.209 1276.31 313.314C1274.38 307.921 1272.44 302.527 1270.5 297.133C1268.87 292.564 1267.24 287.941 1263.82 284.393C1262.32 282.834 1259.97 285.199 1261.46 286.74" fill="#937C76"/>
<path d="M1129.99 187.439C1140.82 179.956 1152.09 173.159 1163.8 167.1C1165.69 166.105 1164.01 163.239 1162.1 164.217C1150.43 170.276 1139.14 177.073 1128.32 184.573C1126.56 185.775 1128.22 188.675 1129.99 187.439" fill="#937C76"/>
<path d="M1163.04 182.261C1174.34 176.147 1185.65 170.017 1196.96 163.886C1198.83 162.879 1197.15 159.996 1195.27 161.021C1183.97 167.134 1172.66 173.265 1161.35 179.378C1159.46 180.402 1161.14 183.285 1163.04 182.261" fill="#937C76"/>
<path d="M1193.56 151.904C1205.35 147.882 1217.15 143.859 1228.93 139.837C1230.95 139.152 1230.09 135.938 1228.06 136.623C1216.25 140.645 1204.47 144.667 1192.68 148.69C1190.66 149.375 1191.52 152.606 1193.56 151.904Z" fill="#937C76"/>
<path d="M1253 139.968C1262.1 136.391 1271.57 133.851 1281.22 132.348C1283.35 132.027 1282.44 128.807 1280.35 129.129C1270.69 130.631 1261.21 133.189 1252.11 136.748C1250.14 137.517 1251 140.737 1253 139.968Z" fill="#937C76"/>
<path d="M1280.07 120.05C1294.17 119.125 1308.26 118.2 1322.35 117.275C1324.48 117.13 1324.49 113.792 1322.35 113.938C1308.26 114.863 1294.17 115.788 1280.07 116.713C1277.95 116.858 1277.93 120.195 1280.07 120.05Z" fill="#937C76"/>
<path d="M1600.8 129.048C1615.18 128.043 1629.45 125.791 1643.47 122.312C1645.54 121.789 1644.65 118.572 1642.56 119.095C1628.85 122.513 1614.89 124.725 1600.8 125.71C1598.67 125.871 1598.67 129.189 1600.8 129.048Z" fill="#937C76"/>
<path d="M1650.59 113.483C1661.73 110.572 1672.88 107.661 1684.02 104.729C1686.09 104.2 1685.22 100.984 1683.14 101.513C1671.99 104.445 1660.83 107.355 1649.7 110.266C1647.62 110.816 1648.52 114.032 1650.59 113.483" fill="#937C76"/>
<path d="M1699.64 100.375C1705.95 97.948 1712.26 95.5214 1718.58 93.0742C1719.4 92.7657 1720 91.9638 1719.73 91.0384C1719.52 90.2364 1718.54 89.5372 1717.69 89.8662C1711.36 92.2928 1705.07 94.74 1698.75 97.1666C1697.91 97.4956 1697.33 98.2976 1697.6 99.223C1697.81 100.025 1698.8 100.704 1699.64 100.375Z" fill="#937C76"/>
<path d="M1670.89 78.0138C1685.85 73.0872 1699.83 65.6152 1712.27 55.9469C1713.95 54.6331 1711.57 52.293 1709.91 53.5862C1697.94 62.8851 1684.37 70.0493 1669.99 74.7911C1667.97 75.448 1668.84 78.6706 1670.89 78.0138Z" fill="#937C76"/>
<path d="M1734.08 38.9442C1740.29 34.3536 1746.5 29.7839 1752.69 25.2141C1753.44 24.6741 1753.79 23.7601 1753.29 22.9292C1752.88 22.223 1751.76 21.7867 1751.01 22.3268C1744.82 26.9173 1738.61 31.4872 1732.4 36.057C1731.69 36.5971 1731.32 37.511 1731.8 38.3419C1732.21 39.0481 1733.35 39.4842 1734.08 38.9442Z" fill="#937C76"/>
<path d="M1294.32 175.1C1307.63 166.386 1322.1 159.623 1337.32 155.011C1339.38 154.391 1338.51 151.183 1336.45 151.802C1320.95 156.487 1306.17 163.36 1292.64 172.219C1290.85 173.386 1292.51 176.266 1294.32 175.1" fill="#937C76"/>
<path d="M1362.67 158.252C1378.97 154.813 1395.73 154.084 1412.29 156.009C1414.4 156.252 1414.39 152.926 1412.29 152.683C1395.45 150.72 1378.37 151.543 1361.77 155.037C1359.68 155.486 1360.56 158.701 1362.67 158.252" fill="#937C76"/>
<path d="M1375.76 117.357C1387.4 115.302 1399.21 114.461 1411.02 114.797C1413.17 114.854 1413.17 111.509 1411.02 111.453C1398.91 111.117 1386.82 112.033 1374.89 114.144C1372.78 114.499 1373.67 117.712 1375.76 117.357" fill="#937C76"/>
<path d="M1749.11 60.512C1758.56 52.0466 1766.88 42.3898 1773.9 31.8341C1775.09 30.0365 1772.21 28.3642 1771.02 30.1409C1764.16 40.4667 1755.99 49.8728 1746.75 58.1501C1745.14 59.5715 1747.5 61.9334 1749.11 60.512" fill="#937C76"/>
<path d="M1768.71 26.7918C1771.22 23.2158 1773.73 19.6607 1776.24 16.1056C1776.74 15.3737 1776.39 14.2026 1775.66 13.8052C1774.8 13.3661 1773.9 13.6587 1773.38 14.4116C1770.87 17.9667 1768.34 21.5429 1765.83 25.098C1765.32 25.809 1765.68 26.98 1766.43 27.3773C1767.29 27.8374 1768.19 27.5447 1768.71 26.7918Z" fill="#937C76"/>
</svg>
