<svg width="1478" height="760" viewBox="0 0 1478 760" fill="none" xmlns="http://www.w3.org/2000/svg">
<path d="M1231.01 675.947C1246.25 674.347 1260.36 666.747 1274.39 660.214C1293.86 651.134 1314.16 643.8 1334.89 638.347C1327.09 632.947 1316.08 631.454 1306.17 634.454C1314.89 628.88 1324.81 625 1335 623.187C1324.86 618.92 1312.81 618.12 1301.47 620.947C1307.73 616.2 1315.41 613.094 1323.22 612.147C1309.83 608.814 1295.03 611.36 1281.13 615.174C1267.23 618.987 1253.54 624.08 1239.35 625.96C1224.95 627.867 1178.03 626.814 1182.58 650.734C1185.95 668.427 1213.36 677.814 1231.01 675.947Z" fill="#3F3532"/>
<path d="M1039.42 478.08C1087.04 518.76 1122.06 557.387 1151.8 616.867C1164.11 641.493 1167.59 651.307 1190.39 654.24C1210.92 656.88 1251.7 637.467 1253.52 621.067C1232.79 606.96 1219.78 577.573 1211.84 536.48C1204.26 497.267 1206.63 424.787 1175.92 395.133C1130.49 351.267 1050.7 417.253 1051.06 472.627C1052.12 470.24 1052.48 467.56 1039.42 478.08Z" fill="#514441"/>
<path d="M346.832 627.347C355.616 640.107 369.461 648.227 382.283 656.92C400.065 668.973 416.624 682.827 431.625 698.2C432.944 687.933 429.079 677.12 421.543 670.013C430.927 674.507 439.297 681.093 445.855 689.173C444.995 677.493 439.984 666.16 431.925 657.653C439.361 660.427 445.937 665.467 450.553 671.933C447.264 657.88 437.813 646.08 427.611 635.867C417.407 625.653 414.849 619.133 406.307 607.493C397.639 595.68 363.42 548.84 343.233 567.333C328.299 581.013 336.667 612.587 346.832 627.347" fill="#3F3532"/>
<path d="M721.663 377.853C716.988 333.16 689.701 293.08 654.825 264.733C631.796 246.013 605.264 231.613 577.016 222.52L569.215 202.387C472.977 252.547 409.155 345.293 420.716 446.24C422.895 465.267 426.939 485.52 418.675 502.8C404.575 532.267 339.367 549.36 337.584 575.773C359.477 576.16 377.291 588.693 397.432 602.107C400.633 604.227 404.685 607.827 408.528 607.88C412.644 607.947 419.917 602.707 423.443 600.587C454.439 581.907 492.232 579.987 527.887 573.8C577.773 565.133 627.105 546.507 664.755 512.653C702.407 478.8 726.929 428.213 721.663 377.853" fill="#514441"/>
<path d="M549.737 703.773C564.484 708.507 580.408 706.493 595.867 705.533C617.309 704.227 638.884 705.08 660.155 708.094C654.924 699.147 645.263 692.96 634.956 691.933C645.127 689.747 655.78 689.867 665.904 692.254C658.087 683.52 647.197 677.613 635.624 675.8C643.209 673.453 651.493 673.427 659.093 675.72C647.904 666.614 633.22 663.04 618.904 661.187C604.588 659.334 589.984 658.907 576.112 654.907C562.035 650.853 518.891 630.013 514.2 656.973C510.729 676.933 532.673 698.293 549.737 703.773Z" fill="#3F3532"/>
<path d="M1094.52 254.667C1061.12 266.611 1024.05 264.545 989.656 255.862C955.259 247.166 922.848 232.179 890.189 218.332C844.838 199.092 798.617 181.903 751.715 166.82C706.346 152.24 659.624 139.549 611.967 139.685C564.315 139.821 515.091 154.115 480.877 187.284C436.909 229.923 424.602 295.838 425.643 357.079C426.667 417.261 441.77 482.918 489.894 519.089C521.653 542.95 562.672 550.015 602.125 554.663C753.705 572.504 908.254 564.813 1057.31 532.025C1079.31 527.188 1101.32 521.766 1121.91 512.662C1191.69 481.804 1235.28 430.495 1286.09 351.848C1303.75 324.509 1324.41 272.1 1323.11 239.57C1321.81 207.041 1271.45 181.686 1243.09 165.706C1217.16 151.099 1135.78 127.823 1123.49 159.089C1140.89 180.041 1109.95 249.136 1094.52 254.667" fill="#665651"/>
<path d="M1174.29 297.228C1202.28 319.864 1234.24 336.201 1266.05 352.144C1271.55 354.891 1324.93 235.021 1319.05 219.119C1312.76 202.115 1299.08 189.492 1284.64 179.657C1244.33 152.206 1163.21 125.367 1122.59 167.101C1082.68 208.128 1144.74 273.341 1174.29 297.228" fill="#514441"/>
<path d="M1059.13 533.134C1081.14 528.387 1103.17 523.04 1123.8 514.013C1193.69 483.413 1237.48 432.28 1288.58 353.827C1304.38 329.56 1322.62 285.48 1325.63 253.134C1311.54 247.24 1294.3 245.76 1278.84 246.374C1261.05 247.08 1238.81 248.28 1223.1 257.707C1207.62 267.014 1210.65 282.8 1206.11 299.307C1196.22 335.24 1175.11 368.147 1146.11 391.64C1113.03 418.427 1071.56 432.547 1030.25 442.8C906.609 473.48 776.076 474.173 655.455 515.147C640.203 520.32 622.525 529.614 622.129 545.72C622.033 549.587 622.985 553.147 624.671 556.413C769.501 571.747 916.769 563.88 1059.13 533.134" fill="#937C76"/>
<path d="M1325.04 260.613C1325.31 258.173 1325.51 255.733 1325.63 253.293C1311.6 247.507 1294.5 246.053 1279.15 246.667C1261.36 247.373 1239.12 248.56 1223.41 258C1207.93 267.293 1210.95 283.093 1206.42 299.587C1204.71 305.787 1202.65 311.893 1200.29 317.88C1222.09 332.253 1245.41 344.133 1268.66 355.787C1274.07 358.493 1280.35 361.213 1285.85 358.733C1286.86 357.2 1287.87 355.667 1288.88 354.107C1303.55 331.587 1320.3 292.04 1325.04 260.613" fill="#7A6763"/>
<path d="M1121.84 59.9695C1101.23 73.5865 1083.23 92.3815 1074.83 115.611C1060.42 155.432 1077.6 201.847 1108.67 230.64C1139.73 259.433 1182.12 273.036 1224.07 278.901C1254.44 283.149 1286.78 283.492 1314.17 269.703C1353.29 250.022 1373.89 206.009 1383.85 163.356C1392.51 126.224 1394.33 83.9854 1371.82 53.2183C1352.59 26.9283 1318.86 14.4412 1286.32 13.2254C1231.76 11.18 1167.37 29.889 1121.84 59.9695" fill="#665651"/>
<path d="M1351.14 4.82957C1365.61 -1.41713 1378.17 -3.44662 1385.91 10.2702C1390.45 18.3161 1390.07 28.118 1389.58 37.3297C1388.59 55.5373 1387.59 73.7305 1386.61 91.9381C1386.53 93.4925 1386.42 95.1334 1385.65 96.5008C1384.11 99.2067 1380.57 99.9407 1377.45 99.9695C1367.22 100.07 1357.45 95.6803 1348.81 90.2109C1331.58 79.3295 1304.67 57.0774 1298.14 36.9267C1294.24 24.8651 1298.7 16.5314 1308.98 15.8981C1322.39 15.0777 1339.9 9.66573 1351.14 4.82957" fill="#665651"/>
<path d="M1042.48 102.244C1036.16 104.777 1030.25 109.427 1028.22 115.928C1025.81 123.655 1029.44 132.119 1034.86 138.133C1040.27 144.133 1047.32 148.365 1053.6 153.447C1060.19 158.779 1065.98 165.085 1070.72 172.115C1074.59 177.851 1078.46 184.603 1085.17 186.329C1091.84 188.028 1098.65 183.907 1103.47 178.979C1117.37 164.779 1121.77 143.479 1120.39 123.655C1119.47 110.569 1107.56 73.4679 1095.11 82.656C1076.54 96.3687 1048.8 99.7099 1042.48 102.244" fill="#665651"/>
<path d="M1127.32 112.766C1123.15 116.389 1119.79 121.39 1119.6 126.915C1119.46 130.869 1120.96 134.74 1123.01 138.13C1128.39 147.057 1137.53 153.271 1147.36 156.715C1155.77 159.663 1165.22 160.724 1173.51 157.473C1181.81 154.235 1188.46 145.9 1187.81 137.027C1187.44 132.095 1184.98 127.549 1182.03 123.581C1169.2 106.277 1145.48 97.0051 1127.32 112.766" fill="#514441"/>
<path d="M1187.85 142.313C1187.85 154.199 1178.22 163.836 1166.33 163.836C1154.45 163.836 1144.82 154.199 1144.82 142.313C1144.82 130.44 1154.45 120.803 1166.33 120.803C1178.22 120.803 1187.85 130.44 1187.85 142.313Z" fill="#231F20"/>
<path d="M1166.1 139.162C1166.1 143.068 1162.92 146.241 1159.01 146.241C1155.1 146.241 1151.93 143.068 1151.93 139.162C1151.93 135.256 1155.1 132.083 1159.01 132.083C1162.92 132.083 1166.1 135.256 1166.1 139.162Z" fill="white"/>
<path d="M1341.56 54.0187C1346.99 55.0034 1352.43 57.5776 1355.41 62.2197C1357.56 65.5536 1358.25 69.6471 1358.23 73.6139C1358.17 84.0235 1353.48 94.0391 1346.8 102.029C1341.09 108.866 1333.51 114.605 1324.72 116.054C1315.93 117.503 1305.96 113.761 1301.97 105.785C1299.76 101.368 1299.56 96.2055 1300.06 91.2821C1302.24 69.8441 1317.88 49.7564 1341.56 54.0187Z" fill="#514441"/>
<path d="M1304.64 110.356C1310.72 120.568 1323.92 123.922 1334.13 117.842C1344.34 111.775 1347.69 98.5715 1341.61 88.3591C1335.55 78.1467 1322.34 74.7936 1312.13 80.8738C1301.92 86.94 1298.56 100.144 1304.64 110.356Z" fill="#231F20"/>
<path d="M1309.97 96.5175C1311.97 99.8835 1316.31 100.978 1319.67 98.9831C1323.04 96.9884 1324.14 92.639 1322.14 89.273C1320.14 85.9208 1315.79 84.8127 1312.43 86.8073C1309.07 88.8159 1307.97 93.1514 1309.97 96.5175" fill="white"/>
<path d="M1264.39 163.838C1206.61 184.049 1169.94 214.789 1174.09 240.582C1178.23 266.389 1251.53 295.656 1310.65 270.918C1366.66 247.49 1380.01 193.592 1372.19 170.097C1364.36 146.603 1334.87 139.167 1264.39 163.838" fill="#937C76"/>
<path d="M1238.07 167.431C1235.57 169.724 1233.23 172.435 1232.4 175.739C1231.55 179.043 1232.6 183.007 1235.56 184.693C1239.1 186.702 1242.89 184.801 1246.8 182.913C1250.02 181.349 1253.3 179.798 1256.59 180.405C1260.37 181.092 1262.96 184.45 1265.8 187.04C1269.74 190.627 1275.05 193.054 1280.34 192.393C1285.63 191.719 1290.55 187.309 1290.68 181.982C1290.81 176.898 1292.42 171.464 1296.52 168.456C1299.12 166.541 1302.38 165.84 1305.35 164.599C1308.33 163.359 1313.31 160.014 1313.88 156.845C1314.49 153.42 1315.66 144.492 1293.84 145.477C1274.89 146.34 1252.6 154.04 1238.07 167.431Z" fill="#231F20"/>
<path d="M1276.08 183.814C1280.91 192.747 1282.16 203.454 1279.43 213.254C1278.17 217.747 1276.02 221.454 1272.04 224.027C1268.2 226.507 1263.83 227.894 1259.5 229.24C1255.41 230.494 1257.15 236.934 1261.27 235.667C1266.27 234.12 1271.44 232.467 1275.81 229.52C1280.87 226.107 1283.99 221.387 1285.7 215.56C1289.12 203.907 1287.59 191.094 1281.84 180.44C1279.8 176.667 1274.04 180.027 1276.08 183.814" fill="#231F20"/>
<path d="M1278.1 186.08C1280.78 191.227 1283.21 196.653 1286.42 201.48C1289.06 205.427 1292.47 208.747 1296.52 211.227C1304.42 216.08 1314.33 217.573 1323.25 214.973C1327.36 213.773 1325.61 207.333 1321.48 208.547C1314.04 210.72 1306 209.36 1299.48 205.213C1291.52 200.16 1288.05 190.747 1283.86 182.72C1281.88 178.92 1276.12 182.28 1278.1 186.08" fill="#231F20"/>
<path d="M1040.72 130.011C1039.92 128.878 1039.17 127.637 1039.06 126.259C1038.89 124.062 1040.49 122.029 1042.44 121.02C1044.4 119.996 1046.66 119.792 1048.86 119.628C1059.64 118.823 1070.47 118.673 1081.26 119.178C1077.88 124.581 1075.12 130.366 1073.04 136.383C1071.8 139.944 1071.36 149.699 1067.05 150.545C1063.11 151.323 1055.69 144.46 1052.74 142.195C1048.19 138.702 1044 134.718 1040.72 130.011Z" fill="#937C76"/>
<path d="M1366.56 15.3918C1368.64 14.5918 1370.96 14.0488 1373.09 14.6917C1377.75 16.0917 1379.09 21.9633 1379.47 26.8062C1380.25 37.1778 1380.24 47.6067 1379.41 57.9783C1375.95 50.021 1369.64 43.4208 1362.12 39.0922C1354.97 34.9921 1347.53 33.9206 1339.67 32.4492C1342.73 29.1491 1349.03 26.8349 1352.91 23.9634C1357.24 20.7633 1361.48 17.349 1366.56 15.3918" fill="#937C76"/>
<path d="M1243.77 177.455C1240.12 177.455 1240.21 170.574 1244.89 167.655C1249.93 164.496 1258.19 160.466 1264.38 160.466C1264.7 160.466 1265.02 160.48 1265.34 160.506C1265.86 160.533 1266.44 160.64 1266.76 161.055C1267.48 161.993 1266.24 163.171 1265.19 163.706C1259.01 166.892 1253.21 170.815 1247.96 175.367C1246.25 176.853 1244.84 177.455 1243.77 177.455" fill="#979696"/>
<path d="M674.652 273.24C641.575 242.813 594.603 230.813 549.693 232.627C520.039 233.827 490.619 240.587 463.415 252.44L444.252 242.507C405.263 343.787 418.759 455.56 494.209 523.613C508.425 536.44 524.864 548.96 530.092 567.373C539.012 598.8 501.419 654.76 517.559 675.747C534.235 661.56 555.883 659.173 579.857 655.893C583.667 655.373 589.084 655.4 592.003 652.893C595.127 650.213 597.121 641.48 598.361 637.56C609.249 603.04 636.317 576.6 658.96 548.373C690.641 508.88 715.315 462.28 721.153 411.973C726.993 361.68 711.916 307.52 674.652 273.24" fill="#665651"/>
<path d="M1060.57 703.773C1075.32 708.507 1091.24 706.493 1106.7 705.533C1128.14 704.227 1149.72 705.08 1170.99 708.094C1165.76 699.147 1156.09 692.96 1145.79 691.933C1155.96 689.747 1166.61 689.867 1176.74 692.254C1168.92 683.52 1158.03 677.613 1146.46 675.8C1154.04 673.453 1162.33 673.427 1169.93 675.72C1158.74 666.614 1144.05 663.04 1129.74 661.187C1115.42 659.334 1100.82 658.907 1086.94 654.907C1072.87 650.853 1029.72 630.013 1025.03 656.973C1021.56 676.933 1043.51 698.293 1060.57 703.773Z" fill="#3F3532"/>
<path d="M956.54 445.547C985.571 501.04 1003.67 549.947 1009.09 616.227C1011.34 643.667 1010.91 654.08 1030.97 665.294C1049.04 675.387 1094.11 672.574 1101.92 658.027C1087.93 637.214 1086.82 605.093 1094.77 564C1102.35 524.787 1131.57 458.414 1114.12 419.454C1088.31 361.814 989.679 393.307 969.369 444.827C971.245 443 972.575 440.653 956.54 445.547" fill="#665651"/>
<path d="M679.647 297.867C719.551 359.64 722.237 443.547 686.367 507.747L649.857 559.427C667.908 557.694 715.477 520.64 735.117 467.213C756.463 409.133 724.451 340.547 679.647 297.867Z" fill="#514441"/>
<path d="M375.118 223.633C314.925 266.395 266.846 327.32 244.192 397.598C215.14 487.715 225.463 594.78 163.944 666.761C139.665 695.169 105.531 714.996 68.8224 721.997C42.6475 726.997 9.63803 729.673 0 754.514C29.2792 764.663 61.5443 757.987 91.2682 749.229C135.116 736.309 178.215 718.699 214.577 690.993C313.74 615.445 281.042 542.951 365.294 380.826C382.306 348.092 435.255 303.682 468.029 286.735C492.541 274.071 521.003 272.395 548.035 266.868C577.843 260.772 614.188 246.028 620.976 212.7C626.779 184.224 629.192 143.219 601.26 142.314C520.326 139.733 424.462 188.562 375.118 223.633" fill="#665651"/>
<path d="M1097.89 277.76C1097.8 274.12 1128.97 246.627 1146.84 233.413C1164.38 220.44 1212.24 194.773 1213.15 201.8C1213.42 208.547 1196.19 207.293 1155.64 233.52C1112.28 261.573 1098.93 281.107 1097.89 277.76" fill="#231F20"/>
<path d="M1120.64 309.187C1119.96 305.6 1146.21 273.373 1161.67 257.4C1176.84 241.72 1219.84 208.56 1221.89 215.347C1223.26 221.96 1206.06 223.547 1170.36 256.067C1132.19 290.853 1122.22 312.32 1120.64 309.187" fill="#231F20"/>
<path d="M1149.7 339.093C1148.37 335.693 1168.2 299.173 1180.44 280.613C1192.45 262.413 1228.58 221.867 1231.85 228.147C1234.42 234.387 1217.81 239.133 1188.74 277.693C1157.65 318.947 1151.83 341.88 1149.7 339.093Z" fill="#231F20"/>
<path d="M1477.76 162.255C1475.72 159.234 1434.38 154.951 1412.15 154.561C1390.33 154.185 1336.47 161.087 1339.81 167.33C1343.51 172.982 1356.8 161.946 1405.05 159.757C1456.64 157.421 1478.85 165.584 1477.76 162.255" fill="#231F20"/>
<path d="M1477.47 201.04C1475.95 197.733 1435.87 186.733 1414 182.707C1392.55 178.747 1338.28 176.72 1340.56 183.44C1343.28 189.613 1358.2 180.907 1406.15 186.667C1457.43 192.813 1478 204.507 1477.47 201.04Z" fill="#231F20"/>
<path d="M1471.17 242.267C1470.29 238.733 1432.95 220.507 1412.2 212.507C1391.84 204.653 1338.89 192.627 1339.88 199.64C1341.41 206.213 1357.69 200.427 1403.75 214.947C1453 230.48 1471.07 245.773 1471.17 242.267" fill="#231F20"/>
<path d="M1111.65 84.8995C1114.04 93.044 1119.91 99.6373 1125.61 105.94C1117.73 102.532 1110.5 97.6427 1104.4 91.6174C1108.84 99.4434 1114.12 106.798 1120.12 113.502C1114.43 110.15 1108.91 106.48 1103.6 102.546C1107.81 107.976 1112.26 113.212 1116.95 118.24C1112.1 116.051 1107.25 113.849 1102.39 111.66C1112.58 122.437 1119.37 136.745 1131.89 144.709C1130.45 141.344 1129.97 137.313 1131.76 134.113C1135 128.351 1143.48 128.171 1148.19 123.531C1148.56 123.157 1148.93 122.714 1148.99 122.187C1149.07 121.453 1148.56 120.816 1148.07 120.262C1142.28 113.779 1136.06 107.588 1128.62 103.031C1121.43 98.64 1116.24 91.8805 1111.65 84.8995" fill="#514441"/>
<path d="M1328.62 47.1799C1328.5 48.4741 1328.87 49.8109 1329.64 50.8775C1335.08 45.6298 1340.5 40.3963 1345.94 35.1628C1345.36 39.0168 1344.78 42.8708 1344.2 46.7248C1350.41 41.7473 1356.13 36.1583 1361.25 30.0715C1362.64 28.4218 1364.02 26.6583 1364.56 24.5678C1364.25 34.5086 1362.69 44.4209 1359.9 53.9777C1361.53 52.5129 1363.01 50.9059 1364.34 49.1851C1363.45 54.0915 1362.08 58.9268 1360.28 63.5772C1361.69 62.3826 1362.88 60.8894 1363.74 59.2397C1361.7 66.5211 1359.41 73.7172 1356.86 80.8137C1355.66 84.1842 1354.4 87.5547 1352.5 90.5839C1352.34 90.8398 1352.16 91.1243 1351.85 91.1812C1351.37 91.2807 1351 90.7971 1350.78 90.3562C1348.25 85.3787 1348.26 79.1925 1344.85 74.7554C1342.16 71.2569 1337.78 69.4933 1333.48 68.5263C1329.74 67.6872 1317.95 67.9859 1318.41 62.2688C1318.63 59.5241 1321.48 57.5758 1323.11 55.6559C1325.29 53.0818 1327.16 50.2233 1328.62 47.1799Z" fill="#514441"/>
<path d="M1159.19 51.1728C1170.04 53.3553 1180.09 58.5089 1188.14 66.1123C1189.7 67.5767 1192.06 65.2252 1190.5 63.7467C1182.05 55.7771 1171.47 50.2576 1160.08 47.9625C1157.98 47.5401 1157.08 50.7504 1159.19 51.1728Z" fill="#937C76"/>
<path d="M1183.25 46.2841C1189.03 49.417 1193.88 54.0176 1197.28 59.6342C1198.39 61.4688 1201.27 59.7894 1200.16 57.9548C1196.48 51.8725 1191.2 46.8063 1184.94 43.4053C1183.05 42.3892 1181.37 45.268 1183.25 46.2841" fill="#937C76"/>
<path d="M1200.77 72.2548C1203.75 76.0626 1206.74 79.8842 1209.72 83.7059C1210.28 84.4172 1211.5 84.2777 1212.08 83.7059C1212.78 82.9945 1212.63 82.0601 1212.08 81.3488C1209.09 77.5271 1206.11 73.7054 1203.13 69.8976C1202.57 69.1863 1201.35 69.3118 1200.77 69.8976C1200.07 70.595 1200.21 71.5435 1200.77 72.2548Z" fill="#937C76"/>
<path d="M1217.29 77.8057C1222.25 83.0531 1226.68 88.7599 1230.55 94.8563C1231.7 96.6658 1234.59 94.9955 1233.43 93.1721C1229.41 86.839 1224.79 80.8957 1219.64 75.4394C1218.17 73.8805 1215.81 76.2467 1217.29 77.8057Z" fill="#937C76"/>
<path d="M1242.02 84.1925C1244.86 90.3934 1247.71 96.5943 1250.55 102.795C1250.93 103.614 1252.11 103.808 1252.83 103.392C1253.67 102.892 1253.81 101.935 1253.43 101.103C1250.58 94.902 1247.74 88.7011 1244.89 82.514C1244.52 81.6956 1243.34 81.4874 1242.61 81.9036C1241.77 82.403 1241.64 83.374 1242.02 84.1925Z" fill="#937C76"/>
<path d="M1233.69 66.8995C1230.63 60.2009 1228.24 53.2202 1226.49 46.0845C1225.98 43.9973 1222.77 44.8858 1223.28 46.9588C1225.1 54.3907 1227.63 61.6111 1230.81 68.5776C1231.18 69.3955 1232.37 69.593 1233.09 69.1699C1233.93 68.6763 1234.06 67.7174 1233.69 66.8995" fill="#937C76"/>
<path d="M1252.66 59.5922C1252.66 53.3305 1252.66 47.0829 1252.66 40.8211C1252.66 38.6726 1249.33 38.6726 1249.33 40.8211C1249.33 47.0829 1249.33 53.3305 1249.33 59.5922C1249.33 61.7408 1252.66 61.7408 1252.66 59.5922Z" fill="#937C76"/>
<path d="M1273.71 44.4966C1275.03 38.2341 1276.35 31.9717 1277.68 25.7093C1278.12 23.617 1274.91 22.7204 1274.46 24.8268C1273.14 31.0892 1271.82 37.3517 1270.5 43.6141C1270.05 45.7063 1273.27 46.603 1273.71 44.4966Z" fill="#937C76"/>
<path d="M1270.66 87.6762C1268.71 82.0386 1267.86 76.1498 1268.14 70.2051C1268.24 68.0561 1264.9 68.0561 1264.8 70.2051C1264.51 76.4149 1265.41 82.6805 1267.45 88.5694C1268.14 90.5789 1271.36 89.7136 1270.66 87.6762" fill="#937C76"/>
<path d="M1269.67 122.831C1269.09 119.422 1268.13 116.082 1266.82 112.879C1266.49 112.071 1265.7 111.414 1264.77 111.715C1263.99 111.962 1263.25 112.906 1263.61 113.769C1264.92 116.972 1265.88 120.298 1266.45 123.707C1266.6 124.569 1267.71 125.13 1268.5 124.87C1269.43 124.583 1269.83 123.748 1269.67 122.831Z" fill="#937C76"/>
<path d="M1249.33 126.408C1244.73 117.283 1239.06 108.764 1232.47 100.947C1231.09 99.3087 1228.74 101.676 1230.12 103.314C1236.52 110.897 1241.99 119.224 1246.45 128.101C1247.42 130.014 1250.29 128.321 1249.33 126.408" fill="#937C76"/>
<path d="M1246.5 144.066C1242.25 140.002 1239.14 134.891 1237.5 129.223C1236.91 127.171 1233.69 128.041 1234.29 130.12C1236.08 136.305 1239.49 141.972 1244.15 146.431C1245.7 147.912 1248.06 145.547 1246.5 144.066Z" fill="#937C76"/>
<path d="M1261.65 143.999C1260.54 140.2 1259.43 136.401 1258.32 132.603C1258.06 131.734 1257.14 131.191 1256.26 131.436C1255.4 131.666 1254.85 132.616 1255.1 133.484C1256.21 137.283 1257.32 141.082 1258.44 144.894C1258.69 145.749 1259.61 146.292 1260.49 146.048C1261.34 145.817 1261.9 144.867 1261.65 143.999Z" fill="#937C76"/>
<path d="M1286.66 133.875C1286.15 128.713 1285.64 123.537 1285.13 118.361C1285.04 117.474 1284.42 116.695 1283.46 116.695C1282.63 116.695 1281.7 117.46 1281.79 118.361C1282.3 123.537 1282.81 128.713 1283.32 133.875C1283.41 134.776 1284.02 135.541 1284.99 135.541C1285.82 135.541 1286.74 134.776 1286.66 133.875Z" fill="#937C76"/>
<path d="M1283.68 87.3408C1283.68 82.7144 1283.68 78.0882 1283.68 73.4619C1283.68 71.3159 1280.34 71.3159 1280.34 73.4619C1280.34 78.0882 1280.34 82.7144 1280.34 87.3408C1280.34 89.4867 1283.68 89.4867 1283.68 87.3408Z" fill="#937C76"/>
<path d="M1216.72 35.9257C1216.31 32.6706 1215.24 29.5576 1213.4 26.8285C1212.91 26.1035 1211.91 25.7197 1211.12 26.2314C1210.4 26.6863 1210 27.7382 1210.52 28.5057C1210.92 29.1027 1211.29 29.714 1211.62 30.3536C1211.8 30.6947 1211.97 31.036 1212.12 31.3914C1212.16 31.4624 1212.32 31.8604 1212.18 31.5192C1212.25 31.704 1212.32 31.8745 1212.39 32.0593C1212.64 32.7274 1212.86 33.4097 1213.03 34.1204C1213.11 34.4331 1213.19 34.7602 1213.25 35.0871C1213.28 35.2861 1213.32 35.4709 1213.35 35.6557L1213.39 35.94C1213.37 35.741 1213.37 35.7267 1213.39 35.9257C1213.5 36.7928 1214.08 37.6314 1215.06 37.5888C1215.87 37.5604 1216.84 36.8496 1216.72 35.9257" fill="#937C76"/>
<path d="M737.625 200.747C750.059 200.2 762.407 203.107 773.261 209.2C775.135 210.254 776.817 207.374 774.944 206.32C763.601 199.96 750.625 196.84 737.625 197.414C735.489 197.507 735.477 200.84 737.625 200.747" fill="#937C76"/>
<path d="M768.225 191.693C774.495 193.56 780.764 195.427 787.033 197.293C789.093 197.907 789.973 194.68 787.919 194.08C781.651 192.213 775.381 190.347 769.111 188.48C767.051 187.867 766.171 191.093 768.225 191.693Z" fill="#937C76"/>
<path d="M811.152 232.04C821.148 233.2 830.657 237.147 838.653 243.24C840.361 244.533 842.023 241.64 840.336 240.36C831.843 233.893 821.737 229.933 811.152 228.707C809.025 228.467 809.043 231.8 811.152 232.04Z" fill="#937C76"/>
<path d="M834.357 225.093C840.611 227.173 846.736 229.587 852.705 232.373C853.521 232.76 854.503 232.6 854.987 231.773C855.408 231.053 855.208 229.88 854.388 229.493C848.159 226.587 841.768 224.04 835.244 221.88C833.203 221.213 832.328 224.427 834.357 225.093Z" fill="#937C76"/>
<path d="M883.723 253.8C891.059 253.787 898.307 254.907 905.305 257.107C907.356 257.76 908.233 254.533 906.192 253.893C898.929 251.613 891.335 250.453 883.723 250.467C881.579 250.48 881.575 253.813 883.723 253.8" fill="#937C76"/>
<path d="M858.781 271.813C865.601 273.653 872.421 275.48 879.243 277.32C881.316 277.88 882.201 274.667 880.128 274.107C873.308 272.267 866.488 270.44 859.667 268.6C857.593 268.04 856.708 271.253 858.781 271.813Z" fill="#937C76"/>
<path d="M921.269 291.494C933.517 291.094 945.774 291.227 958.012 291.88C960.156 292 960.149 288.667 958.012 288.547C945.774 287.893 933.517 287.76 921.269 288.16C919.129 288.227 919.12 291.56 921.269 291.494Z" fill="#937C76"/>
<path d="M935.511 274.227C941.809 275.854 948.253 276.88 954.744 277.307C956.885 277.453 956.877 274.12 954.744 273.973C948.544 273.56 942.415 272.56 936.397 271.013C934.319 270.48 933.432 273.694 935.511 274.227Z" fill="#937C76"/>
<path d="M990.316 312.027C999.557 310.347 1008.8 308.667 1018.04 306.987C1020.15 306.613 1019.25 303.387 1017.15 303.773C1007.91 305.453 998.671 307.133 989.431 308.813C987.323 309.2 988.216 312.413 990.316 312.027" fill="#937C76"/>
<path d="M1012.68 284.88C1019.97 285.32 1027.33 284.44 1034.32 282.307C1036.36 281.68 1035.49 278.453 1033.43 279.093C1026.7 281.147 1019.71 281.973 1012.68 281.547C1010.53 281.427 1010.54 284.76 1012.68 284.88" fill="#937C76"/>
<path d="M455.155 198C462.273 192.507 469.668 187.387 477.311 182.653C479.132 181.533 477.46 178.64 475.629 179.773C467.985 184.507 460.591 189.64 453.472 195.133C452.755 195.68 452.389 196.56 452.875 197.413C453.277 198.107 454.444 198.56 455.155 198Z" fill="#937C76"/>
<path d="M489.584 192.507C497.739 188.28 506.348 185.04 515.26 182.813C517.34 182.28 516.459 179.067 514.375 179.587C505.189 181.893 496.305 185.28 487.901 189.64C485.997 190.627 487.681 193.507 489.584 192.507" fill="#937C76"/>
<path d="M525.855 168.843C539.876 165.497 554.286 164.225 568.68 165.015C570.823 165.136 570.816 161.803 568.68 161.682C554.003 160.879 539.266 162.218 524.968 165.631C522.882 166.126 523.766 169.339 525.855 168.843" fill="#937C76"/>
<path d="M465.771 246.387C473.539 237.92 482.285 230.414 491.859 224.067C493.639 222.88 491.971 220 490.176 221.187C480.372 227.694 471.369 235.36 463.415 244.027C461.965 245.6 464.316 247.96 465.771 246.387Z" fill="#937C76"/>
<path d="M522.145 229.08C535.367 222.36 549.588 217.813 564.243 215.533C566.356 215.213 565.459 212 563.357 212.32C548.416 214.64 533.939 219.347 520.464 226.2C518.551 227.173 520.236 230.053 522.145 229.08" fill="#937C76"/>
<path d="M593.984 189.387C600.785 189.387 607.587 189.387 614.389 189.387C616.533 189.387 616.537 186.053 614.389 186.053C607.587 186.053 600.785 186.053 593.984 186.053C591.84 186.053 591.836 189.387 593.984 189.387Z" fill="#937C76"/>
<path d="M483.32 305.573C491.465 299.133 500.453 293.773 509.964 289.6C511.924 288.733 510.229 285.867 508.281 286.72C498.489 291.027 489.344 296.587 480.963 303.227C479.281 304.56 481.655 306.893 483.32 305.573Z" fill="#937C76"/>
<path d="M537.287 302.733C553.667 299.44 570.625 299.52 586.973 302.96C589.067 303.4 589.961 300.187 587.86 299.747C570.9 296.173 553.391 296.107 536.4 299.52C534.299 299.947 535.189 303.16 537.287 302.733Z" fill="#937C76"/>
<path d="M1066.34 400.347C1077.02 412.187 1083.81 427.374 1085.44 443.254C1085.65 445.374 1088.99 445.387 1088.77 443.254C1087.05 426.454 1080.01 410.534 1068.69 397.987C1067.25 396.387 1064.9 398.76 1066.34 400.347Z" fill="#937C76"/>
<path d="M1068.01 447.853C1072.82 462.427 1073.73 478.08 1070.54 493.107C1070.09 495.2 1073.31 496.093 1073.75 494C1077.06 478.4 1076.22 462.107 1071.22 446.96C1070.56 444.933 1067.33 445.8 1068.01 447.853" fill="#937C76"/>
<path d="M1097.88 458.2C1094.51 479.213 1091.14 500.213 1087.77 521.227C1087.43 523.32 1090.65 524.227 1090.98 522.107C1094.35 501.107 1097.72 480.093 1101.09 459.093C1101.43 456.987 1098.21 456.093 1097.88 458.2Z" fill="#937C76"/>
<path d="M371.205 250.52C385.861 238.987 402.4 229.893 419.971 223.653C421.977 222.947 421.112 219.72 419.084 220.44C400.932 226.88 383.984 236.253 368.849 248.16C367.164 249.493 369.537 251.827 371.205 250.52Z" fill="#937C76"/>
<path d="M410.472 245.653C418.88 241.44 427.288 237.24 435.696 233.027C437.615 232.067 435.929 229.2 434.013 230.147C425.605 234.36 417.197 238.56 408.789 242.773C406.871 243.733 408.556 246.613 410.472 245.653Z" fill="#937C76"/>
<path d="M305.208 331.507C314.501 314.547 327.139 299.613 342.301 287.627C343.983 286.293 341.611 283.947 339.944 285.267C324.58 297.427 311.747 312.64 302.331 329.813C301.299 331.707 304.176 333.387 305.208 331.507Z" fill="#937C76"/>
<path d="M325.215 291.52C330.339 285.893 335.463 280.28 340.585 274.653C342.028 273.08 339.677 270.707 338.228 272.307C333.105 277.92 327.981 283.547 322.857 289.16C321.415 290.747 323.765 293.107 325.215 291.52Z" fill="#937C76"/>
<path d="M273.108 378.907C278.499 362.253 286.508 346.547 296.777 332.373C298.037 330.627 295.147 328.96 293.899 330.694C283.464 345.094 275.369 361.093 269.893 378.013C269.232 380.067 272.449 380.947 273.108 378.907Z" fill="#937C76"/>
<path d="M315.613 407.067C320.836 393.147 328.523 380.213 338.232 368.947C339.628 367.333 337.28 364.973 335.876 366.6C325.768 378.307 317.835 391.693 312.4 406.187C311.644 408.187 314.865 409.067 315.613 407.067" fill="#937C76"/>
<path d="M367.583 338.027C377.043 325.867 389.296 316.173 403.305 309.773C405.255 308.88 403.563 306 401.623 306.893C387.396 313.4 374.833 323.32 365.225 335.667C363.923 337.347 366.265 339.72 367.583 338.027Z" fill="#937C76"/>
<path d="M230.525 523.52C232.488 511.387 234.452 499.253 236.416 487.12C236.755 485.027 233.544 484.12 233.201 486.24C231.237 498.373 229.275 510.507 227.311 522.627C226.971 524.733 230.183 525.627 230.525 523.52Z" fill="#937C76"/>
<path d="M243.119 453.44C244.643 446.933 246.168 440.427 247.693 433.907C248.183 431.827 244.969 430.933 244.479 433.027C242.955 439.533 241.429 446.053 239.904 452.56C239.416 454.653 242.628 455.533 243.119 453.44Z" fill="#937C76"/>
<path d="M247.211 495.467C250.035 485.653 252.86 475.853 255.683 466.053C256.277 463.987 253.063 463.107 252.469 465.16C249.644 474.973 246.821 484.773 243.997 494.573C243.401 496.64 246.617 497.52 247.211 495.467Z" fill="#937C76"/>
<path d="M221.74 585.053C225.239 575.8 228.737 566.547 232.236 557.293C232.995 555.28 229.773 554.413 229.021 556.4C225.523 565.667 222.024 574.92 218.527 584.173C217.767 586.187 220.988 587.053 221.74 585.053" fill="#937C76"/>
<path d="M266.74 603.333C269.491 596.773 272.243 590.213 274.995 583.64C275.343 582.813 274.619 581.813 273.831 581.6C272.868 581.333 272.129 581.92 271.78 582.76C269.028 589.32 266.277 595.88 263.525 602.44C263.177 603.28 263.901 604.28 264.689 604.493C265.651 604.76 266.389 604.16 266.74 603.333Z" fill="#937C76"/>
<path d="M289.021 531.813C292.696 521.48 296.961 511.36 301.801 501.507C302.744 499.587 299.869 497.893 298.923 499.827C293.957 509.933 289.577 520.32 285.807 530.933C285.087 532.96 288.307 533.827 289.021 531.813Z" fill="#937C76"/>
<path d="M186.672 666.773C190.948 658.867 195.224 650.96 199.501 643.067C200.523 641.173 197.645 639.493 196.623 641.387C192.347 649.28 188.071 657.187 183.793 665.093C182.772 666.973 185.649 668.667 186.672 666.773Z" fill="#937C76"/>
</svg>
